<svg width="23" height="22" viewBox="0 0 23 22" fill="none" xmlns="http://www.w3.org/2000/svg">
<g clip-path="url(#clip0_4459_9319)">
<path d="M9.04443 7.73438H12.9116V9.02344H9.04443V7.73438Z" fill="#FF817F"/>
<path d="M9.04443 14.2656H12.9116V15.5547H9.04443V14.2656Z" fill="#FF817F"/>
<path d="M9.04443 16.8438H12.9116V18.1328H9.04443V16.8438Z" fill="#FF817F"/>
<path d="M9.04443 5.15625H12.9116V6.44531H9.04443V5.15625Z" fill="#FF817F"/>
<path d="M20.646 0H5.46313C5.68515 0.380703 5.82175 0.817394 5.82175 1.28906V21.3555C5.82175 21.7164 6.1053 22 6.46628 22H21.935C22.296 22 22.5796 21.7164 22.5796 21.3555V1.93359C22.5796 0.863629 21.7159 0 20.646 0ZM14.2007 18.7773C14.2007 19.1336 13.9124 19.4219 13.5561 19.4219H8.39988C8.04362 19.4219 7.75535 19.1336 7.75535 18.7773V13.6211C7.75535 13.2648 8.04362 12.9766 8.39988 12.9766H9.42206L9.23321 12.7877C8.98146 12.536 8.98146 12.1281 9.23321 11.8763C9.48497 11.6246 9.89287 11.6246 10.1446 11.8763L10.978 12.7097L11.8114 11.8763C12.0631 11.6246 12.471 11.6246 12.7228 11.8763C12.9745 12.1281 12.9745 12.536 12.7228 12.7877L12.5339 12.9766H13.5561C13.9124 12.9766 14.2007 13.2648 14.2007 13.6211V18.7773ZM14.2007 9.66797C14.2007 10.0242 13.9124 10.3125 13.5561 10.3125H8.39988C8.04362 10.3125 7.75535 10.0242 7.75535 9.66797V4.51172C7.75535 4.15546 8.04362 3.86719 8.39988 3.86719H9.42206L9.23321 3.67834C8.98146 3.42659 8.98146 3.01868 9.23321 2.76693C9.48497 2.51518 9.89287 2.51518 10.1446 2.76693L10.978 3.60031L11.8114 2.76693C12.0631 2.51518 12.471 2.51518 12.7228 2.76693C12.9745 3.01868 12.9745 3.42659 12.7228 3.67834L12.5339 3.86719H13.5561C13.9124 3.86719 14.2007 4.15546 14.2007 4.51172V9.66797ZM20.0014 18.1328H16.1343C15.778 18.1328 15.4897 17.8445 15.4897 17.4883C15.4897 17.132 15.778 16.8438 16.1343 16.8438H20.0014C20.3577 16.8438 20.646 17.132 20.646 17.4883C20.646 17.8445 20.3577 18.1328 20.0014 18.1328ZM20.0014 15.5547H16.1343C15.778 15.5547 15.4897 15.2664 15.4897 14.9102C15.4897 14.5539 15.778 14.2656 16.1343 14.2656H20.0014C20.3577 14.2656 20.646 14.5539 20.646 14.9102C20.646 15.2664 20.3577 15.5547 20.0014 15.5547ZM20.0014 9.02344H16.1343C15.778 9.02344 15.4897 8.73516 15.4897 8.37891C15.4897 8.02265 15.778 7.73438 16.1343 7.73438H20.0014C20.3577 7.73438 20.646 8.02265 20.646 8.37891C20.646 8.73516 20.3577 9.02344 20.0014 9.02344ZM20.0014 6.44531H16.1343C15.778 6.44531 15.4897 6.15704 15.4897 5.80078C15.4897 5.44453 15.778 5.15625 16.1343 5.15625H20.0014C20.3577 5.15625 20.646 5.44453 20.646 5.80078C20.646 6.15704 20.3577 6.44531 20.0014 6.44531Z" fill="#FF817F"/>
<path d="M1.22412 7.73438H4.53271V1.28906C4.53271 0.580078 3.95264 0 3.24365 0H1.86865C1.15967 0 0.57959 0.580078 0.57959 1.28906V7.08984C0.57959 7.4458 0.868168 7.73438 1.22412 7.73438Z" fill="#FF817F"/>
</g>
<defs>
<clipPath id="clip0_4459_9319">
<rect width="22" height="22" fill="white" transform="translate(0.57959)"/>
</clipPath>
</defs>
</svg>
