<svg width="22" height="22" viewBox="0 0 22 22" fill="none" xmlns="http://www.w3.org/2000/svg">
<g clip-path="url(#clip0_4454_9146)">
<path d="M8.46484 7.73438H12.332V9.02344H8.46484V7.73438Z" fill="white"/>
<path d="M8.46484 14.2656H12.332V15.5547H8.46484V14.2656Z" fill="white"/>
<path d="M8.46484 16.8438H12.332V18.1328H8.46484V16.8438Z" fill="white"/>
<path d="M8.46484 5.15625H12.332V6.44531H8.46484V5.15625Z" fill="white"/>
<path d="M20.0664 0H4.88354C5.10556 0.380703 5.24216 0.817394 5.24216 1.28906V21.3555C5.24216 21.7164 5.52571 22 5.88669 22H21.3554C21.7164 22 22 21.7164 22 21.3555V1.93359C22 0.863629 21.1363 0 20.0664 0ZM13.6211 18.7773C13.6211 19.1336 13.3328 19.4219 12.9765 19.4219H7.82029C7.46403 19.4219 7.17576 19.1336 7.17576 18.7773V13.6211C7.17576 13.2648 7.46403 12.9766 7.82029 12.9766H8.84247L8.65362 12.7877C8.40187 12.536 8.40187 12.1281 8.65362 11.8763C8.90538 11.6246 9.31328 11.6246 9.56503 11.8763L10.3984 12.7097L11.2318 11.8763C11.4835 11.6246 11.8914 11.6246 12.1432 11.8763C12.395 12.1281 12.395 12.536 12.1432 12.7877L11.9544 12.9766H12.9765C13.3328 12.9766 13.6211 13.2648 13.6211 13.6211V18.7773ZM13.6211 9.66797C13.6211 10.0242 13.3328 10.3125 12.9765 10.3125H7.82029C7.46403 10.3125 7.17576 10.0242 7.17576 9.66797V4.51172C7.17576 4.15546 7.46403 3.86719 7.82029 3.86719H8.84247L8.65362 3.67834C8.40187 3.42659 8.40187 3.01868 8.65362 2.76693C8.90538 2.51518 9.31328 2.51518 9.56503 2.76693L10.3984 3.60031L11.2318 2.76693C11.4835 2.51518 11.8914 2.51518 12.1432 2.76693C12.395 3.01868 12.395 3.42659 12.1432 3.67834L11.9544 3.86719H12.9765C13.3328 3.86719 13.6211 4.15546 13.6211 4.51172V9.66797ZM19.4219 18.1328H15.5547C15.1984 18.1328 14.9101 17.8445 14.9101 17.4883C14.9101 17.132 15.1984 16.8438 15.5547 16.8438H19.4219C19.7781 16.8438 20.0664 17.132 20.0664 17.4883C20.0664 17.8445 19.7781 18.1328 19.4219 18.1328ZM19.4219 15.5547H15.5547C15.1984 15.5547 14.9101 15.2664 14.9101 14.9102C14.9101 14.5539 15.1984 14.2656 15.5547 14.2656H19.4219C19.7781 14.2656 20.0664 14.5539 20.0664 14.9102C20.0664 15.2664 19.7781 15.5547 19.4219 15.5547ZM19.4219 9.02344H15.5547C15.1984 9.02344 14.9101 8.73516 14.9101 8.37891C14.9101 8.02265 15.1984 7.73438 15.5547 7.73438H19.4219C19.7781 7.73438 20.0664 8.02265 20.0664 8.37891C20.0664 8.73516 19.7781 9.02344 19.4219 9.02344ZM19.4219 6.44531H15.5547C15.1984 6.44531 14.9101 6.15704 14.9101 5.80078C14.9101 5.44453 15.1984 5.15625 15.5547 5.15625H19.4219C19.7781 5.15625 20.0664 5.44453 20.0664 5.80078C20.0664 6.15704 19.7781 6.44531 19.4219 6.44531Z" fill="white"/>
<path d="M0.644531 7.73438H3.95312V1.28906C3.95312 0.580078 3.37305 0 2.66406 0H1.28906C0.580078 0 0 0.580078 0 1.28906V7.08984C0 7.4458 0.288578 7.73438 0.644531 7.73438Z" fill="white"/>
</g>
<defs>
<clipPath id="clip0_4454_9146">
<rect width="22" height="22" fill="white"/>
</clipPath>
</defs>
</svg>
