<svg width="22" height="22" viewBox="0 0 22 22" fill="none" xmlns="http://www.w3.org/2000/svg">
<path d="M13.4635 10.9157L12.4172 10.5818C12.3163 10.5475 12.2328 10.4752 12.1845 10.3802C12.1362 10.2852 12.1269 10.1751 12.1586 10.0734L12.4741 9.00987C12.4866 8.96744 12.5075 8.92793 12.5355 8.89366C12.5635 8.8594 12.598 8.83108 12.6371 8.81035C12.6762 8.78962 12.7191 8.77691 12.7631 8.77297C12.8072 8.76902 12.8516 8.77392 12.8938 8.78736C12.9359 8.80081 12.9749 8.82255 13.0086 8.85129C13.0422 8.88003 13.0698 8.9152 13.0896 8.95474C13.1095 8.99428 13.1213 9.03738 13.1242 9.08153C13.1272 9.12567 13.1214 9.16997 13.107 9.21181L12.9948 9.5902C13.2905 9.33756 13.5289 9.02468 13.6939 8.67248C13.859 8.32029 13.9469 7.9369 13.9518 7.54798C13.9649 7.19473 13.9073 6.84243 13.7825 6.51171C13.6577 6.18098 13.4682 5.87849 13.225 5.62194C12.9818 5.36538 12.6899 5.15993 12.3663 5.01761C12.0428 4.8753 11.694 4.79897 11.3406 4.79312C11.2522 4.78914 11.1687 4.75121 11.1075 4.68723C11.0463 4.62324 11.0122 4.53814 11.0122 4.44962C11.0122 4.3611 11.0463 4.27599 11.1075 4.212C11.1687 4.14802 11.2522 4.11009 11.3406 4.10612L11.3438 4.1068V4.10612C11.7867 4.11398 12.2235 4.21005 12.6287 4.38871C13.0339 4.56737 13.3995 4.82503 13.704 5.14662C14.0085 5.46822 14.2458 5.8473 14.4021 6.26169C14.5584 6.67608 14.6305 7.11747 14.6142 7.56006C14.6079 8.05931 14.4924 8.55114 14.2758 9.00101C14.0592 9.45087 13.7467 9.84787 13.3603 10.1641L13.6582 10.2592C14.0723 10.3912 13.8869 11.0519 13.4635 10.9157Z" fill="white"/>
<path d="M10.6563 10.9805V10.9811C10.2136 10.9732 9.77679 10.8771 9.37158 10.6984C8.96637 10.5197 8.60084 10.2621 8.29636 9.94047C7.99187 9.61889 7.75454 9.23985 7.59824 8.82549C7.44194 8.41113 7.36979 7.96977 7.38603 7.52721C7.39206 7.01049 7.51518 6.50186 7.74614 6.03959C7.9771 5.57732 8.30987 5.17344 8.71944 4.85833L8.34198 4.7378C8.25808 4.70936 8.18847 4.64954 8.14773 4.57087C8.107 4.49221 8.09831 4.40083 8.1235 4.31591C8.14868 4.23098 8.20578 4.15911 8.28282 4.11537C8.35985 4.07164 8.45083 4.05944 8.53666 4.08133L9.583 4.41527C9.68389 4.44954 9.76739 4.52188 9.8157 4.61685C9.864 4.71183 9.87328 4.82192 9.84155 4.92364L9.52609 5.98715C9.51375 6.0298 9.49298 6.06953 9.46503 6.10401C9.43707 6.1385 9.40248 6.16703 9.36332 6.18792C9.32415 6.20881 9.28119 6.22165 9.23698 6.22567C9.19277 6.22968 9.14821 6.2248 9.10591 6.2113C9.06362 6.19781 9.02446 6.17598 8.99075 6.1471C8.95704 6.11822 8.92945 6.08287 8.90963 6.04316C8.8898 6.00344 8.87813 5.96015 8.87531 5.91585C8.87249 5.87154 8.87858 5.82713 8.89321 5.78522L8.97016 5.52579C8.68462 5.77858 8.4551 6.0883 8.29635 6.43506C8.1376 6.78181 8.05312 7.15793 8.04835 7.53927C8.03527 7.89253 8.09281 8.24484 8.21761 8.57557C8.3424 8.90631 8.53194 9.20881 8.77512 9.46537C9.01831 9.72193 9.31024 9.92738 9.63383 10.0697C9.95741 10.212 10.3061 10.2883 10.6596 10.2941C10.7482 10.298 10.8319 10.3361 10.8931 10.4004C10.9544 10.4647 10.9883 10.5501 10.9879 10.6389C10.9875 10.7276 10.9527 10.8127 10.8909 10.8764C10.8291 10.9401 10.745 10.9774 10.6563 10.9805Z" fill="white"/>
<path d="M17.7732 12.2329H4.2269C3.47108 12.2337 2.7465 12.5346 2.21236 13.0693C1.67821 13.604 1.37817 14.3289 1.37817 15.0848C1.37817 15.8406 1.67821 16.5655 2.21236 17.1002C2.7465 17.6349 3.47108 17.9358 4.2269 17.9366H17.7732C18.529 17.9358 19.2536 17.6349 19.7878 17.1002C20.3219 16.5655 20.6219 15.8406 20.6219 15.0848C20.6219 14.3289 20.3219 13.604 19.7878 13.0693C19.2536 12.5346 18.529 12.2337 17.7732 12.2329ZM5.31845 15.9561L4.98443 15.7392V16.1374C4.98443 16.2285 4.94822 16.316 4.88375 16.3804C4.81928 16.4449 4.73185 16.4811 4.64068 16.4811C4.54951 16.4811 4.46208 16.4449 4.39761 16.3804C4.33315 16.316 4.29693 16.2285 4.29693 16.1374V15.7392L3.96292 15.9561C3.88644 16.0047 3.79387 16.0212 3.70532 16.0019C3.61678 15.9826 3.53943 15.9292 3.49009 15.8531C3.44076 15.7771 3.42343 15.6847 3.44188 15.596C3.46033 15.5073 3.51307 15.4294 3.58862 15.3794L4.00945 15.1061L3.58862 14.8329C3.51296 14.7829 3.46011 14.705 3.4416 14.6162C3.42308 14.5275 3.4404 14.435 3.48977 14.3589C3.53914 14.2828 3.61657 14.2293 3.70519 14.2101C3.79381 14.1909 3.88644 14.2074 3.96292 14.2561L4.29693 14.473V14.0749C4.29693 13.9837 4.33315 13.8963 4.39761 13.8318C4.46208 13.7673 4.54951 13.7311 4.64068 13.7311C4.73185 13.7311 4.81928 13.7673 4.88375 13.8318C4.94822 13.8963 4.98443 13.9837 4.98443 14.0749V14.473L5.31845 14.2561C5.39492 14.2074 5.48756 14.1909 5.57618 14.2101C5.6648 14.2293 5.74223 14.2828 5.7916 14.3589C5.84097 14.435 5.85828 14.5275 5.83976 14.6162C5.82125 14.705 5.76841 14.7829 5.69275 14.8329L5.27191 15.1061L5.69275 15.3794C5.76829 15.4294 5.82103 15.5073 5.83948 15.596C5.85793 15.6847 5.8406 15.7771 5.79127 15.8531C5.74194 15.9292 5.66459 15.9826 5.57604 16.0019C5.4875 16.0212 5.39492 16.0047 5.31845 15.9561ZM8.7865 15.3794C8.86204 15.4294 8.91478 15.5073 8.93323 15.596C8.95168 15.6847 8.93435 15.7771 8.88502 15.8531C8.83569 15.9292 8.75834 15.9826 8.66979 16.0019C8.58125 16.0212 8.48867 16.0047 8.4122 15.9561L8.07818 15.7392V16.1374C8.07818 16.2285 8.04197 16.316 7.9775 16.3804C7.91303 16.4449 7.8256 16.4811 7.73443 16.4811C7.64326 16.4811 7.55583 16.4449 7.49136 16.3804C7.4269 16.316 7.39068 16.2285 7.39068 16.1374V15.7392L7.05667 15.9561C6.98019 16.0047 6.88762 16.0212 6.79907 16.0019C6.71053 15.9826 6.63318 15.9292 6.58384 15.8531C6.53451 15.7771 6.51718 15.6847 6.53563 15.596C6.55408 15.5073 6.60682 15.4294 6.68237 15.3794L7.1032 15.1061L6.68237 14.8329C6.60671 14.7829 6.55386 14.705 6.53535 14.6162C6.51683 14.5275 6.53415 14.435 6.58352 14.3589C6.63289 14.2828 6.71032 14.2293 6.79894 14.2101C6.88756 14.1909 6.98019 14.2074 7.05667 14.2561L7.39068 14.473V14.0749C7.39068 13.9837 7.4269 13.8963 7.49136 13.8318C7.55583 13.7673 7.64326 13.7311 7.73443 13.7311C7.8256 13.7311 7.91303 13.7673 7.9775 13.8318C8.04197 13.8963 8.07818 13.9837 8.07818 14.0749V14.473L8.4122 14.2561C8.48867 14.2074 8.58131 14.1909 8.66993 14.2101C8.75855 14.2293 8.83598 14.2828 8.88535 14.3589C8.93472 14.435 8.95203 14.5275 8.93351 14.6162C8.915 14.705 8.86216 14.7829 8.7865 14.8329L8.36566 15.1061L8.7865 15.3794ZM11.5059 15.9561L11.1719 15.7392V16.1374C11.1719 16.2285 11.1357 16.316 11.0712 16.3804C11.0068 16.4449 10.9193 16.4811 10.8282 16.4811C10.737 16.4811 10.6496 16.4449 10.5851 16.3804C10.5206 16.316 10.4844 16.2285 10.4844 16.1374V15.7392L10.1504 15.9561C10.0739 16.0047 9.98137 16.0212 9.89282 16.0019C9.80428 15.9826 9.72693 15.9292 9.67759 15.8531C9.62826 15.7771 9.61093 15.6847 9.62938 15.596C9.64783 15.5073 9.70057 15.4294 9.77612 15.3794L10.197 15.1061L9.77612 14.8329C9.70046 14.7829 9.64761 14.705 9.6291 14.6162C9.61058 14.5275 9.6279 14.435 9.67727 14.3589C9.72664 14.2828 9.80407 14.2293 9.89269 14.2101C9.98131 14.1909 10.0739 14.2074 10.1504 14.2561L10.4844 14.473V14.0749C10.4844 13.9837 10.5206 13.8963 10.5851 13.8318C10.6496 13.7673 10.737 13.7311 10.8282 13.7311C10.9193 13.7311 11.0068 13.7673 11.0712 13.8318C11.1357 13.8963 11.1719 13.9837 11.1719 14.0749V14.473L11.5059 14.2561C11.5824 14.2074 11.6751 14.1909 11.7637 14.2101C11.8523 14.2293 11.9297 14.2828 11.9791 14.3589C12.0285 14.435 12.0458 14.5275 12.0273 14.6162C12.0087 14.705 11.9559 14.7829 11.8802 14.8329L11.4594 15.1061L11.8802 15.3794C11.9558 15.4294 12.0085 15.5073 12.027 15.596C12.0454 15.6847 12.0281 15.7771 11.9788 15.8531C11.9294 15.9292 11.8521 15.9826 11.7635 16.0019C11.675 16.0212 11.5824 16.0047 11.5059 15.9561ZM14.5997 15.9561L14.2657 15.7392V16.1374C14.2657 16.2285 14.2295 16.316 14.165 16.3804C14.1005 16.4449 14.0131 16.4811 13.9219 16.4811C13.8308 16.4811 13.7433 16.4449 13.6789 16.3804C13.6144 16.316 13.5782 16.2285 13.5782 16.1374V15.7392L13.2442 15.9561C13.1677 16.0047 13.0751 16.0212 12.9866 16.0019C12.898 15.9826 12.8207 15.9292 12.7713 15.8531C12.722 15.7771 12.7047 15.6847 12.7231 15.596C12.7416 15.5073 12.7943 15.4294 12.8699 15.3794L13.2907 15.1061L12.8699 14.8329C12.7942 14.7829 12.7414 14.705 12.7228 14.6162C12.7043 14.5275 12.7216 14.435 12.771 14.3589C12.8204 14.2828 12.8978 14.2293 12.9864 14.2101C13.0751 14.1909 13.1677 14.2074 13.2442 14.2561L13.5782 14.473V14.0749C13.5782 13.9837 13.6144 13.8963 13.6789 13.8318C13.7433 13.7673 13.8308 13.7311 13.9219 13.7311C14.0131 13.7311 14.1005 13.7673 14.165 13.8318C14.2295 13.8963 14.2657 13.9837 14.2657 14.0749V14.473L14.5997 14.2561C14.6762 14.2074 14.7688 14.1909 14.8574 14.2101C14.946 14.2293 15.0235 14.2828 15.0728 14.3589C15.1222 14.435 15.1395 14.5275 15.121 14.6162C15.1025 14.705 15.0497 14.7829 14.974 14.8329L14.5532 15.1061L14.974 15.3794C15.0495 15.4294 15.1023 15.5073 15.1207 15.596C15.1392 15.6847 15.1219 15.7771 15.0725 15.8531C15.0232 15.9292 14.9458 15.9826 14.8573 16.0019C14.7687 16.0212 14.6762 16.0047 14.5997 15.9561ZM18.2188 16.4811H16.1563C16.0651 16.4811 15.9777 16.4449 15.9132 16.3804C15.8488 16.316 15.8126 16.2285 15.8126 16.1374C15.8126 16.0462 15.8488 15.9588 15.9132 15.8943C15.9777 15.8298 16.0651 15.7936 16.1563 15.7936H18.2188C18.31 15.7936 18.3974 15.8298 18.4619 15.8943C18.5263 15.9588 18.5626 16.0462 18.5626 16.1374C18.5626 16.2285 18.5263 16.316 18.4619 16.3804C18.3974 16.4449 18.31 16.4811 18.2188 16.4811Z" fill="white"/>
</svg>
