<svg width="23" height="22" viewBox="0 0 23 22" fill="none" xmlns="http://www.w3.org/2000/svg">
<path d="M14.0431 10.9157L12.9968 10.5818C12.8959 10.5475 12.8124 10.4752 12.7641 10.3802C12.7158 10.2852 12.7065 10.1751 12.7382 10.0734L13.0537 9.00987C13.0662 8.96744 13.0871 8.92793 13.1151 8.89366C13.1431 8.8594 13.1776 8.83108 13.2167 8.81035C13.2558 8.78962 13.2986 8.77691 13.3427 8.77297C13.3868 8.76902 13.4312 8.77392 13.4733 8.78736C13.5155 8.80081 13.5545 8.82255 13.5882 8.85129C13.6218 8.88003 13.6494 8.9152 13.6692 8.95474C13.6891 8.99428 13.7009 9.03738 13.7038 9.08153C13.7068 9.12567 13.7009 9.16997 13.6866 9.21181L13.5744 9.5902C13.8701 9.33756 14.1085 9.02468 14.2735 8.67248C14.4386 8.32029 14.5265 7.9369 14.5314 7.54798C14.5445 7.19473 14.4869 6.84243 14.3621 6.51171C14.2373 6.18098 14.0478 5.87849 13.8046 5.62194C13.5614 5.36538 13.2695 5.15993 12.9459 5.01761C12.6224 4.8753 12.2736 4.79897 11.9202 4.79312C11.8318 4.78914 11.7483 4.75121 11.6871 4.68723C11.6259 4.62324 11.5918 4.53814 11.5918 4.44962C11.5918 4.3611 11.6259 4.27599 11.6871 4.212C11.7483 4.14802 11.8318 4.11009 11.9202 4.10612L11.9234 4.1068V4.10612C12.3662 4.11398 12.803 4.21005 13.2083 4.38871C13.6135 4.56737 13.9791 4.82503 14.2836 5.14662C14.5881 5.46822 14.8254 5.8473 14.9817 6.26169C15.138 6.67608 15.2101 7.11747 15.1937 7.56006C15.1875 8.05931 15.072 8.55114 14.8554 9.00101C14.6388 9.45087 14.3263 9.84787 13.9399 10.1641L14.2378 10.2592C14.6519 10.3912 14.4665 11.0519 14.0431 10.9157Z" fill="#FF817F"/>
<path d="M11.2359 10.9805V10.9811C10.7931 10.9732 10.3564 10.8771 9.95117 10.6984C9.54596 10.5197 9.18043 10.2621 8.87595 9.94047C8.57146 9.61889 8.33413 9.23985 8.17783 8.82549C8.02153 8.41113 7.94938 7.96977 7.96562 7.52721C7.97165 7.01049 8.09477 6.50186 8.32573 6.03959C8.55669 5.57732 8.88946 5.17344 9.29903 4.85833L8.92157 4.7378C8.83767 4.70936 8.76806 4.64954 8.72732 4.57087C8.68659 4.49221 8.6779 4.40083 8.70309 4.31591C8.72827 4.23098 8.78537 4.15911 8.86241 4.11537C8.93944 4.07164 9.03042 4.05944 9.11625 4.08133L10.1626 4.41527C10.2635 4.44954 10.347 4.52188 10.3953 4.61685C10.4436 4.71183 10.4529 4.82192 10.4211 4.92364L10.1057 5.98715C10.0933 6.0298 10.0726 6.06953 10.0446 6.10401C10.0167 6.1385 9.98207 6.16703 9.94291 6.18792C9.90374 6.20881 9.86078 6.22165 9.81657 6.22567C9.77236 6.22968 9.7278 6.2248 9.6855 6.2113C9.64321 6.19781 9.60405 6.17598 9.57034 6.1471C9.53663 6.11822 9.50904 6.08287 9.48922 6.04316C9.46939 6.00344 9.45772 5.96015 9.4549 5.91585C9.45208 5.87154 9.45817 5.82713 9.4728 5.78522L9.54975 5.52579C9.2642 5.77858 9.03469 6.0883 8.87594 6.43506C8.71719 6.78181 8.63271 7.15793 8.62794 7.53927C8.61486 7.89253 8.6724 8.24484 8.7972 8.57557C8.92199 8.90631 9.11153 9.20881 9.35471 9.46537C9.5979 9.72193 9.88983 9.92738 10.2134 10.0697C10.537 10.212 10.8857 10.2883 11.2392 10.2941C11.3278 10.298 11.4115 10.3361 11.4727 10.4004C11.5339 10.4647 11.5679 10.5501 11.5675 10.6389C11.5671 10.7276 11.5323 10.8127 11.4705 10.8764C11.4087 10.9401 11.3246 10.9774 11.2359 10.9805Z" fill="#FF817F"/>
<path d="M18.3528 12.2329H4.80649C4.05067 12.2337 3.32609 12.5346 2.79195 13.0693C2.2578 13.604 1.95776 14.3289 1.95776 15.0848C1.95776 15.8406 2.2578 16.5655 2.79195 17.1002C3.32609 17.6349 4.05067 17.9358 4.80649 17.9366H18.3528C19.1086 17.9358 19.8332 17.6349 20.3673 17.1002C20.9015 16.5655 21.2015 15.8406 21.2015 15.0848C21.2015 14.3289 20.9015 13.604 20.3673 13.0693C19.8332 12.5346 19.1086 12.2337 18.3528 12.2329ZM5.89804 15.9561L5.56402 15.7392V16.1374C5.56402 16.2285 5.5278 16.316 5.46334 16.3804C5.39887 16.4449 5.31144 16.4811 5.22027 16.4811C5.1291 16.4811 5.04167 16.4449 4.9772 16.3804C4.91274 16.316 4.87652 16.2285 4.87652 16.1374V15.7392L4.54251 15.9561C4.46603 16.0047 4.37346 16.0212 4.28491 16.0019C4.19637 15.9826 4.11902 15.9292 4.06968 15.8531C4.02035 15.7771 4.00302 15.6847 4.02147 15.596C4.03992 15.5073 4.09266 15.4294 4.16821 15.3794L4.58904 15.1061L4.16821 14.8329C4.09255 14.7829 4.0397 14.705 4.02119 14.6162C4.00267 14.5275 4.01999 14.435 4.06936 14.3589C4.11873 14.2828 4.19616 14.2293 4.28478 14.2101C4.3734 14.1909 4.46603 14.2074 4.54251 14.2561L4.87652 14.473V14.0749C4.87652 13.9837 4.91274 13.8963 4.9772 13.8318C5.04167 13.7673 5.1291 13.7311 5.22027 13.7311C5.31144 13.7311 5.39887 13.7673 5.46334 13.8318C5.5278 13.8963 5.56402 13.9837 5.56402 14.0749V14.473L5.89804 14.2561C5.97451 14.2074 6.06714 14.1909 6.15577 14.2101C6.24439 14.2293 6.32182 14.2828 6.37119 14.3589C6.42056 14.435 6.43787 14.5275 6.41935 14.6162C6.40084 14.705 6.348 14.7829 6.27234 14.8329L5.8515 15.1061L6.27234 15.3794C6.34788 15.4294 6.40062 15.5073 6.41907 15.596C6.43752 15.6847 6.42019 15.7771 6.37086 15.8531C6.32153 15.9292 6.24418 15.9826 6.15563 16.0019C6.06709 16.0212 5.97451 16.0047 5.89804 15.9561ZM9.36609 15.3794C9.44163 15.4294 9.49437 15.5073 9.51282 15.596C9.53127 15.6847 9.51394 15.7771 9.46461 15.8531C9.41528 15.9292 9.33792 15.9826 9.24938 16.0019C9.16084 16.0212 9.06826 16.0047 8.99179 15.9561L8.65777 15.7392V16.1374C8.65777 16.2285 8.62156 16.316 8.55709 16.3804C8.49262 16.4449 8.40519 16.4811 8.31402 16.4811C8.22285 16.4811 8.13542 16.4449 8.07095 16.3804C8.00649 16.316 7.97027 16.2285 7.97027 16.1374V15.7392L7.63626 15.9561C7.55978 16.0047 7.46721 16.0212 7.37866 16.0019C7.29012 15.9826 7.21277 15.9292 7.16343 15.8531C7.1141 15.7771 7.09677 15.6847 7.11522 15.596C7.13367 15.5073 7.18641 15.4294 7.26196 15.3794L7.68279 15.1061L7.26196 14.8329C7.1863 14.7829 7.13345 14.705 7.11494 14.6162C7.09642 14.5275 7.11374 14.435 7.16311 14.3589C7.21248 14.2828 7.28991 14.2293 7.37853 14.2101C7.46715 14.1909 7.55978 14.2074 7.63626 14.2561L7.97027 14.473V14.0749C7.97027 13.9837 8.00649 13.8963 8.07095 13.8318C8.13542 13.7673 8.22285 13.7311 8.31402 13.7311C8.40519 13.7311 8.49262 13.7673 8.55709 13.8318C8.62156 13.8963 8.65777 13.9837 8.65777 14.0749V14.473L8.99179 14.2561C9.06826 14.2074 9.1609 14.1909 9.24952 14.2101C9.33814 14.2293 9.41557 14.2828 9.46494 14.3589C9.51431 14.435 9.53162 14.5275 9.5131 14.6162C9.49459 14.705 9.44175 14.7829 9.36609 14.8329L8.94525 15.1061L9.36609 15.3794ZM12.0855 15.9561L11.7515 15.7392V16.1374C11.7515 16.2285 11.7153 16.316 11.6508 16.3804C11.5864 16.4449 11.4989 16.4811 11.4078 16.4811C11.3166 16.4811 11.2292 16.4449 11.1647 16.3804C11.1002 16.316 11.064 16.2285 11.064 16.1374V15.7392L10.73 15.9561C10.6535 16.0047 10.561 16.0212 10.4724 16.0019C10.3839 15.9826 10.3065 15.9292 10.2572 15.8531C10.2078 15.7771 10.1905 15.6847 10.209 15.596C10.2274 15.5073 10.2802 15.4294 10.3557 15.3794L10.7765 15.1061L10.3557 14.8329C10.28 14.7829 10.2272 14.705 10.2087 14.6162C10.1902 14.5275 10.2075 14.435 10.2569 14.3589C10.3062 14.2828 10.3837 14.2293 10.4723 14.2101C10.5609 14.1909 10.6535 14.2074 10.73 14.2561L11.064 14.473V14.0749C11.064 13.9837 11.1002 13.8963 11.1647 13.8318C11.2292 13.7673 11.3166 13.7311 11.4078 13.7311C11.4989 13.7311 11.5864 13.7673 11.6508 13.8318C11.7153 13.8963 11.7515 13.9837 11.7515 14.0749V14.473L12.0855 14.2561C12.162 14.2074 12.2546 14.1909 12.3433 14.2101C12.4319 14.2293 12.5093 14.2828 12.5587 14.3589C12.6081 14.435 12.6254 14.5275 12.6069 14.6162C12.5883 14.705 12.5355 14.7829 12.4598 14.8329L12.039 15.1061L12.4598 15.3794C12.5354 15.4294 12.5881 15.5073 12.6066 15.596C12.625 15.6847 12.6077 15.7771 12.5584 15.8531C12.509 15.9292 12.4317 15.9826 12.3431 16.0019C12.2546 16.0212 12.162 16.0047 12.0855 15.9561ZM15.1793 15.9561L14.8453 15.7392V16.1374C14.8453 16.2285 14.8091 16.316 14.7446 16.3804C14.6801 16.4449 14.5927 16.4811 14.5015 16.4811C14.4104 16.4811 14.3229 16.4449 14.2585 16.3804C14.194 16.316 14.1578 16.2285 14.1578 16.1374V15.7392L13.8238 15.9561C13.7473 16.0047 13.6547 16.0212 13.5662 16.0019C13.4776 15.9826 13.4003 15.9292 13.3509 15.8531C13.3016 15.7771 13.2843 15.6847 13.3027 15.596C13.3212 15.5073 13.3739 15.4294 13.4495 15.3794L13.8703 15.1061L13.4495 14.8329C13.3738 14.7829 13.321 14.705 13.3024 14.6162C13.2839 14.5275 13.3012 14.435 13.3506 14.3589C13.4 14.2828 13.4774 14.2293 13.566 14.2101C13.6546 14.1909 13.7473 14.2074 13.8238 14.2561L14.1578 14.473V14.0749C14.1578 13.9837 14.194 13.8963 14.2585 13.8318C14.3229 13.7673 14.4104 13.7311 14.5015 13.7311C14.5927 13.7311 14.6801 13.7673 14.7446 13.8318C14.8091 13.8963 14.8453 13.9837 14.8453 14.0749V14.473L15.1793 14.2561C15.2558 14.2074 15.3484 14.1909 15.437 14.2101C15.5256 14.2293 15.6031 14.2828 15.6524 14.3589C15.7018 14.435 15.7191 14.5275 15.7006 14.6162C15.6821 14.705 15.6292 14.7829 15.5536 14.8329L15.1327 15.1061L15.5536 15.3794C15.6291 15.4294 15.6819 15.5073 15.7003 15.596C15.7188 15.6847 15.7014 15.7771 15.6521 15.8531C15.6028 15.9292 15.5254 15.9826 15.4369 16.0019C15.3483 16.0212 15.2558 16.0047 15.1793 15.9561ZM18.7984 16.4811H16.7359C16.6447 16.4811 16.5573 16.4449 16.4928 16.3804C16.4284 16.316 16.3921 16.2285 16.3921 16.1374C16.3921 16.0462 16.4284 15.9588 16.4928 15.8943C16.5573 15.8298 16.6447 15.7936 16.7359 15.7936H18.7984C18.8896 15.7936 18.977 15.8298 19.0415 15.8943C19.1059 15.9588 19.1421 16.0462 19.1421 16.1374C19.1421 16.2285 19.1059 16.316 19.0415 16.3804C18.977 16.4449 18.8896 16.4811 18.7984 16.4811Z" fill="#FF817F"/>
</svg>
