<svg width="23" height="22" viewBox="0 0 23 22" fill="none" xmlns="http://www.w3.org/2000/svg">
<g clip-path="url(#clip0_4459_9281)">
<path d="M11.5796 12.4438C8.94479 12.4438 6.80151 14.587 6.80151 17.2219C6.80151 19.8567 8.94479 22 11.5796 22C14.2145 22 16.3578 19.8567 16.3578 17.2219C16.3578 14.587 14.2145 12.4438 11.5796 12.4438ZM9.03933 16.3616C9.03933 16.0054 9.32808 15.7171 9.68386 15.7171C10.0401 15.7171 10.3284 16.0054 10.3284 16.3616C10.3284 16.7174 10.0401 17.0062 9.68386 17.0062C9.32808 17.0062 9.03933 16.7174 9.03933 16.3616ZM13.1136 19.8739C12.8055 20.0527 12.4111 19.9474 12.2328 19.6393C12.0983 19.4073 11.8482 19.2629 11.5796 19.2629C11.3111 19.2629 11.061 19.4068 10.9269 19.6389C10.7482 19.9481 10.3532 20.0524 10.0465 19.8743C9.73843 19.6965 9.63272 19.302 9.81104 18.9939C10.1746 18.3649 10.8522 17.9738 11.5796 17.9738C12.3062 17.9738 12.9839 18.3644 13.3482 18.9935C13.5266 19.3016 13.4217 19.6956 13.1136 19.8739ZM13.5184 17.0062C13.1622 17.0062 12.8739 16.7174 12.8739 16.3616C12.8739 16.0054 13.1622 15.7171 13.5184 15.7171C13.8742 15.7171 14.1629 16.0054 14.1629 16.3616C14.1629 16.7174 13.8742 17.0062 13.5184 17.0062Z" fill="#FF817F"/>
<path d="M19.3011 0H3.85858C2.91069 0 2.1394 0.771289 2.1394 1.71918V7.08898C2.1394 8.03687 2.91069 8.80816 3.85858 8.80816H8.58128C8.69601 8.80816 8.80772 8.855 8.88636 8.93449L11.119 11.2148C11.3718 11.4739 11.788 11.4724 12.0403 11.2148L14.2712 8.93664C14.352 8.855 14.4637 8.80816 14.5784 8.80816H19.3011C20.249 8.80816 21.0199 8.03687 21.0199 7.08898V1.71918C21.0199 0.771289 20.249 0 19.3011 0ZM10.2906 6.35938H5.36206C5.00628 6.35938 4.71753 6.07062 4.71753 5.71484C4.71753 5.35906 5.00628 5.07031 5.36206 5.07031H10.2906C10.6464 5.07031 10.9351 5.35906 10.9351 5.71484C10.9351 6.07062 10.6464 6.35938 10.2906 6.35938ZM5.36206 3.78125C5.00628 3.78125 4.71753 3.4925 4.71753 3.13672C4.71753 2.78094 5.00628 2.49219 5.36206 2.49219H13.8544C14.2102 2.49219 14.4989 2.78094 14.4989 3.13672C14.4989 3.4925 14.2102 3.78125 13.8544 3.78125H5.36206ZM17.7972 6.35938H12.8687C12.5129 6.35938 12.2242 6.07062 12.2242 5.71484C12.2242 5.35906 12.5129 5.07031 12.8687 5.07031H17.7972C18.153 5.07031 18.4417 5.35906 18.4417 5.71484C18.4417 6.07062 18.153 6.35938 17.7972 6.35938ZM17.7972 3.78125H16.4325C16.0767 3.78125 15.788 3.4925 15.788 3.13672C15.788 2.78094 16.0767 2.49219 16.4325 2.49219H17.7972C18.153 2.49219 18.4417 2.78094 18.4417 3.13672C18.4417 3.4925 18.153 3.78125 17.7972 3.78125Z" fill="#FF817F"/>
</g>
<defs>
<clipPath id="clip0_4459_9281">
<rect width="22" height="22" fill="white" transform="translate(0.57959)"/>
</clipPath>
</defs>
</svg>
