<svg width="20" height="22" viewBox="0 0 20 22" fill="none" xmlns="http://www.w3.org/2000/svg">
<path d="M9.71001 12.4438C7.07517 12.4438 4.93188 14.587 4.93188 17.2219C4.93188 19.8567 7.07517 22 9.71001 22C12.3449 22 14.4881 19.8567 14.4881 17.2219C14.4881 14.587 12.3449 12.4438 9.71001 12.4438ZM7.1697 16.3616C7.1697 16.0054 7.45845 15.7171 7.81423 15.7171C8.17044 15.7171 8.45876 16.0054 8.45876 16.3616C8.45876 16.7174 8.17044 17.0062 7.81423 17.0062C7.45845 17.0062 7.1697 16.7174 7.1697 16.3616ZM11.244 19.8739C10.9359 20.0527 10.5415 19.9474 10.3631 19.6393C10.2286 19.4073 9.97856 19.2629 9.71001 19.2629C9.44145 19.2629 9.19138 19.4068 9.05731 19.6389C8.87861 19.9481 8.48355 20.0524 8.17688 19.8743C7.8688 19.6965 7.7631 19.302 7.94142 18.9939C8.30493 18.3649 8.98255 17.9738 9.71001 17.9738C10.4366 17.9738 11.1142 18.3644 11.4786 18.9935C11.6569 19.3016 11.5521 19.6956 11.244 19.8739ZM11.6488 17.0062C11.2925 17.0062 11.0042 16.7174 11.0042 16.3616C11.0042 16.0054 11.2925 15.7171 11.6488 15.7171C12.0045 15.7171 12.2933 16.0054 12.2933 16.3616C12.2933 16.7174 12.0045 17.0062 11.6488 17.0062Z" fill="white"/>
<path d="M17.4315 0H1.98896C1.04106 0 0.269775 0.771289 0.269775 1.71918V7.08898C0.269775 8.03687 1.04106 8.80816 1.98896 8.80816H6.71165C6.82638 8.80816 6.9381 8.855 7.01673 8.93449L9.24938 11.2148C9.50213 11.4739 9.91841 11.4724 10.1706 11.2148L12.4016 8.93664C12.4824 8.855 12.5941 8.80816 12.7088 8.80816H17.4315C18.3794 8.80816 19.1502 8.03687 19.1502 7.08898V1.71918C19.1502 0.771289 18.3794 0 17.4315 0ZM8.42095 6.35938H3.49243C3.13665 6.35938 2.8479 6.07062 2.8479 5.71484C2.8479 5.35906 3.13665 5.07031 3.49243 5.07031H8.42095C8.77673 5.07031 9.06548 5.35906 9.06548 5.71484C9.06548 6.07062 8.77673 6.35938 8.42095 6.35938ZM3.49243 3.78125C3.13665 3.78125 2.8479 3.4925 2.8479 3.13672C2.8479 2.78094 3.13665 2.49219 3.49243 2.49219H11.9848C12.3406 2.49219 12.6293 2.78094 12.6293 3.13672C12.6293 3.4925 12.3406 3.78125 11.9848 3.78125H3.49243ZM15.9276 6.35938H10.9991C10.6433 6.35938 10.3545 6.07062 10.3545 5.71484C10.3545 5.35906 10.6433 5.07031 10.9991 5.07031H15.9276C16.2834 5.07031 16.5721 5.35906 16.5721 5.71484C16.5721 6.07062 16.2834 6.35938 15.9276 6.35938ZM15.9276 3.78125H14.5629C14.2071 3.78125 13.9184 3.4925 13.9184 3.13672C13.9184 2.78094 14.2071 2.49219 14.5629 2.49219H15.9276C16.2834 2.49219 16.5721 2.78094 16.5721 3.13672C16.5721 3.4925 16.2834 3.78125 15.9276 3.78125Z" fill="white"/>
</svg>
