<svg width="23" height="22" viewBox="0 0 23 22" fill="none" xmlns="http://www.w3.org/2000/svg">
<g clip-path="url(#clip0_4459_9311)">
<path d="M3.57022 13.3581L5.60522 10.7147C5.70196 10.5898 5.82595 10.4886 5.96774 10.4189C6.10952 10.3492 6.26535 10.3128 6.42334 10.3125H19.6852L20.768 9.58031C20.9176 9.4793 21.0458 9.3498 21.1452 9.1992C21.2446 9.04861 21.3134 8.87988 21.3476 8.70268C21.3817 8.52548 21.3806 8.34328 21.3443 8.1665C21.308 7.98973 21.2371 7.82186 21.1358 7.6725L17.2824 1.98C17.1812 1.83022 17.0514 1.70188 16.9005 1.60231C16.7496 1.50274 16.5806 1.43391 16.4031 1.39975C16.2255 1.36558 16.043 1.36676 15.866 1.40321C15.6889 1.43967 15.5207 1.51068 15.3712 1.61218L3.13366 9.9C3.08979 9.92951 3.05332 9.96875 3.02709 10.0147C3.00085 10.0606 2.98556 10.1119 2.98241 10.1647L2.83459 12.5812C3.04641 12.8699 3.29354 13.1309 3.57022 13.3581Z" fill="#FF817F"/>
<path d="M19.4858 17.5312C19.6757 17.5312 19.8296 17.3773 19.8296 17.1875C19.8296 16.9977 19.6757 16.8438 19.4858 16.8438C19.296 16.8438 19.1421 16.9977 19.1421 17.1875C19.1421 17.3773 19.296 17.5312 19.4858 17.5312Z" fill="#FF817F"/>
<path d="M16.7358 14.7812C16.9257 14.7812 17.0796 14.6273 17.0796 14.4375C17.0796 14.2477 16.9257 14.0938 16.7358 14.0938C16.546 14.0938 16.3921 14.2477 16.3921 14.4375C16.3921 14.6273 16.546 14.7812 16.7358 14.7812Z" fill="#FF817F"/>
<path d="M21.2046 11H6.42334C6.37077 10.9997 6.31887 11.0117 6.27173 11.035C6.2246 11.0582 6.18353 11.0922 6.15178 11.1341L4.13053 13.7638C4.8706 14.2036 5.68497 14.5042 6.53334 14.6506C6.79952 14.3562 7.15914 14.1625 7.55151 14.1025C7.94387 14.0424 8.34495 14.1195 8.68704 14.3209C9.02913 14.5222 9.29128 14.8354 9.42923 15.2076C9.56719 15.5798 9.5725 15.9882 9.44427 16.3638C9.31605 16.7395 9.06214 17.0594 8.72541 17.2696C8.38867 17.4798 7.98974 17.5673 7.59594 17.5175C7.20214 17.4676 6.8376 17.2834 6.56386 16.996C6.29011 16.7085 6.12392 16.3354 6.09334 15.9397C6.35115 15.9981 6.58834 16.0359 6.80147 16.0669C6.84911 16.254 6.94835 16.4241 7.08789 16.5576C7.22744 16.6911 7.40167 16.7828 7.59076 16.8221C7.77984 16.8615 7.97618 16.8469 8.1574 16.7801C8.33863 16.7134 8.49746 16.597 8.61581 16.4444C8.73415 16.2918 8.80726 16.109 8.82681 15.9168C8.84635 15.7247 8.81154 15.5309 8.72635 15.3576C8.64115 15.1843 8.509 15.0384 8.34493 14.9365C8.18086 14.8346 7.99148 14.7808 7.79834 14.7812C7.59892 14.7809 7.4037 14.8386 7.23647 14.9472C7.06924 15.0558 6.93721 15.2108 6.85646 15.3931C6.65022 15.3656 6.41646 15.3278 6.16553 15.2762C4.80742 15.0442 3.55803 14.387 2.5974 13.3994C1.68913 12.3568 1.21329 11.0067 1.26709 9.625C1.26709 9.53383 1.23087 9.4464 1.16641 9.38193C1.10194 9.31747 1.01451 9.28125 0.92334 9.28125C0.832172 9.28125 0.744738 9.31747 0.680272 9.38193C0.615806 9.4464 0.57959 9.53383 0.57959 9.625C0.57959 12.3303 1.83771 13.915 3.30209 14.8431L2.71428 15.6028C2.6675 15.6627 2.64209 15.7365 2.64209 15.8125C2.64209 15.8885 2.6675 15.9623 2.71428 16.0222L6.15178 20.4909C6.18406 20.5323 6.22524 20.5658 6.27225 20.589C6.31927 20.6122 6.37091 20.6245 6.42334 20.625H21.2046C21.5691 20.6245 21.9186 20.4795 22.1764 20.2218C22.4341 19.964 22.5791 19.6145 22.5796 19.25V12.375C22.5796 12.0103 22.4347 11.6606 22.1769 11.4027C21.919 11.1449 21.5693 11 21.2046 11ZM15.7046 14.4375C15.7046 14.2335 15.7651 14.0342 15.8784 13.8646C15.9917 13.695 16.1528 13.5628 16.3412 13.4847C16.5296 13.4067 16.737 13.3863 16.937 13.4261C17.1371 13.4659 17.3208 13.5641 17.465 13.7083C17.6093 13.8525 17.7075 14.0363 17.7473 14.2363C17.7871 14.4364 17.7666 14.6437 17.6886 14.8321C17.6105 15.0206 17.4784 15.1816 17.3088 15.295C17.1392 15.4083 16.9398 15.4688 16.7358 15.4688C16.4626 15.4679 16.2008 15.359 16.0075 15.1658C15.8143 14.9726 15.7054 14.7108 15.7046 14.4375ZM16.148 17.7753C16.0836 17.7104 16.0475 17.6227 16.0475 17.5312C16.0475 17.4398 16.0836 17.3521 16.148 17.2872L19.5855 13.8497C19.6503 13.785 19.738 13.7486 19.8296 13.7486C19.9211 13.7486 20.0089 13.785 20.0737 13.8497C20.1384 13.9144 20.1747 14.0022 20.1747 14.0938C20.1747 14.1853 20.1384 14.2731 20.0737 14.3378L16.6362 17.7753C16.571 17.8392 16.4834 17.875 16.3921 17.875C16.3008 17.875 16.2132 17.8392 16.148 17.7753ZM19.4858 18.2188C19.2819 18.2188 19.0825 18.1583 18.9129 18.045C18.7433 17.9316 18.6111 17.7706 18.5331 17.5821C18.455 17.3937 18.4346 17.1864 18.4744 16.9863C18.5142 16.7863 18.6124 16.6025 18.7566 16.4583C18.9009 16.3141 19.0846 16.2159 19.2847 16.1761C19.4847 16.1363 19.692 16.1567 19.8805 16.2347C20.0689 16.3128 20.23 16.445 20.3433 16.6146C20.4566 16.7842 20.5171 16.9835 20.5171 17.1875C20.5163 17.4608 20.4074 17.7226 20.2141 17.9158C20.0209 18.109 19.7591 18.2179 19.4858 18.2188Z" fill="#FF817F"/>
</g>
<defs>
<clipPath id="clip0_4459_9311">
<rect width="22" height="22" fill="white" transform="translate(0.57959)"/>
</clipPath>
</defs>
</svg>
