<svg width="22" height="22" viewBox="0 0 22 22" fill="none" xmlns="http://www.w3.org/2000/svg">
<g clip-path="url(#clip0_4454_9140)">
<path d="M2.99051 13.3581L5.02551 10.7147C5.12225 10.5898 5.24624 10.4886 5.38803 10.4189C5.52981 10.3492 5.68564 10.3128 5.84363 10.3125H19.1055L20.1883 9.58031C20.3379 9.4793 20.466 9.3498 20.5655 9.1992C20.6649 9.04861 20.7337 8.87988 20.7679 8.70268C20.802 8.52548 20.8009 8.34328 20.7646 8.1665C20.7283 7.98973 20.6574 7.82186 20.5561 7.6725L16.7027 1.98C16.6015 1.83022 16.4717 1.70188 16.3208 1.60231C16.1699 1.50274 16.0009 1.43391 15.8233 1.39975C15.6458 1.36558 15.4633 1.36676 15.2862 1.40321C15.1092 1.43967 14.941 1.51068 14.7914 1.61218L2.55395 9.9C2.51008 9.92951 2.47361 9.96875 2.44737 10.0147C2.42114 10.0606 2.40585 10.1119 2.4027 10.1647L2.25488 12.5812C2.4667 12.8699 2.71383 13.1309 2.99051 13.3581Z" fill="white"/>
<path d="M18.9062 17.5312C19.0961 17.5312 19.25 17.3773 19.25 17.1875C19.25 16.9977 19.0961 16.8438 18.9062 16.8438C18.7164 16.8438 18.5625 16.9977 18.5625 17.1875C18.5625 17.3773 18.7164 17.5312 18.9062 17.5312Z" fill="white"/>
<path d="M16.1562 14.7812C16.3461 14.7812 16.5 14.6273 16.5 14.4375C16.5 14.2477 16.3461 14.0938 16.1562 14.0938C15.9664 14.0938 15.8125 14.2477 15.8125 14.4375C15.8125 14.6273 15.9664 14.7812 16.1562 14.7812Z" fill="white"/>
<path d="M20.625 11H5.84375C5.79118 10.9997 5.73928 11.0117 5.69214 11.035C5.64501 11.0582 5.60394 11.0922 5.57219 11.1341L3.55094 13.7638C4.29101 14.2036 5.10538 14.5042 5.95375 14.6506C6.21993 14.3562 6.57955 14.1625 6.97192 14.1025C7.36428 14.0424 7.76536 14.1195 8.10745 14.3209C8.44954 14.5222 8.71169 14.8354 8.84964 15.2076C8.9876 15.5798 8.99291 15.9882 8.86469 16.3638C8.73646 16.7395 8.48255 17.0594 8.14582 17.2696C7.80908 17.4798 7.41015 17.5673 7.01635 17.5175C6.62255 17.4676 6.25801 17.2834 5.98427 16.996C5.71052 16.7085 5.54433 16.3354 5.51375 15.9397C5.77156 15.9981 6.00875 16.0359 6.22188 16.0669C6.26952 16.254 6.36876 16.4241 6.5083 16.5576C6.64785 16.6911 6.82208 16.7828 7.01117 16.8221C7.20025 16.8615 7.39659 16.8469 7.57781 16.7801C7.75904 16.7134 7.91787 16.597 8.03622 16.4444C8.15456 16.2918 8.22767 16.109 8.24722 15.9168C8.26676 15.7247 8.23195 15.5309 8.14676 15.3576C8.06156 15.1843 7.92941 15.0384 7.76534 14.9365C7.60127 14.8346 7.41189 14.7808 7.21875 14.7812C7.01933 14.7809 6.82411 14.8386 6.65688 14.9472C6.48965 15.0558 6.35762 15.2108 6.27688 15.3931C6.07063 15.3656 5.83687 15.3278 5.58594 15.2762C4.22783 15.0442 2.97844 14.387 2.01781 13.3994C1.10955 12.3568 0.633695 11.0067 0.6875 9.625C0.6875 9.53383 0.651284 9.4464 0.586818 9.38193C0.522352 9.31747 0.434918 9.28125 0.34375 9.28125C0.252582 9.28125 0.165148 9.31747 0.100682 9.38193C0.0362164 9.4464 0 9.53383 0 9.625C0 12.3303 1.25812 13.915 2.7225 14.8431L2.13469 15.6028C2.08791 15.6627 2.0625 15.7365 2.0625 15.8125C2.0625 15.8885 2.08791 15.9623 2.13469 16.0222L5.57219 20.4909C5.60447 20.5323 5.64565 20.5658 5.69267 20.589C5.73968 20.6122 5.79132 20.6245 5.84375 20.625H20.625C20.9895 20.6245 21.339 20.4795 21.5968 20.2218C21.8545 19.964 21.9995 19.6145 22 19.25V12.375C22 12.0103 21.8551 11.6606 21.5973 11.4027C21.3394 11.1449 20.9897 11 20.625 11ZM15.125 14.4375C15.125 14.2335 15.1855 14.0342 15.2988 13.8646C15.4121 13.695 15.5732 13.5628 15.7616 13.4847C15.95 13.4067 16.1574 13.3863 16.3574 13.4261C16.5575 13.4659 16.7412 13.5641 16.8855 13.7083C17.0297 13.8525 17.1279 14.0363 17.1677 14.2363C17.2075 14.4364 17.1871 14.6437 17.109 14.8321C17.0309 15.0206 16.8988 15.1816 16.7292 15.295C16.5596 15.4083 16.3602 15.4688 16.1562 15.4688C15.883 15.4679 15.6212 15.359 15.4279 15.1658C15.2347 14.9726 15.1258 14.7108 15.125 14.4375ZM15.5684 17.7753C15.504 17.7104 15.4679 17.6227 15.4679 17.5312C15.4679 17.4398 15.504 17.3521 15.5684 17.2872L19.0059 13.8497C19.0707 13.785 19.1585 13.7486 19.25 13.7486C19.3415 13.7486 19.4293 13.785 19.4941 13.8497C19.5588 13.9144 19.5952 14.0022 19.5952 14.0938C19.5952 14.1853 19.5588 14.2731 19.4941 14.3378L16.0566 17.7753C15.9914 17.8392 15.9038 17.875 15.8125 17.875C15.7212 17.875 15.6336 17.8392 15.5684 17.7753ZM18.9062 18.2188C18.7023 18.2188 18.5029 18.1583 18.3333 18.045C18.1637 17.9316 18.0316 17.7706 17.9535 17.5821C17.8754 17.3937 17.855 17.1864 17.8948 16.9863C17.9346 16.7863 18.0328 16.6025 18.177 16.4583C18.3213 16.3141 18.505 16.2159 18.7051 16.1761C18.9051 16.1363 19.1125 16.1567 19.3009 16.2347C19.4893 16.3128 19.6504 16.445 19.7637 16.6146C19.877 16.7842 19.9375 16.9835 19.9375 17.1875C19.9367 17.4608 19.8278 17.7226 19.6346 17.9158C19.4413 18.109 19.1795 18.2179 18.9062 18.2188Z" fill="white"/>
</g>
<defs>
<clipPath id="clip0_4454_9140">
<rect width="22" height="22" fill="white"/>
</clipPath>
</defs>
</svg>
