<svg width="23" height="22" viewBox="0 0 23 22" fill="none" xmlns="http://www.w3.org/2000/svg">
<path d="M20.5824 9.38094L18.8843 9.1575C18.699 8.43698 18.4131 7.74614 18.0352 7.10531L19.0802 5.76125C19.1867 5.62595 19.2396 5.45616 19.2288 5.28431C19.2181 5.11247 19.1443 4.95062 19.0218 4.82969L17.7362 3.54406C17.6137 3.42266 17.4512 3.35009 17.279 3.33996C17.1069 3.32984 16.937 3.38285 16.8012 3.48906L15.4399 4.53406C14.801 4.15319 14.1112 3.865 13.3912 3.67812L13.1815 1.99375C13.1597 1.82301 13.0766 1.66603 12.9475 1.55216C12.8184 1.43828 12.6523 1.3753 12.4802 1.375H10.6618C10.4897 1.37538 10.3236 1.43839 10.1946 1.55225C10.0655 1.66611 9.98234 1.82304 9.96053 1.99375L9.73709 3.69531C9.01628 3.87973 8.32531 4.16561 7.6849 4.54438L6.34084 3.49938C6.20554 3.39289 6.03575 3.33998 5.8639 3.35076C5.69206 3.36154 5.53021 3.43525 5.40928 3.55781L4.12365 4.84344C4.00225 4.96589 3.92969 5.12842 3.91956 5.30055C3.90944 5.47268 3.96245 5.6426 4.06865 5.77844L5.11365 7.13969C4.73422 7.77936 4.44611 8.46895 4.25772 9.18844L2.57334 9.39812C2.40238 9.41934 2.24509 9.50236 2.13112 9.63153C2.01714 9.7607 1.95435 9.92711 1.95459 10.0994V11.9213C1.95576 12.0933 2.01957 12.2591 2.13409 12.3875C2.2486 12.5159 2.40597 12.5982 2.57678 12.6191L4.2749 12.8425C4.46022 13.563 4.74604 14.2539 5.12397 14.8947L4.07897 16.2388C3.97248 16.3741 3.91957 16.5438 3.93035 16.7157C3.94113 16.8875 4.01484 17.0494 4.1374 17.1703L5.42303 18.4559C5.54548 18.5773 5.70801 18.6499 5.88014 18.66C6.05227 18.6702 6.22219 18.6171 6.35803 18.5109L7.71928 17.4659C8.35823 17.8468 9.04803 18.135 9.76803 18.3219L9.97772 20.0063C9.99945 20.177 10.0826 20.334 10.2117 20.4478C10.3407 20.5617 10.5069 20.6247 10.679 20.625H12.4974C12.6695 20.6246 12.8356 20.5616 12.9646 20.4477C13.0936 20.3339 13.1768 20.177 13.1987 20.0063L13.4221 18.3047C14.1429 18.1203 14.8339 17.8344 15.4743 17.4556L16.8183 18.5006C16.9536 18.6071 17.1234 18.66 17.2953 18.6492C17.4671 18.6385 17.629 18.5648 17.7499 18.4422L19.0355 17.1566C19.1569 17.0341 19.2295 16.8716 19.2396 16.6995C19.2498 16.5273 19.1967 16.3574 19.0905 16.2216L18.0455 14.8603C18.425 14.2206 18.7131 13.531 18.9015 12.8116L20.5858 12.6019C20.7568 12.5807 20.9141 12.4976 21.0281 12.3685C21.142 12.2393 21.2048 12.0729 21.2046 11.9006V10.0787C21.2034 9.90669 21.1396 9.74094 21.0251 9.61251C20.9106 9.48408 20.7532 9.40176 20.5824 9.38094ZM11.5796 16.8713C10.023 16.8695 8.53061 16.2504 7.42992 15.1497C6.32923 14.049 5.71009 12.5566 5.70834 11C6.04143 3.2117 17.1121 3.20787 17.4509 10.9932C17.4505 12.5508 16.8321 14.0447 15.7313 15.1468C14.6305 16.2489 13.1373 16.8691 11.5796 16.8713Z" fill="#FF817F"/>
<path d="M15.2406 7.33219C12.0345 4.07791 6.36117 6.43737 6.39591 11.0035C6.40406 12.3761 6.95341 13.69 7.92463 14.6599C8.89586 15.6298 10.2105 16.1774 11.5831 16.1837C16.1553 16.2083 18.502 10.5294 15.2406 7.33219ZM8.6887 11.3266C8.46264 11.2903 8.25217 11.1885 8.08334 11.0338C7.9145 10.8792 7.7947 10.6785 7.73874 10.4564C7.68278 10.2344 7.69313 10.0009 7.76849 9.78468C7.84386 9.56848 7.98095 9.37911 8.1628 9.24C8.5905 8.92375 9.4486 8.28312 9.87462 7.96469C10.1224 7.78456 10.4312 7.70933 10.7341 7.75532C11.0369 7.8013 11.3095 7.96479 11.4926 8.21036C11.6758 8.45592 11.7548 8.76377 11.7125 9.06718C11.6702 9.37059 11.5101 9.64512 11.2668 9.83127C11.2668 9.83125 9.37311 11.4387 8.6887 11.3266ZM10.7959 14.2656C10.4197 14.2623 10.0601 14.1106 9.79523 13.8434C9.53039 13.5762 9.38181 13.2152 9.38181 12.839C9.38182 12.4629 9.53041 12.1019 9.79525 11.8347C10.0601 11.5675 10.4197 11.4158 10.7959 11.4125C11.1721 11.4158 11.5317 11.5676 11.7966 11.8347C12.0614 12.1019 12.21 12.4629 12.21 12.8391C12.21 13.2153 12.0614 13.5762 11.7966 13.8434C11.5317 14.1106 11.1721 14.2623 10.7959 14.2656ZM14.0409 13.1244C13.664 13.1214 13.3036 12.9696 13.0382 12.7021C12.7728 12.4345 12.6239 12.0729 12.6239 11.6961C12.6239 11.3192 12.7728 10.9576 13.0382 10.6901C13.3037 10.4226 13.6641 10.2708 14.0409 10.2678C14.4178 10.2708 14.7782 10.4226 15.0436 10.6901C15.309 10.9577 15.4579 11.3193 15.4579 11.6961C15.4579 12.073 15.309 12.4346 15.0436 12.7021C14.7781 12.9696 14.4177 13.1214 14.0409 13.1244Z" fill="#FF817F"/>
<path d="M10.7958 12.1C10.6317 12.1019 10.4729 12.1582 10.3443 12.2602C10.2158 12.3621 10.1246 12.5038 10.0853 12.6631C10.046 12.8224 10.0607 12.9903 10.127 13.1403C10.1934 13.2904 10.3077 13.4141 10.4521 13.4922L10.452 12.9834C10.4533 12.8931 10.4901 12.8069 10.5544 12.7435C10.6188 12.6801 10.7055 12.6445 10.7958 12.6445C10.8861 12.6445 10.9728 12.6801 11.0372 12.7435C11.1015 12.8069 11.1383 12.8931 11.1395 12.9834V13.4922C11.2842 13.4144 11.3989 13.2906 11.4655 13.1405C11.5322 12.9903 11.547 12.8223 11.5076 12.6628C11.4682 12.5033 11.3769 12.3614 11.248 12.2596C11.1192 12.1577 10.9601 12.1015 10.7958 12.1Z" fill="#FF817F"/>
<path d="M14.0408 10.9553C13.8764 10.9574 13.7174 11.014 13.5886 11.1162C13.4598 11.2185 13.3686 11.3606 13.3293 11.5202C13.29 11.6799 13.3047 11.8481 13.3713 11.9984C13.4379 12.1487 13.5525 12.2727 13.6971 12.3509L13.6971 11.8422C13.6984 11.7519 13.7351 11.6657 13.7995 11.6022C13.8638 11.5388 13.9505 11.5033 14.0408 11.5033C14.1312 11.5033 14.2179 11.5388 14.2822 11.6023C14.3465 11.6657 14.3833 11.7519 14.3846 11.8422V12.3509C14.5289 12.2725 14.6431 12.1485 14.7094 11.9982C14.7757 11.848 14.7904 11.68 14.7511 11.5205C14.7118 11.361 14.6208 11.2191 14.4923 11.1168C14.3638 11.0146 14.205 10.9578 14.0408 10.9553Z" fill="#FF817F"/>
<path d="M10.8543 9.28125C10.9334 9.22065 10.9916 9.13692 11.0208 9.0417C11.0501 8.94649 11.0489 8.84453 11.0175 8.75001C10.9861 8.65548 10.9261 8.57308 10.8457 8.51427C10.7653 8.45546 10.6686 8.42317 10.569 8.42188C10.3371 8.39221 9.88762 8.83945 9.70618 8.94778L10.2734 9.71438L10.8543 9.28125Z" fill="#FF817F"/>
<path d="M9.14928 9.36031L8.57178 9.79C8.47012 9.86567 8.4027 9.97862 8.38432 10.104C8.36595 10.2294 8.39814 10.3569 8.47381 10.4586C8.54948 10.5602 8.66243 10.6277 8.78782 10.646C8.9132 10.6644 9.04075 10.6322 9.1424 10.5566L9.72334 10.1234L9.14928 9.36031Z" fill="#FF817F"/>
</svg>
