<svg width="22" height="22" viewBox="0 0 22 22" fill="none" xmlns="http://www.w3.org/2000/svg">
<path d="M20.0028 9.38094L18.3047 9.1575C18.1194 8.43698 17.8335 7.74614 17.4556 7.10531L18.5006 5.76125C18.6071 5.62595 18.66 5.45616 18.6492 5.28431C18.6385 5.11247 18.5648 4.95062 18.4422 4.82969L17.1566 3.54406C17.0341 3.42266 16.8716 3.35009 16.6995 3.33996C16.5273 3.32984 16.3574 3.38285 16.2216 3.48906L14.8603 4.53406C14.2214 4.15319 13.5316 3.865 12.8116 3.67812L12.6019 1.99375C12.5801 1.82301 12.497 1.66603 12.3679 1.55216C12.2389 1.43828 12.0727 1.3753 11.9006 1.375H10.0822C9.9101 1.37538 9.74402 1.43839 9.61498 1.55225C9.48594 1.66611 9.40275 1.82304 9.38094 1.99375L9.1575 3.69531C8.43669 3.87973 7.74572 4.16561 7.10531 4.54438L5.76125 3.49938C5.62595 3.39289 5.45616 3.33998 5.28431 3.35076C5.11247 3.36154 4.95062 3.43525 4.82969 3.55781L3.54406 4.84344C3.42266 4.96589 3.3501 5.12842 3.33997 5.30055C3.32985 5.47268 3.38286 5.6426 3.48906 5.77844L4.53406 7.13969C4.15463 7.77936 3.86652 8.46895 3.67813 9.18844L1.99375 9.39812C1.82279 9.41934 1.6655 9.50236 1.55153 9.63153C1.43755 9.7607 1.37477 9.92711 1.375 10.0994V11.9213C1.37618 12.0933 1.43998 12.2591 1.5545 12.3875C1.66901 12.5159 1.82638 12.5982 1.99719 12.6191L3.69531 12.8425C3.88063 13.563 4.16645 14.2539 4.54438 14.8947L3.49938 16.2388C3.39289 16.3741 3.33998 16.5438 3.35076 16.7157C3.36154 16.8875 3.43525 17.0494 3.55781 17.1703L4.84344 18.4559C4.96589 18.5773 5.12842 18.6499 5.30055 18.66C5.47268 18.6702 5.6426 18.6171 5.77844 18.5109L7.13969 17.4659C7.77864 17.8468 8.46844 18.135 9.18844 18.3219L9.39813 20.0063C9.41986 20.177 9.50303 20.334 9.63209 20.4478C9.76115 20.5617 9.92726 20.6247 10.0994 20.625H11.9178C12.0899 20.6246 12.256 20.5616 12.385 20.4477C12.5141 20.3339 12.5973 20.177 12.6191 20.0063L12.8425 18.3047C13.5633 18.1203 14.2543 17.8344 14.8947 17.4556L16.2388 18.5006C16.3741 18.6071 16.5438 18.66 16.7157 18.6492C16.8875 18.6385 17.0494 18.5648 17.1703 18.4422L18.4559 17.1566C18.5773 17.0341 18.6499 16.8716 18.66 16.6995C18.6702 16.5273 18.6172 16.3574 18.5109 16.2216L17.4659 14.8603C17.8454 14.2206 18.1335 13.531 18.3219 12.8116L20.0063 12.6019C20.1772 12.5807 20.3345 12.4976 20.4485 12.3685C20.5625 12.2393 20.6252 12.0729 20.625 11.9006V10.0787C20.6238 9.90669 20.56 9.74094 20.4455 9.61251C20.331 9.48408 20.1736 9.40176 20.0028 9.38094ZM11 16.8713C9.44339 16.8695 7.95103 16.2504 6.85033 15.1497C5.74964 14.049 5.1305 12.5566 5.12875 11C5.46184 3.2117 16.5325 3.20787 16.8713 10.9932C16.871 12.5508 16.2525 14.0447 15.1517 15.1468C14.0509 16.2489 12.5577 16.8691 11 16.8713Z" fill="white"/>
<path d="M14.661 7.33219C11.455 4.07791 5.78158 6.43737 5.81632 11.0035C5.82448 12.3761 6.37382 13.69 7.34504 14.6599C8.31627 15.6298 9.63093 16.1774 11.0035 16.1837C15.5757 16.2083 17.9224 10.5294 14.661 7.33219ZM8.10911 11.3266C7.88305 11.2903 7.67259 11.1885 7.50375 11.0338C7.33491 10.8792 7.21511 10.6785 7.15915 10.4564C7.10319 10.2344 7.11354 10.0009 7.1889 9.78468C7.26427 9.56848 7.40136 9.37911 7.58321 9.24C8.01091 8.92375 8.86901 8.28312 9.29503 7.96469C9.54282 7.78456 9.85161 7.70933 10.1545 7.75532C10.4574 7.8013 10.7299 7.96479 10.9131 8.21036C11.0962 8.45592 11.1752 8.76377 11.1329 9.06718C11.0907 9.37059 10.9305 9.64512 10.6872 9.83127C10.6872 9.83125 8.79352 11.4387 8.10911 11.3266ZM10.2163 14.2656C9.84012 14.2623 9.48047 14.1106 9.21564 13.8434C8.9508 13.5762 8.80222 13.2152 8.80222 12.839C8.80223 12.4629 8.95082 12.1019 9.21566 11.8347C9.4805 11.5675 9.84015 11.4158 10.2163 11.4125C10.5925 11.4158 10.9522 11.5676 11.217 11.8347C11.4818 12.1019 11.6304 12.4629 11.6304 12.8391C11.6304 13.2153 11.4818 13.5762 11.217 13.8434C10.9521 14.1106 10.5925 14.2623 10.2163 14.2656ZM13.4613 13.1244C13.0844 13.1214 12.7241 12.9696 12.4586 12.7021C12.1932 12.4345 12.0443 12.0729 12.0443 11.6961C12.0443 11.3192 12.1932 10.9576 12.4587 10.6901C12.7241 10.4226 13.0845 10.2708 13.4613 10.2678C13.8382 10.2708 14.1986 10.4226 14.464 10.6901C14.7294 10.9577 14.8783 11.3193 14.8783 11.6961C14.8783 12.073 14.7294 12.4346 14.464 12.7021C14.1985 12.9696 13.8381 13.1214 13.4613 13.1244Z" fill="white"/>
<path d="M10.2162 12.1C10.0521 12.1019 9.89335 12.1582 9.76476 12.2602C9.63616 12.3621 9.54505 12.5038 9.50572 12.6631C9.46639 12.8224 9.48107 12.9903 9.54745 13.1403C9.61383 13.2904 9.72816 13.4141 9.87249 13.4922L9.87246 12.9834C9.87374 12.8931 9.91052 12.8069 9.97484 12.7435C10.0392 12.6801 10.1259 12.6445 10.2162 12.6445C10.3065 12.6445 10.3932 12.6801 10.4576 12.7435C10.5219 12.8069 10.5587 12.8931 10.56 12.9834V13.4922C10.7046 13.4144 10.8193 13.2906 10.886 13.1405C10.9526 12.9903 10.9674 12.8223 10.928 12.6628C10.8886 12.5033 10.7973 12.3614 10.6684 12.2596C10.5396 12.1577 10.3805 12.1015 10.2162 12.1Z" fill="white"/>
<path d="M13.4614 10.9553C13.297 10.9574 13.1379 11.014 13.0091 11.1162C12.8803 11.2185 12.7891 11.3606 12.7498 11.5202C12.7105 11.6799 12.7253 11.8481 12.7919 11.9984C12.8584 12.1487 12.973 12.2727 13.1176 12.3509L13.1176 11.8422C13.1189 11.7519 13.1557 11.6657 13.22 11.6022C13.2843 11.5388 13.371 11.5033 13.4614 11.5033C13.5517 11.5033 13.6384 11.5388 13.7027 11.6023C13.7671 11.6657 13.8038 11.7519 13.8051 11.8422V12.3509C13.9494 12.2725 14.0636 12.1485 14.1299 11.9982C14.1963 11.848 14.2109 11.68 14.1716 11.5205C14.1324 11.361 14.0414 11.2191 13.9128 11.1168C13.7843 11.0146 13.6256 10.9578 13.4614 10.9553Z" fill="white"/>
<path d="M10.2746 9.28125C10.3537 9.22065 10.4119 9.13692 10.4411 9.0417C10.4703 8.94649 10.4692 8.84453 10.4378 8.75001C10.4064 8.65548 10.3464 8.57308 10.266 8.51427C10.1856 8.45546 10.0889 8.42317 9.98928 8.42188C9.75736 8.39221 9.30791 8.83945 9.12646 8.94778L9.69368 9.71438L10.2746 9.28125Z" fill="white"/>
<path d="M8.56981 9.36031L7.99231 9.79C7.89066 9.86567 7.82323 9.97862 7.80486 10.104C7.78648 10.2294 7.81867 10.3569 7.89434 10.4586C7.97001 10.5602 8.08296 10.6277 8.20835 10.646C8.33373 10.6644 8.46128 10.6322 8.56293 10.5566L9.14387 10.1234L8.56981 9.36031Z" fill="white"/>
</svg>
