<svg width="23" height="22" viewBox="0 0 23 22" fill="none" xmlns="http://www.w3.org/2000/svg">
<path d="M6.72642 16.2908H12.451L5.50146 20.8991C6.45186 18.9959 6.6745 17.0927 6.72642 16.2908Z" fill="white"/>
<path d="M15.9284 1.09956H7.49141C4.36301 1.09956 1.82861 3.63638 1.82861 6.76478V10.3015C1.82861 13.1749 3.95623 15.5859 6.73065 15.9522C6.73065 15.9645 15.9284 15.9641 15.9284 15.9641C19.0544 15.9641 21.5912 13.4297 21.5912 10.3013V6.76456C21.5912 3.63638 19.0544 1.09956 15.9284 1.09956ZM8.69415 4.75992C8.69415 4.57688 8.84265 4.42838 9.02591 4.42838H10.4267C10.6073 4.42838 10.7558 4.2823 10.7558 4.09926V2.69852C10.7558 2.51548 10.9043 2.36698 11.0875 2.36698H12.4612C12.6443 2.36698 12.7928 2.51548 12.7928 2.69852V4.09926C12.7928 4.2823 12.9388 4.42838 13.1219 4.42838H14.5226C14.7057 4.42838 14.8517 4.57688 14.8517 4.75992V6.1336C14.8517 6.31664 14.7057 6.46536 14.5226 6.46536H13.1219C12.9388 6.46536 12.7928 6.61386 12.7928 6.79448V8.19522C12.7928 8.37826 12.6443 8.52698 12.4612 8.52698H11.0875C10.9045 8.52698 10.7558 8.37848 10.7558 8.19522V6.79448C10.7558 6.61386 10.6073 6.46536 10.4267 6.46536H9.02591C8.84287 6.46536 8.69415 6.31686 8.69415 6.1336V4.75992ZM17.8739 13.0535C17.8739 13.286 17.6834 13.4768 17.4506 13.4768H5.89245C5.65727 13.4768 5.46917 13.2862 5.46917 13.0535V12.6625C5.46917 12.4274 5.65727 12.2368 5.89245 12.2368H17.4506C17.6831 12.2368 17.8739 12.4274 17.8739 12.6625V13.0535ZM17.8739 10.5884C17.8739 10.8236 17.6834 11.0141 17.4458 11.0141H5.89487C5.65969 11.0141 5.46917 10.8236 5.46917 10.5884V10.1849C5.46917 9.94972 5.65969 9.75678 5.89487 9.75678H17.4455C17.6831 9.75678 17.8737 9.94994 17.8737 10.1849L17.8739 10.5884Z" fill="white"/>
</svg>
