<svg width="23" height="22" viewBox="0 0 23 22" fill="none" xmlns="http://www.w3.org/2000/svg">
<path d="M6.59605 16.2908H12.3207L5.37109 20.8991C6.32149 18.9959 6.54413 17.0927 6.59605 16.2908Z" fill="#FF817F"/>
<path d="M15.798 1.09956H7.36104C4.23264 1.09956 1.69824 3.63638 1.69824 6.76478V10.3015C1.69824 13.1749 3.82586 15.5859 6.60028 15.9522C6.60028 15.9645 15.798 15.9641 15.798 15.9641C18.924 15.9641 21.4608 13.4297 21.4608 10.3013V6.76456C21.4608 3.63638 18.924 1.09956 15.798 1.09956ZM8.56378 4.75992C8.56378 4.57688 8.71228 4.42838 8.89554 4.42838H10.2963C10.4769 4.42838 10.6254 4.2823 10.6254 4.09926V2.69852C10.6254 2.51548 10.7739 2.36698 10.9572 2.36698H12.3308C12.5139 2.36698 12.6624 2.51548 12.6624 2.69852V4.09926C12.6624 4.2823 12.8085 4.42838 12.9915 4.42838H14.3922C14.5753 4.42838 14.7214 4.57688 14.7214 4.75992V6.1336C14.7214 6.31664 14.5753 6.46536 14.3922 6.46536H12.9915C12.8085 6.46536 12.6624 6.61386 12.6624 6.79448V8.19522C12.6624 8.37826 12.5139 8.52698 12.3308 8.52698H10.9572C10.7741 8.52698 10.6254 8.37848 10.6254 8.19522V6.79448C10.6254 6.61386 10.4769 6.46536 10.2963 6.46536H8.89554C8.7125 6.46536 8.56378 6.31686 8.56378 6.1336V4.75992ZM17.7435 13.0535C17.7435 13.286 17.553 13.4768 17.3202 13.4768H5.76208C5.5269 13.4768 5.3388 13.2862 5.3388 13.0535V12.6625C5.3388 12.4274 5.5269 12.2368 5.76208 12.2368H17.3202C17.5528 12.2368 17.7435 12.4274 17.7435 12.6625V13.0535ZM17.7435 10.5884C17.7435 10.8236 17.553 11.0141 17.3154 11.0141H5.7645C5.52932 11.0141 5.3388 10.8236 5.3388 10.5884V10.1849C5.3388 9.94972 5.52932 9.75678 5.7645 9.75678H17.3152C17.5528 9.75678 17.7433 9.94994 17.7433 10.1849L17.7435 10.5884Z" fill="#FF817F"/>
</svg>
