<svg width="23" height="22" viewBox="0 0 23 22" fill="none" xmlns="http://www.w3.org/2000/svg">
<g clip-path="url(#clip0_4459_9304)">
<path d="M21.9351 3.10455H13.9959C9.02751 3.29164 9.02502 10.4245 13.9959 10.6069H14.3869C14.5216 7.06902 19.5931 7.07173 19.7265 10.6069H21.9351C22.2911 10.6069 22.5796 10.3184 22.5796 9.96241V3.74908C22.5796 3.39313 22.2911 3.10455 21.9351 3.10455Z" fill="#FF817F"/>
<path d="M21.1988 13.3684H18.4374V10.6069C18.3687 8.77675 15.7436 8.77868 15.6759 10.6069V15.4395L14.823 14.871C14.1147 14.3987 13.1713 14.4923 12.5692 15.0943C12.1876 15.476 12.1882 16.0939 12.5692 16.475L15.508 19.4138C15.6155 19.5213 15.7613 19.5817 15.9133 19.5817H21.1988C21.9612 19.5817 22.5795 18.9628 22.5795 18.201V14.7491C22.5795 13.9868 21.9607 13.3684 21.1988 13.3684Z" fill="#FF817F"/>
<path d="M8.76939 7.3195V6.50988C8.76939 4.85292 7.5801 3.46928 6.01084 3.16674V3.05876C5.97913 2.2045 4.75319 2.20514 4.72178 3.05876V3.16648C3.15183 3.46851 1.96185 4.85245 1.96185 6.50988V7.3195C1.96185 8.40648 1.53874 9.42832 0.7705 10.1969C0.729035 10.2384 0.472168 10.5164 0.630766 10.8994C0.730496 11.1403 0.965406 11.2973 1.22597 11.2973H4.72178V11.3431C4.75349 12.1974 5.97943 12.1968 6.01084 11.3431V11.2973H9.50523C9.76579 11.2973 10.0007 11.1403 10.1004 10.8994C10.259 10.5164 10.0022 10.2384 9.9607 10.1969C9.19246 9.42832 8.76939 8.40648 8.76939 7.3195Z" fill="#FF817F"/>
</g>
<defs>
<clipPath id="clip0_4459_9304">
<rect width="22" height="22" fill="white" transform="translate(0.57959)"/>
</clipPath>
</defs>
</svg>
