<svg width="22" height="18" viewBox="0 0 22 18" fill="none" xmlns="http://www.w3.org/2000/svg">
<path d="M21.3554 1.10455H13.4162C8.4478 1.29164 8.44531 8.42454 13.4162 8.60694H13.8072C13.9419 5.06902 19.0134 5.07173 19.1468 8.60694H21.3554C21.7114 8.60694 21.9999 8.31836 21.9999 7.96241V1.74908C21.9999 1.39313 21.7114 1.10455 21.3554 1.10455Z" fill="white"/>
<path d="M20.6192 11.3684H17.8578V8.60692C17.7891 6.77675 15.164 6.77868 15.0963 8.60692V13.4395L14.2434 12.871C13.5351 12.3987 12.5917 12.4923 11.9897 13.0943C11.608 13.476 11.6086 14.0939 11.9897 14.475L14.9284 17.4138C15.0359 17.5213 15.1817 17.5817 15.3337 17.5817H20.6192C21.3816 17.5817 21.9999 16.9628 21.9999 16.201V12.7491C22 11.9868 21.3811 11.3684 20.6192 11.3684Z" fill="white"/>
<path d="M8.1898 5.3195V4.50988C8.1898 2.85292 7.00051 1.46928 5.43125 1.16674V1.05876C5.39954 0.204497 4.1736 0.205142 4.14219 1.05876V1.16648C2.57224 1.46851 1.38226 2.85245 1.38226 4.50988V5.3195C1.38226 6.40648 0.959149 7.42832 0.19091 8.19694C0.149445 8.23837 -0.107422 8.51637 0.0511759 8.89944C0.150906 9.14028 0.385817 9.29733 0.646379 9.29733H4.14219V9.34313C4.1739 10.1974 5.39984 10.1968 5.43125 9.34313V9.29733H8.92564C9.1862 9.29733 9.42111 9.14032 9.52084 8.89944C9.67944 8.51637 9.42257 8.23837 9.38111 8.19694C8.61287 7.42832 8.1898 6.40648 8.1898 5.3195Z" fill="white"/>
</svg>
