<svg width="23" height="22" viewBox="0 0 23 22" fill="none" xmlns="http://www.w3.org/2000/svg">
<path d="M18.634 12.8767V9.53644C18.1793 9.77316 17.6124 9.98487 16.9331 10.1705C15.2179 10.6392 12.9491 10.8974 10.5446 10.8974C8.14017 10.8974 5.87139 10.6393 4.15619 10.1705C3.47691 9.98487 2.91003 9.77311 2.45532 9.53644V13.8776C2.55912 14.0459 3.05375 14.4814 4.56437 14.8869C6.16158 15.3156 8.28542 15.5517 10.5446 15.5517C10.8233 15.5517 11.0999 15.548 11.3737 15.541V12.8767H18.634Z" fill="white"/>
<path d="M4.56433 8.88817C6.16153 9.31689 8.28537 9.55298 10.5446 9.55298C12.8038 9.55298 14.9277 9.31689 16.5249 8.88817C18.0354 8.48272 18.5301 8.0472 18.6339 7.87887V3.50351C16.9501 4.55557 13.664 5.04792 10.5446 5.04792C7.42521 5.04792 4.13911 4.55557 2.45532 3.50351V7.87896C2.55912 8.04715 3.05375 8.48268 4.56433 8.88817ZM15.0069 6.23533H15.022C15.3933 6.23533 15.6942 6.53631 15.6942 6.90757C15.6942 7.27883 15.3933 7.57981 15.022 7.57981H15.0069C14.6357 7.57981 14.3347 7.27883 14.3347 6.90757C14.3347 6.53631 14.6357 6.23533 15.0069 6.23533Z" fill="white"/>
<path d="M10.5446 16.8962C8.14021 16.8962 5.87139 16.638 4.15619 16.1692C3.47691 15.9836 2.91003 15.7719 2.45532 15.5352V18.9271C2.45532 19.6038 2.91294 20.5585 5.09293 21.2641C6.55892 21.7386 8.49502 21.9999 10.5446 21.9999C10.8234 21.9999 11.1001 21.9949 11.3737 21.9854V16.8857C11.0996 16.8926 10.8231 16.8962 10.5446 16.8962Z" fill="white"/>
<path d="M4.682 2.99162C6.23874 3.45062 8.32076 3.70343 10.5446 3.70343C12.7685 3.70343 14.8505 3.45062 16.4073 2.99162C17.9373 2.5405 18.4323 2.02883 18.4323 1.85172C18.4323 1.6746 17.9373 1.16294 16.4073 0.711816C14.8506 0.252808 12.7685 0 10.5447 0C8.32081 0 6.23878 0.252808 4.682 0.711816C3.15198 1.16294 2.65698 1.6746 2.65698 1.85172C2.65698 2.02883 3.15202 2.5405 4.682 2.99162Z" fill="white"/>
<path d="M12.7183 14.2212V21.7204H20.9644V14.2212H12.7183ZM16.55 20.0569L14.5958 18.1026L15.5465 17.1519L16.5501 18.1554L18.3921 16.3135L19.3428 17.2642L16.55 20.0569Z" fill="white"/>
</svg>
