<svg width="23" height="22" viewBox="0 0 23 22" fill="none" xmlns="http://www.w3.org/2000/svg">
<path d="M18.5037 12.8767V9.53644C18.049 9.77316 17.4821 9.98487 16.8029 10.1705C15.0877 10.6392 12.8189 10.8974 10.4144 10.8974C8.00992 10.8974 5.74114 10.6393 4.02594 10.1705C3.34666 9.98487 2.77978 9.77311 2.32507 9.53644V13.8776C2.42887 14.0459 2.9235 14.4814 4.43412 14.8869C6.03133 15.3156 8.15517 15.5517 10.4144 15.5517C10.6931 15.5517 10.9697 15.548 11.2435 15.541V12.8767H18.5037Z" fill="#FF817F"/>
<path d="M4.43408 8.88817C6.03128 9.31689 8.15512 9.55298 10.4144 9.55298C12.6736 9.55298 14.7975 9.31689 16.3946 8.88817C17.9052 8.48272 18.3998 8.0472 18.5037 7.87887V3.50351C16.8199 4.55557 13.5337 5.04792 10.4144 5.04792C7.29496 5.04792 4.00886 4.55557 2.32507 3.50351V7.87896C2.42887 8.04715 2.9235 8.48268 4.43408 8.88817ZM14.8767 6.23533H14.8918C15.263 6.23533 15.564 6.53631 15.564 6.90757C15.564 7.27883 15.263 7.57981 14.8918 7.57981H14.8767C14.5054 7.57981 14.2045 7.27883 14.2045 6.90757C14.2045 6.53631 14.5054 6.23533 14.8767 6.23533Z" fill="#FF817F"/>
<path d="M10.4144 16.8962C8.00996 16.8962 5.74114 16.638 4.02594 16.1692C3.34666 15.9836 2.77978 15.7719 2.32507 15.5352V18.9271C2.32507 19.6038 2.78269 20.5585 4.96269 21.2641C6.42867 21.7386 8.36477 21.9999 10.4144 21.9999C10.6932 21.9999 10.9698 21.9949 11.2435 21.9854V16.8857C10.9694 16.8926 10.6928 16.8962 10.4144 16.8962Z" fill="#FF817F"/>
<path d="M4.55175 2.99162C6.10849 3.45062 8.19051 3.70343 10.4144 3.70343C12.6383 3.70343 14.7203 3.45062 16.277 2.99162C17.807 2.5405 18.302 2.02883 18.302 1.85172C18.302 1.6746 17.807 1.16294 16.277 0.711816C14.7203 0.252808 12.6383 0 10.4144 0C8.19056 0 6.10853 0.252808 4.55175 0.711816C3.02173 1.16294 2.52673 1.6746 2.52673 1.85172C2.52673 2.02883 3.02177 2.5405 4.55175 2.99162Z" fill="#FF817F"/>
<path d="M12.588 14.2212V21.7204H20.8342V14.2212H12.588ZM16.4198 20.0569L14.4655 18.1026L15.4162 17.1519L16.4198 18.1554L18.2618 16.3135L19.2125 17.2642L16.4198 20.0569Z" fill="#FF817F"/>
</svg>
