<svg width="23" height="22" viewBox="0 0 23 22" fill="none" xmlns="http://www.w3.org/2000/svg">
<g clip-path="url(#clip0_4459_9329)">
<path d="M18.2235 18.3867H21.8881C22.2694 18.3867 22.5796 18.0765 22.5796 17.6952V17.0829C22.5796 14.9925 20.8789 13.2919 18.7885 13.2919H17.283C18.0487 14.2258 18.5088 15.4196 18.5088 16.7187V17.4653C18.5088 17.8069 18.4035 18.1243 18.2235 18.3867ZM7.06228 18.3867H16.8754C17.3834 18.3867 17.7968 17.9734 17.7968 17.4654V16.7188C17.7968 14.1266 15.6879 12.0178 13.0958 12.0178H10.0634C7.47126 12.0178 5.3624 14.1266 5.3624 16.7188V17.4654C5.3624 17.9734 5.77572 18.3867 6.28373 18.3867H7.06228ZM4.37064 13.2919C2.28025 13.2919 0.57959 14.9925 0.57959 17.083V17.6952C0.57959 18.0765 0.889781 18.3868 1.27109 18.3868H4.93563C4.75568 18.1243 4.65036 17.807 4.65036 17.4654V16.7188C4.65036 15.4197 5.11052 14.2259 5.87618 13.2919H4.37064V13.2919ZM14.7509 10.1672C14.7726 10.1969 14.79 10.2305 14.8019 10.2673C15.1897 11.465 16.2967 12.2696 17.5564 12.2696C19.1527 12.2696 20.4513 10.9709 20.4513 9.37462C20.4513 7.77833 19.1527 6.47968 17.5564 6.47968C16.9608 6.47968 16.393 6.65744 15.9077 6.99471C15.9116 7.06982 15.9135 7.14544 15.9135 7.2215C15.9135 8.35879 15.4718 9.3949 14.7509 10.1672ZM5.62532 6.47968C4.02908 6.47968 2.73043 7.77837 2.73043 9.37466C2.73043 10.9709 4.02908 12.2696 5.62532 12.2696C6.8868 12.2696 7.99419 11.4635 8.38095 10.2638C8.3929 10.2267 8.4103 10.193 8.432 10.1632C7.71322 9.39138 7.27305 8.35695 7.27305 7.22154C7.27305 7.14664 7.27498 7.07201 7.27876 6.99806C6.79248 6.65856 6.22293 6.47968 5.62532 6.47968ZM11.5933 3.61328C9.60371 3.61328 7.98508 5.23191 7.98508 7.2215C7.98508 9.21108 9.60371 10.8297 11.5933 10.8297C13.5829 10.8297 15.2015 9.21108 15.2015 7.2215C15.2015 5.23191 13.5829 3.61328 11.5933 3.61328Z" fill="#FF817F"/>
</g>
<defs>
<clipPath id="clip0_4459_9329">
<rect width="22" height="22" fill="white" transform="translate(0.57959)"/>
</clipPath>
</defs>
</svg>
