<svg width="22" height="22" viewBox="0 0 22 22" fill="none" xmlns="http://www.w3.org/2000/svg">
<path d="M17.644 18.3867H21.3085C21.6898 18.3867 22 18.0765 22 17.6952V17.0829C22 14.9925 20.2993 13.2919 18.209 13.2919H16.7034C17.4691 14.2258 17.9292 15.4196 17.9292 16.7187V17.4653C17.9292 17.8069 17.8239 18.1243 17.644 18.3867ZM6.4827 18.3867H16.2958C16.8038 18.3867 17.2172 17.9734 17.2172 17.4654V16.7188C17.2172 14.1266 15.1083 12.0178 12.5162 12.0178H9.48376C6.89167 12.0178 4.78281 14.1266 4.78281 16.7188V17.4654C4.78281 17.9734 5.19613 18.3867 5.70414 18.3867H6.4827ZM3.79105 13.2919C1.70066 13.2919 0 14.9925 0 17.083V17.6952C0 18.0765 0.310191 18.3868 0.691496 18.3868H4.35604C4.17609 18.1243 4.07077 17.807 4.07077 17.4654V16.7188C4.07077 15.4197 4.53093 14.2259 5.29659 13.2919H3.79105V13.2919ZM14.1713 10.1672C14.193 10.1969 14.2104 10.2305 14.2223 10.2673C14.6101 11.465 15.7171 12.2696 16.9768 12.2696C18.5731 12.2696 19.8718 10.9709 19.8718 9.37462C19.8718 7.77833 18.5731 6.47968 16.9768 6.47968C16.3812 6.47968 15.8134 6.65744 15.3281 6.99471C15.332 7.06982 15.334 7.14544 15.334 7.2215C15.334 8.35879 14.8922 9.3949 14.1713 10.1672ZM5.04573 6.47968C3.44949 6.47968 2.15084 7.77837 2.15084 9.37466C2.15084 10.9709 3.44949 12.2696 5.04573 12.2696C6.30721 12.2696 7.4146 11.4635 7.80136 10.2638C7.81331 10.2267 7.83071 10.193 7.85241 10.1632C7.13363 9.39138 6.69346 8.35695 6.69346 7.22154C6.69346 7.14664 6.69539 7.07201 6.69917 6.99806C6.21289 6.65856 5.64334 6.47968 5.04573 6.47968ZM11.0137 3.61328C9.02413 3.61328 7.40549 5.23191 7.40549 7.2215C7.40549 9.21108 9.02413 10.8297 11.0137 10.8297C13.0033 10.8297 14.6219 9.21108 14.6219 7.2215C14.6219 5.23191 13.0033 3.61328 11.0137 3.61328Z" fill="white"/>
</svg>
