<svg width="22" height="22" viewBox="0 0 22 22" fill="none" xmlns="http://www.w3.org/2000/svg">
<g clip-path="url(#clip0_4454_9111)">
<path d="M8.10342 13.75H4.35425C3.97475 13.75 3.66675 13.442 3.66675 13.0625C3.66675 12.683 3.97475 12.375 4.35425 12.375H8.10342C8.48291 12.375 8.79092 12.683 8.79092 13.0625C8.79092 13.442 8.48291 13.75 8.10342 13.75Z" fill="#FF817F"/>
<path d="M7.56258 16.5H4.35425C3.97475 16.5 3.66675 16.192 3.66675 15.8125C3.66675 15.433 3.97475 15.125 4.35425 15.125H7.56258C7.94208 15.125 8.25008 15.433 8.25008 15.8125C8.25008 16.192 7.94208 16.5 7.56258 16.5Z" fill="#FF817F"/>
<path d="M7.5625 19.25H2.52083C1.13025 19.25 0 18.1198 0 16.7292V2.52083C0 1.13025 1.13025 0 2.52083 0H13.0625C14.4531 0 15.5833 1.13025 15.5833 2.52083V7.6175C15.5833 7.997 15.2753 8.305 14.8958 8.305C14.5163 8.305 14.2083 7.997 14.2083 7.6175V2.52083C14.2083 1.88925 13.6941 1.375 13.0625 1.375H2.52083C1.88925 1.375 1.375 1.88925 1.375 2.52083V16.7292C1.375 17.3608 1.88925 17.875 2.52083 17.875H7.5625C7.942 17.875 8.25 18.183 8.25 18.5625C8.25 18.942 7.942 19.25 7.5625 19.25Z" fill="#FF817F"/>
<path d="M7.79159 6.41667C8.80411 6.41667 9.62492 5.59586 9.62492 4.58333C9.62492 3.57081 8.80411 2.75 7.79159 2.75C6.77906 2.75 5.95825 3.57081 5.95825 4.58333C5.95825 5.59586 6.77906 6.41667 7.79159 6.41667Z" fill="#FF817F"/>
<path d="M10.7708 11H4.8125C4.433 11 4.125 10.692 4.125 10.3125V9.85415C4.125 8.46356 5.25525 7.33331 6.64583 7.33331H8.9375C10.3281 7.33331 11.4583 8.46356 11.4583 9.85415V10.3125C11.4583 10.692 11.1503 11 10.7708 11Z" fill="#FF817F"/>
<path d="M16.0416 10.0833C12.7563 10.0833 10.0833 12.7563 10.0833 16.0416C10.0833 19.327 12.7563 22 16.0416 22C19.3269 22 21.9999 19.327 21.9999 16.0416C21.9999 12.7563 19.3269 10.0833 16.0416 10.0833ZM19.0226 14.5832L15.8143 18.2499C15.465 18.6486 14.8508 18.6688 14.4768 18.2939L12.6435 16.4606C12.2851 16.1021 12.2851 15.5228 12.6435 15.1644C13.0019 14.806 13.5813 14.806 13.9397 15.1644L15.08 16.3047L17.643 13.3751C17.9767 12.9956 18.556 12.9552 18.9364 13.2889C19.3168 13.6226 19.3563 14.2019 19.0226 14.5832Z" fill="#FF817F"/>
</g>
<defs>
<clipPath id="clip0_4454_9111">
<rect width="22" height="22" fill="white"/>
</clipPath>
</defs>
</svg>
