<svg width="23" height="22" viewBox="0 0 23 22" fill="none" xmlns="http://www.w3.org/2000/svg">
<g clip-path="url(#clip0_4459_9182)">
<path d="M8.81338 13.75H5.06421C4.68471 13.75 4.37671 13.442 4.37671 13.0625C4.37671 12.683 4.68471 12.375 5.06421 12.375H8.81338C9.19288 12.375 9.50088 12.683 9.50088 13.0625C9.50088 13.442 9.19288 13.75 8.81338 13.75Z" fill="white"/>
<path d="M8.27254 16.5H5.06421C4.68471 16.5 4.37671 16.192 4.37671 15.8125C4.37671 15.433 4.68471 15.125 5.06421 15.125H8.27254C8.65204 15.125 8.96004 15.433 8.96004 15.8125C8.96004 16.192 8.65204 16.5 8.27254 16.5Z" fill="white"/>
<path d="M8.27246 19.25H3.23079C1.84021 19.25 0.709961 18.1198 0.709961 16.7292V2.52083C0.709961 1.13025 1.84021 0 3.23079 0H13.7725C15.163 0 16.2933 1.13025 16.2933 2.52083V7.6175C16.2933 7.997 15.9853 8.305 15.6058 8.305C15.2263 8.305 14.9183 7.997 14.9183 7.6175V2.52083C14.9183 1.88925 14.404 1.375 13.7725 1.375H3.23079C2.59921 1.375 2.08496 1.88925 2.08496 2.52083V16.7292C2.08496 17.3608 2.59921 17.875 3.23079 17.875H8.27246C8.65196 17.875 8.95996 18.183 8.95996 18.5625C8.95996 18.942 8.65196 19.25 8.27246 19.25Z" fill="white"/>
<path d="M8.50155 6.41667C9.51407 6.41667 10.3349 5.59586 10.3349 4.58333C10.3349 3.57081 9.51407 2.75 8.50155 2.75C7.48902 2.75 6.66821 3.57081 6.66821 4.58333C6.66821 5.59586 7.48902 6.41667 8.50155 6.41667Z" fill="white"/>
<path d="M11.4808 11H5.52246C5.14296 11 4.83496 10.692 4.83496 10.3125V9.85415C4.83496 8.46356 5.96521 7.33331 7.35579 7.33331H9.64746C11.038 7.33331 12.1683 8.46356 12.1683 9.85415V10.3125C12.1683 10.692 11.8603 11 11.4808 11Z" fill="white"/>
<path d="M16.7515 10.0833C13.4662 10.0833 10.7932 12.7563 10.7932 16.0416C10.7932 19.327 13.4662 22 16.7515 22C20.0369 22 22.7099 19.327 22.7099 16.0416C22.7099 12.7563 20.0369 10.0833 16.7515 10.0833ZM19.7325 14.5832L16.5242 18.2499C16.175 18.6486 15.5608 18.6688 15.1868 18.2939L13.3535 16.4606C12.995 16.1021 12.995 15.5228 13.3535 15.1644C13.7119 14.806 14.2912 14.806 14.6496 15.1644L15.79 16.3047L18.353 13.3751C18.6866 12.9956 19.266 12.9552 19.6464 13.2889C20.0268 13.6226 20.0662 14.2019 19.7325 14.5832Z" fill="white"/>
</g>
<defs>
<clipPath id="clip0_4459_9182">
<rect width="22" height="22" fill="white" transform="translate(0.709961)"/>
</clipPath>
</defs>
</svg>
