<svg width="24" height="24" viewBox="0 0 24 24" fill="none" xmlns="http://www.w3.org/2000/svg">
<path d="M4.89687 4.28839H19.1024C19.7773 4.28839 20.3245 3.74123 20.3245 3.06633C20.3245 2.39142 19.7773 1.84426 19.1024 1.84426H15.844C15.9523 1.66185 16.0156 1.44962 16.0156 1.22207C16.0156 0.54716 15.4684 0 14.7935 0H9.20563C8.53073 0 7.98357 0.54716 7.98357 1.22207C7.98357 1.44962 8.04687 1.66177 8.15514 1.84426H4.89687C4.22196 1.84426 3.6748 2.39142 3.6748 3.06633C3.6748 3.74123 4.22196 4.28839 4.89687 4.28839Z" fill="#B91C1C"/>
<path d="M19.8797 6.37357C19.4672 5.93591 18.8925 5.68774 18.2911 5.68774H5.70812C5.1067 5.68774 4.53192 5.93591 4.11951 6.37357C3.70711 6.81123 3.49349 7.39978 3.52926 8.00006L4.35912 21.9469C4.42772 23.1 5.38281 24 6.5379 24H17.4614C18.6165 24 19.5716 23.1 19.6402 21.9469L20.47 8.00006C20.5057 7.39978 20.2921 6.81131 19.8797 6.37357ZM7.78718 20.9256C7.76355 20.9275 7.73993 20.9283 7.71663 20.9283C7.23073 20.9283 6.81996 20.5533 6.78329 20.061L6.05453 10.2822C6.016 9.76619 6.40315 9.31671 6.91919 9.27834C7.43628 9.23899 7.8847 9.62703 7.92307 10.143L8.65183 19.9216C8.69037 20.4376 8.30322 20.8872 7.78718 20.9256ZM12.9366 19.9913C12.9366 20.5087 12.5171 20.9282 11.9996 20.9282C11.4821 20.9282 11.0627 20.5087 11.0627 19.9913V10.2126C11.0627 9.69514 11.4821 9.27573 11.9996 9.27573C12.5171 9.27573 12.9366 9.69514 12.9366 10.2126V19.9913ZM17.9447 10.2822L17.2159 20.0609C17.1792 20.5532 16.7684 20.9282 16.2826 20.9282C16.2592 20.9282 16.2357 20.9273 16.212 20.9255C15.696 20.8871 15.3088 20.4376 15.3474 19.9216L16.0761 10.143C16.1146 9.62695 16.5635 9.23923 17.08 9.27834C17.5961 9.31671 17.9832 9.76619 17.9447 10.2822Z" fill="#B91C1C"/>
</svg>
