<svg width="24" height="24" viewBox="0 0 24 24" fill="none" xmlns="http://www.w3.org/2000/svg">
<g clip-path="url(#clip0_77_45769)">
<path d="M14.0325 14.7375C14.0325 14.7375 11.3806 15.2694 11.3775 15.27C9.85218 15.5759 8.41922 14.1453 8.73001 12.6225L9.26248 9.96748C9.34501 9.53246 9.56249 9.13498 9.87749 8.82L15.6975 3H2.25C1.01253 3 0 4.01249 0 5.25V21.75C0 22.9875 1.01253 24 2.25 24H18.75C19.9875 24 21 22.9875 21 21.75V8.30251L15.18 14.1225C14.865 14.4375 14.4675 14.655 14.0325 14.7375Z" fill="#17335D"/>
<path d="M23.7828 2.34001L21.6603 0.217494C21.3753 -0.0600061 20.8803 -0.0600061 20.5953 0.217494L10.9353 9.87749C10.8303 9.98251 10.7628 10.1175 10.7328 10.2675L10.2003 12.915C10.1553 13.1625 10.2303 13.4175 10.4103 13.59C10.5941 13.7662 10.8355 13.8357 11.0853 13.8L13.7328 13.2675C13.8828 13.2375 14.0178 13.17 14.1228 13.065C14.1228 13.065 23.7711 3.41666 23.7828 3.405C24.0652 3.12254 24.0625 2.63531 23.7828 2.34001Z" fill="#17335D"/>
</g>
<defs>
<clipPath id="clip0_77_45769">
<rect width="24" height="24" fill="white"/>
</clipPath>
</defs>
</svg>
