<svg width="24" height="24" viewBox="0 0 24 24" fill="none" xmlns="http://www.w3.org/2000/svg">
<path d="M14.1956 12.5093C14.5804 12.4973 14.9546 12.4058 15.2389 12.2985C15.2149 12.2888 15.1972 12.2805 15.1789 12.2742C14.8575 12.1575 14.5935 11.9678 14.4195 11.6685C14.3392 11.5309 14.2837 11.3873 14.2477 11.2399H14.4041C14.5496 11.2474 14.613 11.1855 14.6647 11.0607C14.9272 10.4307 14.9947 9.77741 14.9111 9.10616C14.8121 8.31153 14.5639 7.57841 14.07 6.95741C14.0561 6.93641 14.0415 6.91578 14.0265 6.89516C13.9129 6.74028 13.7842 6.60828 13.6421 6.49616C13.4021 6.26853 13.1329 6.07653 12.7957 6.03003C12.6225 6.00603 12.4466 5.99103 12.2704 5.98241C12.2557 5.97978 12.2407 5.97753 12.2261 5.97528H11.7757C11.7709 5.97641 11.7664 5.97791 11.7615 5.97903C11.6659 5.98203 11.5699 5.98653 11.475 5.99328C11.0486 6.02366 10.692 6.21678 10.3815 6.48491C10.2202 6.60641 10.0804 6.74703 9.96712 6.91278C9.44474 7.54803 9.18674 8.30216 9.08737 9.12153C9.00524 9.80028 9.07199 10.4618 9.35512 11.0907C9.38212 11.1503 9.45862 11.2302 9.51112 11.2294H9.76987C9.63412 11.7225 9.33674 12.0863 8.82599 12.2794C8.81174 12.285 8.79787 12.2929 8.76074 12.3109C9.12262 12.4234 9.47624 12.5074 9.81787 12.513L9.98249 12.471C10.281 12.4073 10.5701 12.2723 10.8469 12.0368C11.0651 12.1602 11.2687 12.2835 11.4795 12.3927C11.4806 12.3934 11.4821 12.3942 11.4832 12.3945C11.6377 12.474 11.8106 12.5112 11.9846 12.5112H12.0097C12.1792 12.5112 12.348 12.4759 12.4999 12.3998C12.501 12.3994 12.5021 12.3987 12.5032 12.3983C12.6945 12.3023 12.8794 12.1943 13.0699 12.09C13.3672 12.3357 13.7291 12.4568 14.1011 12.4977L14.1956 12.5093ZM14.1097 9.28391C14.1112 9.34278 14.0809 9.52728 14.0434 9.73203C13.881 10.6122 13.3927 11.4049 12.6634 11.9243C12.6401 11.9412 12.6157 11.958 12.5917 11.9745C12.1822 12.2532 11.835 12.1928 11.403 11.9652C9.65662 11.0453 10.167 8.43903 10.167 8.43903C10.1887 8.24591 10.2244 8.06403 10.2701 7.89378C10.3024 7.77528 10.4092 7.69016 10.5319 7.69503C10.5326 7.69541 10.5334 7.69541 10.5345 7.69541C10.9579 7.71378 11.3797 7.68603 11.7945 7.59153C11.9325 7.56003 12.0652 7.52103 12.1927 7.47341C12.2797 7.53866 12.3701 7.60203 12.4624 7.66316C12.7027 7.82253 12.948 7.98078 13.1614 8.17241C13.3766 8.36516 13.5547 8.59878 13.7497 8.81516C13.8225 8.39853 13.4685 8.17428 13.2851 7.86978C13.5439 8.03328 13.7576 8.22491 13.9027 8.46116L13.9575 8.55941C14.0422 8.72666 14.0944 8.91528 14.1067 9.13166C14.1097 9.18228 14.1105 9.23328 14.1097 9.28391Z" fill="#3C678C"/>
<path d="M13.6533 15.0004C13.4973 15.4358 13.7238 15.915 14.1592 16.071C14.5946 16.227 15.0738 16.0001 15.2294 15.5648C15.3854 15.1294 15.1589 14.6501 14.7236 14.4945C14.2886 14.3385 13.8093 14.5654 13.6533 15.0004ZM14.8151 15.4166C14.7412 15.6229 14.5139 15.7301 14.3081 15.6563C14.1018 15.5824 13.9946 15.3555 14.0684 15.1493C14.1423 14.943 14.3692 14.8358 14.5754 14.9096C14.7817 14.9831 14.8889 15.2104 14.8151 15.4166Z" fill="#3C678C"/>
<path d="M11.0338 16.8904C10.9791 16.9886 10.9131 17.0745 10.8362 17.1461C10.8628 17.2969 10.7691 17.4412 10.6247 17.4697C10.4788 17.4986 10.2302 17.4244 10.1991 17.2661C10.1679 17.1082 10.3693 16.9447 10.5152 16.9159C10.5549 16.908 10.5954 16.9095 10.6344 16.9204C10.7649 16.7996 10.8452 16.6256 10.8864 16.434L10.4743 15.1605C10.2246 14.8792 9.81582 14.7795 9.30019 14.8856L9.29757 14.886L9.29457 14.8864C8.65444 15.0382 8.32332 15.4226 8.36194 15.969C8.36907 16.0687 8.32332 16.164 8.24494 16.218C8.24757 16.2341 8.25057 16.2506 8.25394 16.2667C8.33307 16.6665 8.57269 17.1206 8.93382 17.2545C8.96569 17.2297 9.00282 17.2129 9.04257 17.205C9.18844 17.1761 9.43707 17.2507 9.46819 17.4086C9.49932 17.5665 9.29794 17.73 9.15207 17.7589C9.00769 17.7874 8.86557 17.6895 8.83294 17.5399C8.68557 17.4844 8.54869 17.3914 8.42569 17.2631C8.20107 17.0284 8.03682 16.695 7.96332 16.3241C7.95619 16.2877 7.94982 16.251 7.94419 16.2124C7.87669 16.1636 7.83394 16.0867 7.82794 16.0012C7.80132 15.6225 7.89732 15.2734 8.10619 14.9891C8.07132 14.7799 8.35669 14.3422 8.83332 14.1307C8.81457 14.0527 8.72982 13.6519 8.65257 13.2919C8.57419 13.3252 8.49582 13.359 8.41782 13.3931C7.92807 13.6069 7.56994 13.9642 7.32357 14.4386C7.07682 14.9137 6.92007 17.2489 6.89232 17.7855C6.88369 17.9516 6.90357 17.9801 7.05694 18.039C7.12969 18.0671 7.20282 18.0941 7.27669 18.1185C7.95057 18.3397 8.64732 18.4567 9.35007 18.5156C10.2336 18.5895 11.1201 18.6274 11.5757 18.6547C11.5854 18.6547 11.5948 18.6547 11.6042 18.6544L11.0338 16.8904Z" fill="#3C678C"/>
<path d="M9.21213 14.0209C9.40301 13.995 9.63513 14.016 9.78701 14.0449C9.93026 14.0801 10.057 14.1341 10.162 14.1956L9.72476 12.8438C9.49001 12.9412 9.25488 13.0384 9.02051 13.1366C9.10001 13.5064 9.19113 13.9361 9.21213 14.0209Z" fill="#3C678C"/>
<path d="M12.0597 15.0457L10.1157 13.1017L10.5803 14.5384C10.8593 14.7225 11.0656 14.9977 11.1792 15.3401C11.1998 15.4031 11.1987 15.4714 11.1755 15.5325C11.1691 15.549 11.1616 15.5647 11.1522 15.5797C11.1616 15.6172 11.1702 15.6544 11.1773 15.6904C11.2272 15.9435 11.2317 16.1966 11.1916 16.428L11.9108 18.651C11.9716 18.6502 12.032 18.6495 12.0916 18.6484L13.8897 13.1227L12.0597 15.0457Z" fill="#3C678C"/>
<path d="M14.7584 14.2523C14.8754 13.9257 14.9388 13.6024 14.9328 13.3568C14.9306 13.254 14.9167 13.1633 14.8916 13.0864C14.6913 13.0035 14.4903 12.9218 14.2893 12.84L13.7681 14.4413C14.0388 14.2257 14.4071 14.1443 14.7584 14.2523Z" fill="#3C678C"/>
<path d="M17.1048 17.7383C17.0759 17.3386 16.9825 15.1186 16.8239 14.7511C16.615 14.2677 16.3454 13.8282 15.8751 13.5544C15.6843 13.4434 15.4863 13.3422 15.2841 13.2529C15.2916 13.3729 15.2886 13.4911 15.2811 13.5957C15.2605 13.8814 15.1949 14.1987 15.1086 14.4372C15.4683 14.7214 15.6115 15.2123 15.4563 15.6462C15.2556 16.2061 14.6373 16.4982 14.0774 16.2979C13.7339 16.1749 13.4913 15.8944 13.4016 15.5667L12.4004 18.6436C13.5303 18.6203 14.4269 18.5652 15.3183 18.4343C15.8586 18.3548 16.3934 18.2472 16.9071 18.0541C17.104 17.9798 17.1201 17.9513 17.1048 17.7383Z" fill="#3C678C"/>
<path d="M4.5432 9.34239L3.66383 9.70764C3.60345 9.73277 3.56445 9.79164 3.56445 9.85689V11.0051C3.56445 11.046 3.57983 11.085 3.60758 11.115C3.79808 11.322 4.59833 12.0604 5.59508 11.1154C5.6277 11.0846 5.64645 11.0419 5.64645 10.9973V9.85689C5.64645 9.79164 5.60708 9.73277 5.54708 9.70764L4.6677 9.34239C4.62758 9.32589 4.58295 9.32589 4.5432 9.34239Z" fill="#3C678C"/>
<path d="M6.63566 7.85967V7.35829C6.63566 6.50367 5.94304 6.04242 5.08841 6.04242H4.05604C3.20141 6.04242 2.50879 6.50404 2.50879 7.35829V7.85967C2.50879 7.85967 4.44004 8.24292 6.63566 7.85967Z" fill="#3C678C"/>
<path d="M3.2337 11.0051V10.2135C3.05445 9.94875 2.98132 9.687 3.00495 9.40425L3.00682 9.38175C3.00832 9.36263 3.0102 9.336 3.0132 9.31913C3.10845 9.28725 3.1647 9.19613 3.16807 9.0675C3.17032 8.976 3.17107 8.88338 3.17182 8.79375C3.17257 8.694 3.1737 8.592 3.1767 8.49038C3.1767 8.41575 3.20332 8.34788 3.2472 8.29463C2.8812 8.25788 2.6217 8.2155 2.50732 8.19525C2.50245 8.34375 2.50657 8.49225 2.5212 8.64038L2.59395 9.38925C2.60107 9.46275 2.60557 9.53663 2.61045 9.61013C2.63482 9.97463 2.78895 10.3185 3.07807 10.6556C3.08632 10.665 3.0942 10.6789 3.09757 10.6905C3.1362 10.8124 3.18195 10.9253 3.2352 11.0303C3.23445 11.022 3.2337 11.0138 3.2337 11.0051Z" fill="#3C678C"/>
<path d="M5.99937 8.35315C6.02337 8.40415 6.03462 8.46153 6.05075 8.5144C6.0515 8.51328 6.05262 8.51215 6.05337 8.51103C6.05562 8.59803 6.05562 8.6869 6.05562 8.7784C6.05562 8.8579 6.05525 8.94003 6.05712 9.02215C6.0575 9.0439 6.0575 9.06603 6.05712 9.08965V9.13578C6.05712 9.22728 6.12275 9.30603 6.21275 9.32253C6.21612 9.3394 6.21875 9.36303 6.21987 9.37278C6.25175 9.67465 6.17412 9.95328 5.9765 10.2379V10.9973C5.9765 11.022 5.97387 11.046 5.9705 11.0704C6.02637 10.9658 6.07512 10.8529 6.11675 10.7299C6.128 10.6962 6.14975 10.6583 6.176 10.6268C6.47525 10.2638 6.6215 9.89403 6.62112 9.50103C6.62112 9.47403 6.62112 9.44665 6.6215 9.41928L6.62675 8.19678C6.40025 8.23503 6.17675 8.2654 5.9585 8.28903C5.97387 8.30778 5.98812 8.32878 5.99937 8.35315Z" fill="#3C678C"/>
<path d="M19.5618 5.9715H19.6683C19.7564 5.9715 19.8273 6.04237 19.8273 6.13012V6.38212H20.0793C20.1671 6.38212 20.2379 6.45337 20.2379 6.54075V6.64725C20.2379 6.73537 20.1667 6.80625 20.0793 6.80625H19.8273V7.05787C19.8273 7.146 19.7561 7.21687 19.6683 7.21687H19.5618C19.4741 7.21687 19.4032 7.14562 19.4032 7.05787V6.80625H19.1512C19.0634 6.80625 18.9922 6.735 18.9922 6.64725V6.54075C18.9922 6.46425 19.0469 6.39975 19.1193 6.38512C19.1298 6.38287 19.1403 6.38175 19.1512 6.38175H19.4032V6.12975C19.4032 6.081 19.4249 6.03712 19.4598 6.00787C19.4876 5.98537 19.5232 5.9715 19.5618 5.9715Z" fill="#3C678C"/>
<path d="M22.3096 12.2719C22.0374 12.1729 21.8135 12.0124 21.6661 11.7585C21.5979 11.6415 21.551 11.5204 21.5206 11.3951H21.6534C21.7767 11.4015 21.8304 11.349 21.8742 11.2433C22.0966 10.7093 22.154 10.1558 22.0831 9.58652C21.9991 8.91302 21.7887 8.29164 21.3702 7.76514C21.3586 7.74752 21.3462 7.72989 21.3335 7.71264C21.308 7.67777 21.2814 7.64439 21.254 7.61214C21.1786 7.52289 21.0961 7.44414 21.008 7.37402C20.9982 7.36502 20.9889 7.35602 20.9791 7.34739C20.9967 7.30877 21.0121 7.26827 21.0245 7.22627C21.0301 7.20752 21.0361 7.18614 21.0432 7.16439L21.0444 7.16027C21.0462 7.15352 21.0485 7.14639 21.0507 7.13927L21.0519 7.13514C21.1381 6.84414 21.284 6.35102 21.2971 6.30827C21.3747 6.07352 21.3372 5.80839 21.1992 5.61564C21.074 5.44164 20.885 5.34564 20.6667 5.34564H18.5652C18.347 5.34564 18.158 5.44127 18.0331 5.61527C17.8947 5.80802 17.8572 6.07277 17.9349 6.30789L18.2075 7.22739C18.2124 7.24352 18.2176 7.25964 18.2232 7.27539C18.233 7.30277 18.2442 7.32902 18.2562 7.35489C18.2521 7.35827 18.2484 7.36164 18.2446 7.36502C18.146 7.43889 18.0567 7.52177 17.9791 7.61477C17.9487 7.65077 17.9202 7.68827 17.8932 7.72764C17.4504 8.26614 17.2317 8.90552 17.1474 9.60002C17.0776 10.1753 17.1342 10.7359 17.3742 11.2691C17.3971 11.3198 17.462 11.3876 17.5066 11.3869H17.726C17.6109 11.805 17.3589 12.1133 16.9257 12.2768C16.9137 12.2813 16.9017 12.2884 16.8706 12.3034C17.1774 12.399 17.477 12.4703 17.7669 12.4748L17.9064 12.4391C18.1595 12.3851 18.4047 12.2704 18.6391 12.0709C18.824 12.1755 18.9969 12.2801 19.1754 12.3728C19.1765 12.3735 19.1776 12.3739 19.1787 12.3746C19.31 12.4418 19.4562 12.4736 19.6036 12.4736H19.625C19.7686 12.4736 19.9119 12.4436 20.0405 12.3795C20.0412 12.3788 20.0424 12.3788 20.0431 12.378C20.2051 12.2966 20.3619 12.2051 20.5235 12.1166C20.7755 12.3248 21.0822 12.4275 21.3976 12.462L21.4771 12.4721C21.8034 12.462 22.1202 12.3844 22.3614 12.2933C22.34 12.2843 22.325 12.2775 22.3096 12.2719ZM18.3339 5.83202C18.3886 5.75589 18.4662 5.71689 18.5641 5.71689H20.6656C20.7635 5.71689 20.8411 5.75552 20.8959 5.83202C20.9652 5.92877 20.9836 6.07014 20.9424 6.19239L20.9401 6.19877C20.9401 6.19877 20.7841 6.72452 20.6945 7.02902C20.6919 7.03802 20.6889 7.04664 20.6866 7.05527C20.6795 7.07814 20.6731 7.10027 20.6671 7.12014C20.6649 7.12802 20.6626 7.13514 20.66 7.14264C20.651 7.16852 20.6409 7.19327 20.6285 7.21652C20.5445 7.37852 20.3881 7.46702 20.1744 7.47227C20.1684 7.47264 20.1627 7.47227 20.1564 7.47227H19.0741C19.0126 7.47227 18.9549 7.46552 18.9024 7.45202C18.7017 7.39989 18.6129 7.26002 18.5735 7.15127C18.5731 7.15052 18.5731 7.15052 18.5727 7.14977C18.5694 7.14002 18.566 7.12952 18.563 7.12014L18.2896 6.19877L18.2877 6.19239C18.2461 6.06977 18.2645 5.92839 18.3339 5.83202ZM21.4032 9.73689C21.4044 9.78677 21.3789 9.94314 21.347 10.1168C21.2094 10.863 20.7954 11.5346 20.1774 11.9749C20.1575 11.9891 20.1372 12.0034 20.1166 12.0173C19.7697 12.2535 19.4754 12.2021 19.109 12.0094C17.6289 11.2298 18.0612 9.02027 18.0612 9.02027C18.0796 8.85677 18.11 8.70227 18.1486 8.55789C18.176 8.45739 18.2667 8.38539 18.3706 8.38914C18.3714 8.38952 18.3717 8.38952 18.3729 8.38952C18.7317 8.40489 19.0891 8.38164 19.4409 8.30139C19.5579 8.27477 19.6704 8.24177 19.7784 8.20127C19.8522 8.25677 19.9287 8.31039 20.0071 8.36214C20.2111 8.49714 20.4189 8.63139 20.5996 8.79377C20.7822 8.95689 20.933 9.15489 21.0984 9.33864C21.1599 8.98539 20.8602 8.79527 20.7046 8.53727C20.924 8.67564 21.1051 8.83802 21.2281 9.03864L21.2746 9.12189C21.3466 9.26364 21.3905 9.42377 21.401 9.60677C21.4032 9.65102 21.404 9.69414 21.4032 9.73689Z" fill="#3C678C"/>
<path d="M19.615 14.7667C19.3806 14.7667 19.1552 14.745 18.9434 14.706L19.4575 17.8249H19.7721L20.2859 14.7075C20.0747 14.7461 19.8494 14.7667 19.615 14.7667Z" fill="#3C678C"/>
<path d="M21.9916 13.0241H21.9387C21.3177 13.0241 21.0154 12.8547 20.8669 12.6135L20.0078 17.8249H23.2591C23.5216 17.8249 23.7342 17.6119 23.7342 17.3498V14.7672C23.7342 13.8045 22.9538 13.0241 21.9916 13.0241ZM22.2349 15.492H21.1969V15.219H22.2349V15.492Z" fill="#3C678C"/>
<path d="M6.78398 14.1585C7.03223 13.6804 7.37198 13.3061 7.79498 13.0388C7.50135 12.8348 7.14398 12.69 6.72398 12.6034C6.46148 12.549 6.1086 12.1541 5.95823 11.8328L5.90048 11.8759L4.5726 13.9639L3.29723 11.8748L3.25298 11.8328C3.1026 12.1541 2.74973 12.549 2.48723 12.6034C1.33185 12.8415 0.638476 13.5049 0.493726 14.7008L0.267976 17.0756C0.260851 17.2166 0.277726 17.241 0.407851 17.2913C0.469351 17.3149 0.531601 17.3381 0.594601 17.3588C1.16685 17.5466 1.7586 17.6464 2.3556 17.6959C3.1056 17.7585 3.85898 17.7908 4.2456 17.814C5.03348 17.8073 5.68673 17.7896 6.28597 17.7473C6.31185 17.2448 6.45548 14.7915 6.78398 14.1585Z" fill="#3C678C"/>
<path d="M17.383 14.5106C17.5124 14.8103 17.59 15.5239 17.6909 17.3382C17.6999 17.4998 17.7067 17.6258 17.7119 17.6951C17.7153 17.7405 17.7145 17.7829 17.7142 17.8249H19.2224L18.3633 12.6135C18.2148 12.8547 17.9125 13.0241 17.2915 13.0241H17.2387C16.9548 13.0241 16.6878 13.0935 16.4512 13.2135C16.9383 13.5934 17.2042 14.0955 17.383 14.5106Z" fill="#3C678C"/>
</svg>
