<?xml version="1.0" encoding="UTF-8"?>
<!DOCTYPE svg PUBLIC "-//W3C//DTD SVG 1.1//EN" "http://www.w3.org/Graphics/SVG/1.1/DTD/svg11.dtd">
<svg xmlns="http://www.w3.org/2000/svg" version="1.1" width="24px" height="24px" style="shape-rendering:geometricPrecision; text-rendering:geometricPrecision; image-rendering:optimizeQuality; fill-rule:evenodd; clip-rule:evenodd" xmlns:xlink="http://www.w3.org/1999/xlink">
<g><path style="opacity:0.625" fill="#0059e8" d="M 17.5,-0.5 C 19.1667,-0.5 20.8333,-0.5 22.5,-0.5C 22.5,0.166667 22.8333,0.5 23.5,0.5C 23.5,2.16667 23.5,3.83333 23.5,5.5C 21.1667,7.16667 19.1667,9.16667 17.5,11.5C 15.3702,13.1271 13.3702,14.9604 11.5,17C 9.26001,17.977 6.92668,18.477 4.5,18.5C 4.52304,16.0733 5.02304,13.74 6,11.5C 8.70497,8.96376 11.205,6.29709 13.5,3.5C 15.1667,2.5 16.5,1.16667 17.5,-0.5 Z M 8.5,14.5 C 11.7308,9.76092 15.5642,5.42759 20,1.5C 20.5,2 21,2.5 21.5,3C 17.5724,7.43583 13.2391,11.2692 8.5,14.5 Z"/></g>
<g><path style="opacity:0.701" fill="#0059e8" d="M 13.5,3.5 C 9.5,3.5 5.5,3.5 1.5,3.5C 1.5,9.5 1.5,15.5 1.5,21.5C 6.83333,21.5 12.1667,21.5 17.5,21.5C 17.5,18.1667 17.5,14.8333 17.5,11.5C 18.5,11.5 19.5,11.5 20.5,11.5C 20.7633,15.6002 20.4299,19.6002 19.5,23.5C 12.8333,23.5 6.16667,23.5 -0.5,23.5C -0.5,16.1667 -0.5,8.83333 -0.5,1.5C 4.10306,0.616694 8.76973,0.28336 13.5,0.5C 13.5,1.5 13.5,2.5 13.5,3.5 Z"/></g>
</svg>
