<svg xmlns="http://www.w3.org/2000/svg" width="138.879" height="32.273" viewBox="0 0 138.879 32.273">
  <g id="docsin_logo-V.3" transform="translate(-619.941 -375.467)">
    <path id="Docisn" d="M.764,0V-.83H1.926A6.307,6.307,0,0,0,3.287-.963a1.791,1.791,0,0,0,1-.6A3.249,3.249,0,0,0,4.9-2.922a10.792,10.792,0,0,0,.216-2.424v-19.49q0-2.789-.631-3.52a3.2,3.2,0,0,0-2.557-1H.764v-.83H13.049q6.707,0,10.293,1.561a12.285,12.285,0,0,1,5.678,5.113,15.829,15.829,0,0,1,2.158,8.268A16.889,16.889,0,0,1,30.1-9.1a12.992,12.992,0,0,1-3.221,4.814,14.89,14.89,0,0,1-5.3,3.154A21.751,21.751,0,0,1,14.244,0ZM9.4-2.191a21.656,21.656,0,0,0,4.715.631,11.848,11.848,0,0,0,4.748-.946,11.119,11.119,0,0,0,3.8-2.689A12.487,12.487,0,0,0,25.185-9.43a16.113,16.113,0,0,0,.913-5.578,16.633,16.633,0,0,0-.9-5.628,12.117,12.117,0,0,0-2.523-4.25,11.017,11.017,0,0,0-3.852-2.673,12.534,12.534,0,0,0-4.881-.93,18.627,18.627,0,0,0-4.549.664Zm34.9-18.793a9.211,9.211,0,0,1,3.918.83,9.83,9.83,0,0,1,3.1,2.241,10.372,10.372,0,0,1,2.059,3.32,10.971,10.971,0,0,1,.747,4.034,12.276,12.276,0,0,1-.813,4.549A10.949,10.949,0,0,1,51.1-2.474,9.969,9.969,0,0,1,47.879-.183a9.283,9.283,0,0,1-3.818.813,8.731,8.731,0,0,1-3.868-.863,9.575,9.575,0,0,1-3.055-2.324,10.777,10.777,0,0,1-1.992-3.387,11.56,11.56,0,0,1-.714-4.051,11.456,11.456,0,0,1,.764-4.167,11.738,11.738,0,0,1,2.092-3.5,10.065,10.065,0,0,1,3.121-2.424A8.565,8.565,0,0,1,44.293-20.984Zm-.7,1.461a4.378,4.378,0,0,0-1.859.415,4.276,4.276,0,0,0-1.594,1.328,7.294,7.294,0,0,0-1.129,2.374,12.674,12.674,0,0,0-.432,3.553A18.631,18.631,0,0,0,39.03-7.72a13.07,13.07,0,0,0,1.278,3.47,7.456,7.456,0,0,0,2.025,2.391,4.322,4.322,0,0,0,2.656.9,4.717,4.717,0,0,0,1.976-.415,3.947,3.947,0,0,0,1.577-1.345,7.235,7.235,0,0,0,1.046-2.44,15.346,15.346,0,0,0,.382-3.7A19.022,19.022,0,0,0,49.539-13a12.318,12.318,0,0,0-1.245-3.387A6.977,6.977,0,0,0,46.3-18.677,4.52,4.52,0,0,0,43.6-19.523ZM74.408-7.736A12.564,12.564,0,0,1,73.163-4.15a10.117,10.117,0,0,1-1.992,2.623A8.142,8.142,0,0,1,68.664.083a7.408,7.408,0,0,1-2.789.548,7.315,7.315,0,0,1-3.254-.764,8.575,8.575,0,0,1-2.756-2.158,10.676,10.676,0,0,1-1.909-3.387,13.226,13.226,0,0,1-.714-4.482,11.919,11.919,0,0,1,.78-4.383,10.673,10.673,0,0,1,2.108-3.42,9.572,9.572,0,0,1,3.088-2.225,8.989,8.989,0,0,1,3.752-.8,8.035,8.035,0,0,1,2.739.448,7.979,7.979,0,0,1,2.175,1.162,5.566,5.566,0,0,1,1.444,1.594,3.383,3.383,0,0,1,.515,1.71,1.8,1.8,0,0,1-.548,1.378,2.168,2.168,0,0,1-1.544.515,2.683,2.683,0,0,1-1.693-.515,2.962,2.962,0,0,1-.8-2.142A2.678,2.678,0,0,0,66.24-19.49a4.519,4.519,0,0,0-2.341.6,5.222,5.222,0,0,0-1.693,1.61,7.615,7.615,0,0,0-1.029,2.357,11.271,11.271,0,0,0-.349,2.839,13.062,13.062,0,0,0,.448,3.42,9.967,9.967,0,0,0,1.312,2.955A7.048,7.048,0,0,0,64.68-3.636a5.091,5.091,0,0,0,2.789.78,6.681,6.681,0,0,0,1.776-.232A4.883,4.883,0,0,0,70.872-3.9,6.961,6.961,0,0,0,72.366-5.5a15.426,15.426,0,0,0,1.411-2.573Zm9.961-13.248V-4.615a11.47,11.47,0,0,0,.166,2.241,2.079,2.079,0,0,0,.548,1.129,1.584,1.584,0,0,0,.963.4q.581.05,1.411.05V0H77.563V-.8a7.224,7.224,0,0,0,1.644-.149,1.634,1.634,0,0,0,.946-.581,2.325,2.325,0,0,0,.415-1.179,17.89,17.89,0,0,0,.083-1.909v-7.836q0-1.926-.066-3.055a7.832,7.832,0,0,0-.232-1.677,1.052,1.052,0,0,0-.481-.7,1.907,1.907,0,0,0-.813-.149,2.934,2.934,0,0,0-.681.083,7.934,7.934,0,0,0-.813.249l-.332-.8,6.143-2.49ZM82.51-31.643A2.186,2.186,0,0,1,84.12-31a2.186,2.186,0,0,1,.647,1.61,2.2,2.2,0,0,1-.647,1.594,2.158,2.158,0,0,1-1.61.664,2.158,2.158,0,0,1-1.61-.664,2.2,2.2,0,0,1-.647-1.594A2.186,2.186,0,0,1,80.9-31,2.186,2.186,0,0,1,82.51-31.643Zm20.652,10.658v6.939H102.4a13.124,13.124,0,0,0-.946-2.723,6.155,6.155,0,0,0-1.212-1.727,3.839,3.839,0,0,0-1.511-.9,6.128,6.128,0,0,0-1.843-.266,4.11,4.11,0,0,0-1.428.232,3.992,3.992,0,0,0-1.1.6,2.648,2.648,0,0,0-.714.83,2.014,2.014,0,0,0-.249.963,4.281,4.281,0,0,0,.149,1.162,2.612,2.612,0,0,0,.548,1,5.5,5.5,0,0,0,1.079.93,15.183,15.183,0,0,0,1.743,1l3.254,1.594q4.516,2.191,4.516,5.811A5.533,5.533,0,0,1,104.108-3a6.032,6.032,0,0,1-1.544,1.942A7.366,7.366,0,0,1,100.373.183a7.216,7.216,0,0,1-2.49.448A14.563,14.563,0,0,1,95.857.481,14.822,14.822,0,0,1,93.6-.033q-.365-.1-.664-.166A2.481,2.481,0,0,0,92.4-.266a.9.9,0,0,0-.8.564h-.73V-6.973h.73a9.608,9.608,0,0,0,.93,2.739A7.542,7.542,0,0,0,94-2.274,5.747,5.747,0,0,0,95.841-1.1a5.622,5.622,0,0,0,2.075.4A4.007,4.007,0,0,0,99.311-.93a3.38,3.38,0,0,0,1.1-.647,3.029,3.029,0,0,0,.73-.979,2.773,2.773,0,0,0,.266-1.2,3.869,3.869,0,0,0-.232-1.378,3.347,3.347,0,0,0-.83-1.2A9.173,9.173,0,0,0,98.7-7.537Q97.65-8.168,95.99-9a21.138,21.138,0,0,1-2.64-1.494,7.879,7.879,0,0,1-1.594-1.395,3.767,3.767,0,0,1-.78-1.461,6.853,6.853,0,0,1-.2-1.727,6.042,6.042,0,0,1,.448-2.341A5.49,5.49,0,0,1,92.5-19.291a5.983,5.983,0,0,1,1.959-1.245,6.691,6.691,0,0,1,2.49-.448,5.8,5.8,0,0,1,1.1.133q.664.133,1.345.3t1.245.3a4.142,4.142,0,0,0,.764.133.851.851,0,0,0,.548-.149,2.253,2.253,0,0,0,.448-.714Zm10.492,4.316q3.553-4.316,6.807-4.316a5.624,5.624,0,0,1,2.092.382,4.086,4.086,0,0,1,1.677,1.262,6.318,6.318,0,0,1,1.112,2.357,14.335,14.335,0,0,1,.4,3.669v8.7a11.442,11.442,0,0,0,.149,2.092,2.345,2.345,0,0,0,.5,1.146,1.589,1.589,0,0,0,.946.481,9.586,9.586,0,0,0,1.527.1V0H118.8V-.8h.4a5.446,5.446,0,0,0,1.577-.183,1.536,1.536,0,0,0,.863-.614A2.694,2.694,0,0,0,122-2.772a17.116,17.116,0,0,0,.083-1.843v-8.334A8.5,8.5,0,0,0,121.374-17a2.59,2.59,0,0,0-2.44-1.229q-2.689,0-5.279,2.889V-4.615a19.515,19.515,0,0,0,.083,2.042,2.127,2.127,0,0,0,.415,1.146,1.6,1.6,0,0,0,1,.515,11.158,11.158,0,0,0,1.826.116V0H106.881V-.8h.432a3.98,3.98,0,0,0,1.312-.183,1.621,1.621,0,0,0,.813-.614,2.829,2.829,0,0,0,.415-1.179,12.272,12.272,0,0,0,.116-1.843v-7.537q0-2.191-.066-3.387a7.3,7.3,0,0,0-.249-1.743q-.183-.548-.5-.647a2.623,2.623,0,0,0-.78-.1,2.934,2.934,0,0,0-.681.083,7.934,7.934,0,0,0-.813.249l-.332-.8,6.143-2.49h.963Z" transform="translate(629.959 407.11)" fill="#14636a"/>
    <g id="_" transform="translate(619.941 376.887)">
      <path id="Path_2254" data-name="Path 2254" d="M648.028,393.6h7.779a1.1,1.1,0,0,1,1.128,1.076v28.039a1.1,1.1,0,0,1-1.128,1.076h-7.779a1.1,1.1,0,0,1-1.128-1.076V394.676A1.1,1.1,0,0,1,648.028,393.6Z" transform="translate(-636.993 -393.6)" fill="#e21313"/>
      <path id="Rectangle_7_copy" d="M620.061,421.4h27.655a1.1,1.1,0,0,1,1.061,1.128v7.779a1.1,1.1,0,0,1-1.061,1.128H620.061A1.1,1.1,0,0,1,619,430.307v-7.779A1.1,1.1,0,0,1,620.061,421.4Z" transform="translate(-619 -411.322)" fill="#e21313"/>
    </g>
  </g>
</svg>
