<?xml version="1.0" encoding="UTF-8"?>
<!DOCTYPE svg PUBLIC "-//W3C//DTD SVG 1.1//EN" "http://www.w3.org/Graphics/SVG/1.1/DTD/svg11.dtd">
<svg xmlns="http://www.w3.org/2000/svg" version="1.1" width="26px" height="26px" style="shape-rendering:geometricPrecision; text-rendering:geometricPrecision; image-rendering:optimizeQuality; fill-rule:evenodd; clip-rule:evenodd" xmlns:xlink="http://www.w3.org/1999/xlink">
<g><path style="opacity:0.793" fill="#068e9a" d="M 7.5,-0.5 C 11.1667,-0.5 14.8333,-0.5 18.5,-0.5C 19.6935,0.271873 20.6935,1.27187 21.5,2.5C 21.6309,3.37644 21.2975,4.04311 20.5,4.5C 19.5832,3.87277 18.5832,3.53944 17.5,3.5C 14.9039,2.73465 12.2372,2.40132 9.5,2.5C 7.95186,2.17876 7.28519,1.17876 7.5,-0.5 Z"/></g>
<g><path style="opacity:0.76" fill="#0c7782" d="M 6.5,-0.5 C 6.83333,-0.5 7.16667,-0.5 7.5,-0.5C 7.28519,1.17876 7.95186,2.17876 9.5,2.5C 7.52483,4.13696 5.52483,5.80363 3.5,7.5C 3.71481,5.82124 3.04814,4.82124 1.5,4.5C 2.86063,2.47266 4.52729,0.805998 6.5,-0.5 Z"/></g>
<g><path style="opacity:0.739" fill="#068c98" d="M 1.5,4.5 C 3.04814,4.82124 3.71481,5.82124 3.5,7.5C 2.16667,10.8333 2.16667,14.1667 3.5,17.5C 3.5,19.5 4.5,20.5 6.5,20.5C 6.63088,21.3764 6.29755,22.0431 5.5,22.5C 4.58317,21.8728 3.58317,21.5394 2.5,21.5C 1.27187,20.6935 0.271873,19.6935 -0.5,18.5C -0.5,14.5 -0.5,10.5 -0.5,6.5C 0.166667,5.83333 0.833333,5.16667 1.5,4.5 Z"/></g>
<g><path style="opacity:0.82" fill="#0b6771" d="M 21.5,2.5 C 22.5,2.83333 23.1667,3.5 23.5,4.5C 22.7109,4.78281 22.0442,5.28281 21.5,6C 22.3366,7.01127 22.67,8.17793 22.5,9.5C 20.863,7.52483 19.1964,5.52483 17.5,3.5C 18.5832,3.53944 19.5832,3.87277 20.5,4.5C 21.2975,4.04311 21.6309,3.37644 21.5,2.5 Z"/></g>
<g><path style="opacity:0.741" fill="#068d9a" d="M 23.5,4.5 C 24.1667,5.16667 24.8333,5.83333 25.5,6.5C 25.5,10.5 25.5,14.5 25.5,18.5C 24.8333,19.1667 24.1667,19.8333 23.5,20.5C 23.7678,18.901 23.4345,17.5676 22.5,16.5C 22.5,16.1667 22.5,15.8333 22.5,15.5C 22.5,13.5 22.5,11.5 22.5,9.5C 22.67,8.17793 22.3366,7.01127 21.5,6C 22.0442,5.28281 22.7109,4.78281 23.5,4.5 Z"/></g>
<g><path style="opacity:0.086" fill="#061c1e" d="M 10.5,5.5 C 11.8333,5.5 13.1667,5.5 14.5,5.5C 14.5,7.16667 14.5,8.83333 14.5,10.5C 16.1667,10.5 17.8333,10.5 19.5,10.5C 19.5,11.8333 19.5,13.1667 19.5,14.5C 17.8333,14.5 16.1667,14.5 14.5,14.5C 14.5,16.1667 14.5,17.8333 14.5,19.5C 13.1667,19.5 11.8333,19.5 10.5,19.5C 10.5,17.8333 10.5,16.1667 10.5,14.5C 8.83333,14.5 7.16667,14.5 5.5,14.5C 5.5,13.1667 5.5,11.8333 5.5,10.5C 7.16667,10.5 8.83333,10.5 10.5,10.5C 10.5,8.83333 10.5,7.16667 10.5,5.5 Z"/></g>
<g><path style="opacity:0.766" fill="#09aebd" d="M 11.5,6.5 C 13.256,7.55213 13.9227,9.21879 13.5,11.5C 20.1667,12.1667 20.1667,12.8333 13.5,13.5C 12.8333,20.1667 12.1667,20.1667 11.5,13.5C 4.83333,12.8333 4.83333,12.1667 11.5,11.5C 11.5,9.83333 11.5,8.16667 11.5,6.5 Z"/></g>
<g><path style="opacity:0.169" fill="#113e45" d="M 3.5,17.5 C 4.83333,18.1667 5.83333,19.1667 6.5,20.5C 4.5,20.5 3.5,19.5 3.5,17.5 Z"/></g>
<g><path style="opacity:0.173" fill="#0b474e" d="M 22.5,15.5 C 22.5,15.8333 22.5,16.1667 22.5,16.5C 21.8333,19.1667 20.1667,20.8333 17.5,21.5C 19.1964,19.4752 20.863,17.4752 22.5,15.5 Z"/></g>
<g><path style="opacity:0.763" fill="#068c9b" d="M 22.5,16.5 C 23.4345,17.5676 23.7678,18.901 23.5,20.5C 22.1394,22.5273 20.4727,24.194 18.5,25.5C 18.1667,25.5 17.8333,25.5 17.5,25.5C 17.7148,23.8212 17.0481,22.8212 15.5,22.5C 15.8417,21.6618 16.5084,21.3284 17.5,21.5C 20.1667,20.8333 21.8333,19.1667 22.5,16.5 Z"/></g>
<g><path style="opacity:0.818" fill="#036771" d="M 6.5,20.5 C 9.24571,22.1264 12.2457,22.7931 15.5,22.5C 12.5234,22.9016 9.85672,23.9016 7.5,25.5C 7.16667,25.5 6.83333,25.5 6.5,25.5C 4.86076,24.5275 3.52743,23.1942 2.5,21.5C 3.58317,21.5394 4.58317,21.8728 5.5,22.5C 6.29755,22.0431 6.63088,21.3764 6.5,20.5 Z"/></g>
<g><path style="opacity:0.746" fill="#0aacbb" d="M 15.5,22.5 C 17.0481,22.8212 17.7148,23.8212 17.5,25.5C 14.1667,25.5 10.8333,25.5 7.5,25.5C 9.85672,23.9016 12.5234,22.9016 15.5,22.5 Z"/></g>
</svg>
