<svg width="24" height="24" viewBox="0 0 24 24" fill="none" xmlns="http://www.w3.org/2000/svg">
<g clip-path="url(#clip0_2818_56134)">
<path d="M15.5647 2.49334H13.4773C13.4247 1.10961 12.2831 -1.14441e-05 10.8867 -1.14441e-05H8.00592C6.60956 -1.14441e-05 5.46808 1.10961 5.41534 2.49334H3.32812C2.16504 2.49334 1.21875 3.43962 1.21875 4.60271V21.8906C1.21875 23.0537 2.16504 24 3.32812 24H15.5647C16.7278 24 17.6741 23.0537 17.6741 21.8906V4.60271C17.6741 3.43962 16.7278 2.49334 15.5647 2.49334ZM16.2678 21.8906C16.2678 22.2782 15.9523 22.5937 15.5647 22.5937H3.32812C2.94049 22.5937 2.625 22.2782 2.625 21.8906V4.60271C2.625 4.21508 2.94049 3.89959 3.32812 3.89959H5.41296V4.13799C5.41296 4.52636 5.72772 4.84111 6.11609 4.84111H12.7767C13.1651 4.84111 13.4799 4.52636 13.4799 4.13799V3.89959H15.5647C15.9523 3.89959 16.2678 4.21508 16.2678 4.60271V21.8906ZM8.00592 1.40624H10.8867C11.5411 1.40624 12.0736 1.93871 12.0736 2.59295V3.43486H6.81921V2.59295C6.81921 1.93871 7.3515 1.40624 8.00592 1.40624Z" fill="#64748B"/>
<path d="M7.73932 6.65735H5.29541C4.90704 6.65735 4.59229 6.97211 4.59229 7.36047V9.8042C4.59229 10.1926 4.90704 10.5073 5.29541 10.5073H7.73932C8.12769 10.5073 8.44244 10.1926 8.44244 9.8042V7.36047C8.44244 6.97211 8.12769 6.65735 7.73932 6.65735ZM7.03619 9.10126H5.99854V8.0636H7.03619V9.10126Z" fill="#64748B"/>
<path d="M13.5972 6.86003H9.71594C9.32758 6.86003 9.01282 7.17479 9.01282 7.56315C9.01282 7.95134 9.32758 8.26628 9.71594 8.26628H13.5972C13.9856 8.26628 14.3004 7.95134 14.3004 7.56315C14.3004 7.17479 13.9856 6.86003 13.5972 6.86003Z" fill="#64748B"/>
<path d="M13.5972 8.89854H9.71594C9.32758 8.89854 9.01282 9.21329 9.01282 9.60166C9.01282 9.99003 9.32758 10.3048 9.71594 10.3048H13.5972C13.9856 10.3048 14.3004 9.99003 14.3004 9.60166C14.3004 9.21329 13.9856 8.89854 13.5972 8.89854Z" fill="#64748B"/>
<path d="M7.73932 11.5305H5.29541C4.90704 11.5305 4.59229 11.8453 4.59229 12.2336V14.6776C4.59229 15.0657 4.90704 15.3807 5.29541 15.3807H7.73932C8.12769 15.3807 8.44244 15.0657 8.44244 14.6776V12.2336C8.44244 11.8453 8.12769 11.5305 7.73932 11.5305ZM7.03619 13.9744H5.99854V12.9368H7.03619V13.9744Z" fill="#64748B"/>
<path d="M13.5972 11.7332H9.71594C9.32758 11.7332 9.01282 12.048 9.01282 12.4363C9.01282 12.8247 9.32758 13.1395 9.71594 13.1395H13.5972C13.9856 13.1395 14.3004 12.8247 14.3004 12.4363C14.3004 12.048 13.9856 11.7332 13.5972 11.7332Z" fill="#64748B"/>
<path d="M13.5972 13.7717H9.71594C9.32758 13.7717 9.01282 14.0867 9.01282 14.4748C9.01282 14.8632 9.32758 15.178 9.71594 15.178H13.5972C13.9856 15.178 14.3004 14.8632 14.3004 14.4748C14.3004 14.0867 13.9856 13.7717 13.5972 13.7717Z" fill="#64748B"/>
<path d="M7.73932 16.4037H5.29541C4.90704 16.4037 4.59229 16.7186 4.59229 17.1068V19.5507C4.59229 19.9391 4.90704 20.2538 5.29541 20.2538H7.73932C8.12769 20.2538 8.44244 19.9391 8.44244 19.5507V17.1068C8.44244 16.7186 8.12769 16.4037 7.73932 16.4037ZM7.03619 18.8476H5.99854V17.8099H7.03619V18.8476Z" fill="#64748B"/>
<path d="M13.5972 16.6064H9.71594C9.32758 16.6064 9.01282 16.9211 9.01282 17.3095C9.01282 17.6979 9.32758 18.0126 9.71594 18.0126H13.5972C13.9856 18.0126 14.3004 17.6979 14.3004 17.3095C14.3004 16.9211 13.9856 16.6064 13.5972 16.6064Z" fill="#64748B"/>
<path d="M13.5972 18.6451H9.71594C9.32758 18.6451 9.01282 18.9598 9.01282 19.3482C9.01282 19.7364 9.32758 20.0513 9.71594 20.0513H13.5972C13.9856 20.0513 14.3004 19.7364 14.3004 19.3482C14.3004 18.9598 13.9856 18.6451 13.5972 18.6451Z" fill="#64748B"/>
<path d="M20.7198 4.37218C19.5602 4.37218 18.6167 5.31572 18.6167 6.47533V20.7911C18.6167 20.9112 18.6475 21.0291 18.7061 21.134L20.1061 23.6398C20.2302 23.8621 20.4651 24 20.7198 24C20.9747 24 21.2095 23.8623 21.3336 23.6398L22.7338 21.134C22.7922 21.0291 22.823 20.9112 22.823 20.7911V6.47533C22.823 5.31572 21.8796 4.37218 20.7198 4.37218ZM20.7198 5.77843C21.1042 5.77843 21.4167 6.09099 21.4167 6.47533V7.00524H20.0229V6.47533C20.0229 6.09099 20.3355 5.77843 20.7198 5.77843ZM21.4167 8.41149V18.6815H20.0229V8.41149H21.4167ZM20.0229 20.0878H21.4167V20.608L20.7198 21.8553L20.0229 20.608V20.0878Z" fill="#64748B"/>
</g>
<defs>
<clipPath id="clip0_2818_56134">
<rect width="24" height="24" fill="white"/>
</clipPath>
</defs>
</svg>
