<?xml version="1.0" encoding="UTF-8"?>
<!DOCTYPE svg PUBLIC "-//W3C//DTD SVG 1.1//EN" "http://www.w3.org/Graphics/SVG/1.1/DTD/svg11.dtd">
<svg xmlns="http://www.w3.org/2000/svg" version="1.1" width="30px" height="30px" style="shape-rendering:geometricPrecision; text-rendering:geometricPrecision; image-rendering:optimizeQuality; fill-rule:evenodd; clip-rule:evenodd" xmlns:xlink="http://www.w3.org/1999/xlink">
<g><path style="opacity:0.238" fill="#000000" d="M -0.5,0.5 C 9.5,0.5 19.5,0.5 29.5,0.5C 29.5,7.5 29.5,14.5 29.5,21.5C 25.1539,21.3343 20.8206,21.501 16.5,22C 13.5,23.8333 10.5,25.6667 7.5,27.5C 6.53443,25.604 6.2011,23.604 6.5,21.5C 4.16667,21.5 1.83333,21.5 -0.5,21.5C -0.5,14.5 -0.5,7.5 -0.5,0.5 Z M 1.5,3.5 C 10.1667,3.5 18.8333,3.5 27.5,3.5C 27.5,8.83333 27.5,14.1667 27.5,19.5C 20.9067,18.5391 14.9067,19.8724 9.5,23.5C 8.57131,22.3112 8.23798,20.9778 8.5,19.5C 6.16667,19.5 3.83333,19.5 1.5,19.5C 1.5,14.1667 1.5,8.83333 1.5,3.5 Z"/></g>
<g><path style="opacity:0.225" fill="#000000" d="M 8.5,8.5 C 12.5546,8.17575 16.5546,8.50909 20.5,9.5C 18.5,9.83333 16.5,10.1667 14.5,10.5C 12.0478,10.4609 10.0478,9.79426 8.5,8.5 Z"/></g>
<g><path style="opacity:0.225" fill="#000000" d="M 8.5,11.5 C 12.5546,11.1758 16.5546,11.5091 20.5,12.5C 18.5,12.8333 16.5,13.1667 14.5,13.5C 12.0478,13.4609 10.0478,12.7943 8.5,11.5 Z"/></g>
</svg>
