<svg width="24" height="25" viewBox="0 0 24 25" fill="none" xmlns="http://www.w3.org/2000/svg">
<g clip-path="url(#clip0_4548_12291)">
<path d="M22.875 18.8098H1.125C0.826631 18.8098 0.540483 18.6913 0.329505 18.4803C0.118526 18.2693 0 17.9832 0 17.6848L0 1.18481C0 0.886446 0.118526 0.600298 0.329505 0.389319C0.540483 0.178341 0.826631 0.0598145 1.125 0.0598145L22.875 0.0598145C23.1734 0.0598145 23.4595 0.178341 23.6705 0.389319C23.8815 0.600298 24 0.886446 24 1.18481V17.6848C24 17.9832 23.8815 18.2693 23.6705 18.4803C23.4595 18.6913 23.1734 18.8098 22.875 18.8098ZM1.125 0.809814C1.02554 0.809814 0.930161 0.849323 0.859835 0.919649C0.789509 0.989976 0.75 1.08536 0.75 1.18481V17.6848C0.75 17.7843 0.789509 17.8797 0.859835 17.95C0.930161 18.0203 1.02554 18.0598 1.125 18.0598H22.875C22.9745 18.0598 23.0698 18.0203 23.1402 17.95C23.2105 17.8797 23.25 17.7843 23.25 17.6848V1.18481C23.25 1.08536 23.2105 0.989976 23.1402 0.919649C23.0698 0.849323 22.9745 0.809814 22.875 0.809814H1.125Z" fill="#00BFD6"/>
<path d="M15 21.0598H9C8.90054 21.0598 8.80516 21.0203 8.73483 20.95C8.66451 20.8797 8.625 20.7843 8.625 20.6848V18.4348C8.625 18.3354 8.66451 18.24 8.73483 18.1696C8.80516 18.0993 8.90054 18.0598 9 18.0598H15C15.0995 18.0598 15.1948 18.0993 15.2652 18.1696C15.3355 18.24 15.375 18.3354 15.375 18.4348V20.6848C15.375 20.7843 15.3355 20.8797 15.2652 20.95C15.1948 21.0203 15.0995 21.0598 15 21.0598ZM9.375 20.3098H14.625V18.8098H9.375V20.3098Z" fill="#00BFD6"/>
<path d="M17.8013 22.8778L14.8924 21.0598H9.10764L6.19877 22.8778L5.80127 22.2403L8.80127 20.3653C8.86103 20.3286 8.92988 20.3094 9.00002 20.3098H15C15.0703 20.3098 15.1392 20.3296 15.1988 20.3668L18.1988 22.2418L17.8013 22.8778Z" fill="#00BFD6"/>
<path d="M18.75 24.0598H5.25C5.15054 24.0598 5.05516 24.0203 4.98484 23.95C4.91451 23.8797 4.875 23.7843 4.875 23.6848V23.3098C4.875 23.0114 4.99353 22.7253 5.2045 22.5143C5.41548 22.3033 5.70163 22.1848 6 22.1848H18C18.2984 22.1848 18.5845 22.3033 18.7955 22.5143C19.0065 22.7253 19.125 23.0114 19.125 23.3098V23.6848C19.125 23.7843 19.0855 23.8797 19.0152 23.95C18.9448 24.0203 18.8495 24.0598 18.75 24.0598ZM5.625 23.3098H18.375C18.375 23.2104 18.3355 23.115 18.2652 23.0446C18.1948 22.9743 18.0995 22.9348 18 22.9348H6C5.90054 22.9348 5.80516 22.9743 5.73484 23.0446C5.66451 23.115 5.625 23.2104 5.625 23.3098Z" fill="#00BFD6"/>
<path d="M1.125 3.43481H1.875V4.18481H1.125V3.43481Z" fill="#00BFD6"/>
<path d="M22.5 17.6848H1.5C1.40054 17.6848 1.30516 17.6453 1.23483 17.575C1.16451 17.5047 1.125 17.4093 1.125 17.3098V4.93481H1.875V16.9348H22.125V16.1848H22.875V17.3098C22.875 17.4093 22.8355 17.5047 22.7652 17.575C22.6948 17.6453 22.5995 17.6848 22.5 17.6848Z" fill="#00BFD6"/>
<path d="M22.875 15.4348H22.125V1.93481H1.875V2.68481H1.125V1.55981C1.125 1.46036 1.16451 1.36498 1.23483 1.29465C1.30516 1.22432 1.40054 1.18481 1.5 1.18481H22.5C22.5995 1.18481 22.6948 1.22432 22.7652 1.29465C22.8355 1.36498 22.875 1.46036 22.875 1.55981V15.4348Z" fill="#00BFD6"/>
<path d="M18.375 5.68482C18.0783 5.68482 17.7883 5.59684 17.5416 5.43202C17.295 5.2672 17.1027 5.03293 16.9892 4.75884C16.8756 4.48475 16.8459 4.18315 16.9038 3.89218C16.9617 3.60121 17.1046 3.33393 17.3143 3.12415C17.5241 2.91438 17.7914 2.77152 18.0824 2.71364C18.3733 2.65576 18.6749 2.68546 18.949 2.799C19.2231 2.91253 19.4574 3.10479 19.6222 3.35146C19.787 3.59813 19.875 3.88814 19.875 4.18482C19.875 4.58264 19.717 4.96417 19.4357 5.24548C19.1544 5.52678 18.7728 5.68482 18.375 5.68482ZM18.375 3.43482C18.2267 3.43482 18.0817 3.4788 17.9583 3.56121C17.835 3.64362 17.7389 3.76076 17.6821 3.8978C17.6253 4.03485 17.6105 4.18565 17.6394 4.33113C17.6684 4.47662 17.7398 4.61026 17.8447 4.71515C17.9496 4.82003 18.0832 4.89147 18.2287 4.9204C18.3742 4.94934 18.525 4.93449 18.662 4.87772C18.7991 4.82096 18.9162 4.72483 18.9986 4.60149C19.081 4.47816 19.125 4.33315 19.125 4.18482C19.125 3.9859 19.046 3.79514 18.9053 3.65449C18.7647 3.51383 18.5739 3.43482 18.375 3.43482Z" fill="#00BFD6"/>
<path d="M19.1082 15.4348C18.9441 15.4354 18.7843 15.3832 18.6523 15.2858C18.5202 15.1885 18.423 15.0513 18.375 14.8944C18.3211 15.07 18.206 15.2204 18.0506 15.3183C17.8952 15.4162 17.7098 15.4551 17.5281 15.4278C17.3465 15.4006 17.1807 15.309 17.0608 15.1699C16.941 15.0307 16.875 14.8531 16.875 14.6694V9.90356L16.7389 10.3183C16.6795 10.4958 16.5664 10.6504 16.4154 10.7608C16.2643 10.8713 16.0826 10.9321 15.8955 10.9348C15.7585 10.9347 15.6234 10.9025 15.5011 10.8409C15.3787 10.7792 15.2725 10.6898 15.1909 10.5797C15.1029 10.4621 15.0432 10.3257 15.0164 10.1813C14.9897 10.0368 14.9967 9.88814 15.0368 9.74681L15.7928 7.07006C15.8751 6.77675 16.0266 6.50746 16.2345 6.28481L16.2747 6.24206C16.6344 5.88657 17.1193 5.68647 17.625 5.68481H19.125C19.6306 5.68655 20.1153 5.88649 20.475 6.24169L20.5163 6.28631C20.7239 6.50839 20.8753 6.77703 20.9577 7.06969L21.7125 9.74681C21.7527 9.88814 21.7596 10.0368 21.7329 10.1813C21.7062 10.3257 21.6464 10.4621 21.5584 10.5797C21.4769 10.6897 21.3708 10.7791 21.2486 10.8407C21.1264 10.9024 20.9914 10.9346 20.8545 10.9348C20.6688 10.9325 20.4883 10.8728 20.3378 10.7638C20.1873 10.6548 20.0743 10.502 20.0142 10.3262L19.875 9.90319V14.6679C19.8748 14.8713 19.794 15.0662 19.6502 15.21C19.5064 15.3538 19.3115 15.4346 19.1082 15.4348ZM18.375 10.1848C18.4693 10.1845 18.5603 10.2197 18.6298 10.2834C18.6993 10.3472 18.7422 10.4347 18.75 10.5287L19.0924 14.6724L19.125 7.55981C19.1251 7.47064 19.1568 7.3844 19.2147 7.31655C19.2726 7.24871 19.3527 7.20371 19.4408 7.18962C19.5288 7.17553 19.619 7.19328 19.6952 7.23968C19.7713 7.28608 19.8284 7.3581 19.8563 7.44281L20.724 10.0843C20.7331 10.1123 20.7505 10.1368 20.7737 10.1547C20.797 10.1727 20.8252 10.1832 20.8545 10.1848C20.8756 10.1843 20.8962 10.1789 20.9147 10.1689C20.9332 10.159 20.9491 10.1447 20.961 10.1274C20.9793 10.1023 20.9916 10.0733 20.997 10.0427C21.0024 10.0121 21.0007 9.98069 20.9922 9.95081L20.2358 7.27406C20.186 7.09694 20.0946 6.93429 19.9692 6.79969L19.9283 6.75544C19.7106 6.55096 19.4237 6.43641 19.125 6.43481H17.625C17.326 6.43647 17.0388 6.55129 16.821 6.75619L16.7813 6.79894C16.6556 6.93389 16.5641 7.09692 16.5143 7.27444L15.7579 9.95081C15.7494 9.98069 15.7477 10.0121 15.7531 10.0427C15.7585 10.0733 15.7708 10.1023 15.789 10.1274C15.8064 10.1445 15.8276 10.157 15.851 10.1638C15.8743 10.1706 15.899 10.1716 15.9228 10.1665C15.9465 10.1615 15.9687 10.1506 15.9872 10.1349C16.0058 10.1191 16.0201 10.0991 16.029 10.0764L16.8938 7.44281C16.9216 7.3581 16.9787 7.28608 17.0549 7.23968C17.131 7.19328 17.2212 7.17553 17.3093 7.18962C17.3973 7.20371 17.4775 7.24871 17.5353 7.31655C17.5932 7.3844 17.625 7.47064 17.625 7.55981V14.6679L18 10.5287C18.0079 10.4347 18.0508 10.3472 18.1203 10.2834C18.1898 10.2197 18.2807 10.1845 18.375 10.1848Z" fill="#00BFD6"/>
<path d="M3.37501 12.4348H2.62501V10.6483C2.62432 10.4393 2.6822 10.2342 2.79209 10.0564C2.90198 9.87857 3.05949 9.73508 3.24676 9.64219L5.41763 8.55656C5.48008 8.52565 5.53261 8.47785 5.56926 8.4186C5.60592 8.35934 5.62523 8.29099 5.62501 8.22131V6.89831C5.62523 6.82864 5.60592 6.76029 5.56926 6.70103C5.53261 6.64177 5.48008 6.59398 5.41763 6.56306L3.24676 5.47744C3.05949 5.38455 2.90198 5.24106 2.79209 5.06323C2.6822 4.88541 2.62432 4.68035 2.62501 4.47131V2.68481H3.37501V4.47131C3.37478 4.54099 3.39409 4.60934 3.43075 4.6686C3.4674 4.72785 3.51994 4.77565 3.58238 4.80656L5.75326 5.89406C5.94024 5.98681 6.09755 6.13001 6.20742 6.30747C6.31729 6.48494 6.37534 6.68959 6.37501 6.89831V8.22131C6.37569 8.43035 6.31781 8.63541 6.20792 8.81323C6.09803 8.99106 5.94052 9.13455 5.75326 9.22744L3.58238 10.3131C3.51994 10.344 3.4674 10.3918 3.43075 10.451C3.39409 10.5103 3.37478 10.5786 3.37501 10.6483V12.4348Z" fill="#00BFD6"/>
<path d="M6.37501 12.4348H5.62501V10.6483C5.62523 10.5786 5.60592 10.5103 5.56926 10.451C5.53261 10.3918 5.48008 10.344 5.41763 10.3131L3.24676 9.22744C3.05949 9.13455 2.90198 8.99106 2.79209 8.81323C2.6822 8.63541 2.62432 8.43035 2.62501 8.22131V6.89831C2.62432 6.68927 2.6822 6.48422 2.79209 6.3064C2.90198 6.12857 3.05949 5.98508 3.24676 5.89219L5.41763 4.80469C5.47979 4.77392 5.53213 4.72641 5.56877 4.66752C5.6054 4.60862 5.62488 4.54067 5.62501 4.47131V2.68481H6.37501V4.47131C6.37569 4.68035 6.31781 4.88541 6.20792 5.06323C6.09803 5.24106 5.94052 5.38455 5.75326 5.47744L3.58238 6.56306C3.51994 6.59398 3.4674 6.64177 3.43075 6.70103C3.39409 6.76029 3.37478 6.82864 3.37501 6.89831V8.22131C3.37478 8.29099 3.39409 8.35934 3.43075 8.4186C3.4674 8.47785 3.51994 8.52565 3.58238 8.55656L5.75326 9.64219C5.94052 9.73508 6.09803 9.87857 6.20792 10.0564C6.31781 10.2342 6.37569 10.4393 6.37501 10.6483V12.4348Z" fill="#00BFD6"/>
<path d="M3 4.18481H6V4.93481H3V4.18481Z" fill="#00BFD6"/>
<path d="M3 3.05981H6V3.80981H3V3.05981Z" fill="#00BFD6"/>
<path d="M3 11.3098H6V12.0598H3V11.3098Z" fill="#00BFD6"/>
<path d="M3 10.1848H6V10.9348H3V10.1848Z" fill="#00BFD6"/>
<path d="M3 7.93481H6V8.68481H3V7.93481Z" fill="#00BFD6"/>
<path d="M3 6.43481H6V7.18481H3V6.43481Z" fill="#00BFD6"/>
<path d="M4.5 16.1848C4.19512 16.1848 2.625 15.506 2.625 14.2348C2.62567 14.0907 2.65581 13.9482 2.71356 13.8162C2.77131 13.6841 2.85545 13.5653 2.96082 13.4669C3.06618 13.3686 3.19054 13.2928 3.32626 13.2443C3.46197 13.1958 3.60617 13.1755 3.75 13.1848C4.0255 13.1799 4.29294 13.2779 4.5 13.4597C4.70706 13.2779 4.9745 13.1799 5.25 13.1848C5.39383 13.1755 5.53803 13.1958 5.67374 13.2443C5.80946 13.2928 5.93382 13.3686 6.03918 13.4669C6.14455 13.5653 6.22869 13.6841 6.28644 13.8162C6.34419 13.9482 6.37433 14.0907 6.375 14.2348C6.375 15.4723 4.95187 16.1848 4.5 16.1848ZM3.75 13.9348C3.68737 13.9348 3.375 13.949 3.375 14.2348C3.375 14.9027 4.29413 15.3459 4.51875 15.4277C4.7535 15.3639 5.625 14.9375 5.625 14.2348C5.625 13.949 5.31262 13.9348 5.25 13.9348C5.12963 13.9348 4.95713 13.9678 4.85138 14.2524C4.82474 14.3242 4.77677 14.3861 4.71393 14.4298C4.65108 14.4735 4.57636 14.4969 4.49981 14.4969C4.42326 14.4969 4.34854 14.4735 4.2857 14.4298C4.22285 14.3861 4.17489 14.3242 4.14825 14.2524C4.04288 13.9678 3.87038 13.9348 3.75 13.9348Z" fill="#00BFD6"/>
<path d="M9.375 16.1848C9.31328 16.1848 9.25251 16.1696 9.19808 16.1404C9.14366 16.1113 9.09726 16.0692 9.063 16.0179L8.42438 15.0598H7.125V14.3098H8.625C8.68672 14.3098 8.74749 14.325 8.80192 14.3541C8.85634 14.3832 8.90274 14.4253 8.937 14.4766L9.3285 15.0643L10.1644 13.3921C10.1937 13.3333 10.238 13.2833 10.2928 13.247C10.3476 13.2107 10.4109 13.1894 10.4765 13.1853C10.5421 13.1812 10.6076 13.1944 10.6665 13.2236C10.7254 13.2528 10.7756 13.297 10.812 13.3516L11.4506 14.3098H13.5V15.0598H11.25C11.1883 15.0598 11.1275 15.0446 11.0731 15.0154C11.0187 14.9863 10.9723 14.9442 10.938 14.8929L10.5465 14.3053L9.7125 15.9774C9.68311 16.0362 9.63878 16.0862 9.58395 16.1225C9.52913 16.1588 9.46573 16.18 9.40012 16.184L9.375 16.1848Z" fill="#00BFD6"/>
<path d="M10.875 4.55981H14.625V5.30981H10.875V4.55981Z" fill="#00BFD6"/>
<path d="M10.875 6.80981H14.625V7.55981H10.875V6.80981Z" fill="#00BFD6"/>
<path d="M10.875 9.05981H14.625V9.80981H10.875V9.05981Z" fill="#00BFD6"/>
<path d="M10.875 11.3098H14.625V12.0598H10.875V11.3098Z" fill="#00BFD6"/>
<path d="M9.375 6.80981H10.125V7.55981H9.375V6.80981Z" fill="#00BFD6"/>
<path d="M9.375 9.05981H10.125V9.80981H9.375V9.05981Z" fill="#00BFD6"/>
<path d="M9.375 11.3098H10.125V12.0598H9.375V11.3098Z" fill="#00BFD6"/>
<path d="M9.375 4.55981H10.125V5.30981H9.375V4.55981Z" fill="#00BFD6"/>
</g>
<defs>
<clipPath id="clip0_4548_12291">
<rect width="24" height="24" fill="white" transform="translate(0 0.0598145)"/>
</clipPath>
</defs>
</svg>
