<svg width="24" height="25" viewBox="0 0 24 25" fill="none" xmlns="http://www.w3.org/2000/svg">
<g clip-path="url(#clip0_4548_12262)">
<path d="M22.875 19.5598H1.125C0.826631 19.5598 0.540483 19.4413 0.329505 19.2303C0.118526 19.0193 0 18.7332 0 18.4348L0 1.93481C0 1.63645 0.118526 1.3503 0.329505 1.13932C0.540483 0.928341 0.826631 0.809814 1.125 0.809814L22.875 0.809814C23.1734 0.809814 23.4595 0.928341 23.6705 1.13932C23.8815 1.3503 24 1.63645 24 1.93481V18.4348C24 18.7332 23.8815 19.0193 23.6705 19.2303C23.4595 19.4413 23.1734 19.5598 22.875 19.5598ZM1.125 1.55981C1.02554 1.55981 0.930161 1.59932 0.859835 1.66965C0.789509 1.73998 0.75 1.83536 0.75 1.93481V18.4348C0.75 18.5343 0.789509 18.6297 0.859835 18.7C0.930161 18.7703 1.02554 18.8098 1.125 18.8098H22.875C22.9745 18.8098 23.0698 18.7703 23.1402 18.7C23.2105 18.6297 23.25 18.5343 23.25 18.4348V1.93481C23.25 1.83536 23.2105 1.73998 23.1402 1.66965C23.0698 1.59932 22.9745 1.55981 22.875 1.55981H1.125Z" fill="#576272"/>
<path d="M15 21.8098H9C8.90054 21.8098 8.80516 21.7703 8.73483 21.7C8.66451 21.6297 8.625 21.5343 8.625 21.4348V19.1848C8.625 19.0854 8.66451 18.99 8.73483 18.9196C8.80516 18.8493 8.90054 18.8098 9 18.8098H15C15.0995 18.8098 15.1948 18.8493 15.2652 18.9196C15.3355 18.99 15.375 19.0854 15.375 19.1848V21.4348C15.375 21.5343 15.3355 21.6297 15.2652 21.7C15.1948 21.7703 15.0995 21.8098 15 21.8098ZM9.375 21.0598H14.625V19.5598H9.375V21.0598Z" fill="#576272"/>
<path d="M17.8013 23.6278L14.8924 21.8098H9.10764L6.19877 23.6278L5.80127 22.9903L8.80127 21.1153C8.86103 21.0786 8.92988 21.0594 9.00002 21.0598H15C15.0703 21.0598 15.1392 21.0796 15.1988 21.1168L18.1988 22.9918L17.8013 23.6278Z" fill="#576272"/>
<path d="M18.75 24.8098H5.25C5.15054 24.8098 5.05516 24.7703 4.98484 24.7C4.91451 24.6297 4.875 24.5343 4.875 24.4348V24.0598C4.875 23.7614 4.99353 23.4753 5.2045 23.2643C5.41548 23.0533 5.70163 22.9348 6 22.9348H18C18.2984 22.9348 18.5845 23.0533 18.7955 23.2643C19.0065 23.4753 19.125 23.7614 19.125 24.0598V24.4348C19.125 24.5343 19.0855 24.6297 19.0152 24.7C18.9448 24.7703 18.8495 24.8098 18.75 24.8098ZM5.625 24.0598H18.375C18.375 23.9604 18.3355 23.865 18.2652 23.7946C18.1948 23.7243 18.0995 23.6848 18 23.6848H6C5.90054 23.6848 5.80516 23.7243 5.73484 23.7946C5.66451 23.865 5.625 23.9604 5.625 24.0598Z" fill="#576272"/>
<path d="M1.125 4.18481H1.875V4.93481H1.125V4.18481Z" fill="#576272"/>
<path d="M22.5 18.4348H1.5C1.40054 18.4348 1.30516 18.3953 1.23483 18.325C1.16451 18.2547 1.125 18.1593 1.125 18.0598V5.68481H1.875V17.6848H22.125V16.9348H22.875V18.0598C22.875 18.1593 22.8355 18.2547 22.7652 18.325C22.6948 18.3953 22.5995 18.4348 22.5 18.4348Z" fill="#576272"/>
<path d="M22.875 16.1848H22.125V2.68481H1.875V3.43481H1.125V2.30981C1.125 2.21036 1.16451 2.11498 1.23483 2.04465C1.30516 1.97432 1.40054 1.93481 1.5 1.93481H22.5C22.5995 1.93481 22.6948 1.97432 22.7652 2.04465C22.8355 2.11498 22.875 2.21036 22.875 2.30981V16.1848Z" fill="#576272"/>
<path d="M18.375 6.43482C18.0783 6.43482 17.7883 6.34684 17.5416 6.18202C17.295 6.0172 17.1027 5.78293 16.9892 5.50884C16.8756 5.23475 16.8459 4.93315 16.9038 4.64218C16.9617 4.35121 17.1046 4.08393 17.3143 3.87415C17.5241 3.66438 17.7914 3.52152 18.0824 3.46364C18.3733 3.40576 18.6749 3.43546 18.949 3.549C19.2231 3.66253 19.4574 3.85479 19.6222 4.10146C19.787 4.34813 19.875 4.63814 19.875 4.93482C19.875 5.33264 19.717 5.71417 19.4357 5.99548C19.1544 6.27678 18.7728 6.43482 18.375 6.43482ZM18.375 4.18482C18.2267 4.18482 18.0817 4.2288 17.9583 4.31121C17.835 4.39362 17.7389 4.51076 17.6821 4.6478C17.6253 4.78485 17.6105 4.93565 17.6394 5.08113C17.6684 5.22662 17.7398 5.36026 17.8447 5.46515C17.9496 5.57003 18.0832 5.64147 18.2287 5.6704C18.3742 5.69934 18.525 5.68449 18.662 5.62772C18.7991 5.57096 18.9162 5.47483 18.9986 5.35149C19.081 5.22816 19.125 5.08315 19.125 4.93482C19.125 4.7359 19.046 4.54514 18.9053 4.40449C18.7647 4.26383 18.5739 4.18482 18.375 4.18482Z" fill="#576272"/>
<path d="M19.1082 16.1848C18.9441 16.1854 18.7843 16.1332 18.6523 16.0358C18.5202 15.9385 18.423 15.8013 18.375 15.6444C18.3211 15.82 18.206 15.9704 18.0506 16.0683C17.8952 16.1662 17.7098 16.2051 17.5281 16.1778C17.3465 16.1506 17.1807 16.059 17.0608 15.9199C16.941 15.7807 16.875 15.6031 16.875 15.4194V10.6536L16.7389 11.0683C16.6795 11.2458 16.5664 11.4004 16.4154 11.5108C16.2643 11.6213 16.0826 11.6821 15.8955 11.6848C15.7585 11.6847 15.6234 11.6525 15.5011 11.5909C15.3787 11.5292 15.2725 11.4398 15.1909 11.3297C15.1029 11.2121 15.0432 11.0757 15.0164 10.9313C14.9897 10.7868 14.9967 10.6381 15.0368 10.4968L15.7928 7.82006C15.8751 7.52675 16.0266 7.25746 16.2345 7.03481L16.2747 6.99206C16.6344 6.63657 17.1193 6.43647 17.625 6.43481H19.125C19.6306 6.43655 20.1153 6.63649 20.475 6.99169L20.5163 7.03631C20.7239 7.25839 20.8753 7.52703 20.9577 7.81969L21.7125 10.4968C21.7527 10.6381 21.7596 10.7868 21.7329 10.9313C21.7062 11.0757 21.6464 11.2121 21.5584 11.3297C21.4769 11.4397 21.3708 11.5291 21.2486 11.5907C21.1264 11.6524 20.9914 11.6846 20.8545 11.6848C20.6688 11.6825 20.4883 11.6228 20.3378 11.5138C20.1873 11.4048 20.0743 11.252 20.0142 11.0762L19.875 10.6532V15.4179C19.8748 15.6213 19.794 15.8162 19.6502 15.96C19.5064 16.1038 19.3115 16.1846 19.1082 16.1848ZM18.375 10.9348C18.4693 10.9345 18.5603 10.9697 18.6298 11.0334C18.6993 11.0972 18.7422 11.1847 18.75 11.2787L19.0924 15.4224L19.125 8.30981C19.1251 8.22064 19.1568 8.1344 19.2147 8.06655C19.2726 7.99871 19.3527 7.95371 19.4408 7.93962C19.5288 7.92553 19.619 7.94328 19.6952 7.98968C19.7713 8.03608 19.8284 8.1081 19.8563 8.19281L20.724 10.8343C20.7331 10.8623 20.7505 10.8868 20.7737 10.9047C20.797 10.9227 20.8252 10.9332 20.8545 10.9348C20.8756 10.9343 20.8962 10.9289 20.9147 10.9189C20.9332 10.909 20.9491 10.8947 20.961 10.8774C20.9793 10.8523 20.9916 10.8233 20.997 10.7927C21.0024 10.7621 21.0007 10.7307 20.9922 10.7008L20.2358 8.02406C20.186 7.84694 20.0946 7.68429 19.9692 7.54969L19.9283 7.50544C19.7106 7.30096 19.4237 7.18641 19.125 7.18481H17.625C17.326 7.18647 17.0388 7.30129 16.821 7.50619L16.7813 7.54894C16.6556 7.68389 16.5641 7.84692 16.5143 8.02444L15.7579 10.7008C15.7494 10.7307 15.7477 10.7621 15.7531 10.7927C15.7585 10.8233 15.7708 10.8523 15.789 10.8774C15.8064 10.8945 15.8276 10.907 15.851 10.9138C15.8743 10.9206 15.899 10.9216 15.9228 10.9165C15.9465 10.9115 15.9687 10.9006 15.9872 10.8849C16.0058 10.8691 16.0201 10.8491 16.029 10.8264L16.8938 8.19281C16.9216 8.1081 16.9787 8.03608 17.0549 7.98968C17.131 7.94328 17.2212 7.92553 17.3093 7.93962C17.3973 7.95371 17.4775 7.99871 17.5353 8.06655C17.5932 8.1344 17.625 8.22064 17.625 8.30981V15.4179L18 11.2787C18.0079 11.1847 18.0508 11.0972 18.1203 11.0334C18.1898 10.9697 18.2807 10.9345 18.375 10.9348Z" fill="#576272"/>
<path d="M3.37501 13.1848H2.62501V11.3983C2.62432 11.1893 2.6822 10.9842 2.79209 10.8064C2.90198 10.6286 3.05949 10.4851 3.24676 10.3922L5.41763 9.30656C5.48008 9.27565 5.53261 9.22785 5.56926 9.1686C5.60592 9.10934 5.62523 9.04099 5.62501 8.97131V7.64831C5.62523 7.57864 5.60592 7.51029 5.56926 7.45103C5.53261 7.39177 5.48008 7.34398 5.41763 7.31306L3.24676 6.22744C3.05949 6.13455 2.90198 5.99106 2.79209 5.81323C2.6822 5.63541 2.62432 5.43035 2.62501 5.22131V3.43481H3.37501V5.22131C3.37478 5.29099 3.39409 5.35934 3.43075 5.4186C3.4674 5.47785 3.51994 5.52565 3.58238 5.55656L5.75326 6.64406C5.94024 6.73681 6.09755 6.88001 6.20742 7.05747C6.31729 7.23494 6.37534 7.43959 6.37501 7.64831V8.97131C6.37569 9.18035 6.31781 9.38541 6.20792 9.56323C6.09803 9.74106 5.94052 9.88455 5.75326 9.97744L3.58238 11.0631C3.51994 11.094 3.4674 11.1418 3.43075 11.201C3.39409 11.2603 3.37478 11.3286 3.37501 11.3983V13.1848Z" fill="#576272"/>
<path d="M6.37501 13.1848H5.62501V11.3983C5.62523 11.3286 5.60592 11.2603 5.56926 11.201C5.53261 11.1418 5.48008 11.094 5.41763 11.0631L3.24676 9.97744C3.05949 9.88455 2.90198 9.74106 2.79209 9.56323C2.6822 9.38541 2.62432 9.18035 2.62501 8.97131V7.64831C2.62432 7.43927 2.6822 7.23422 2.79209 7.0564C2.90198 6.87857 3.05949 6.73508 3.24676 6.64219L5.41763 5.55469C5.47979 5.52392 5.53213 5.47641 5.56877 5.41752C5.6054 5.35862 5.62488 5.29067 5.62501 5.22131V3.43481H6.37501V5.22131C6.37569 5.43035 6.31781 5.63541 6.20792 5.81323C6.09803 5.99106 5.94052 6.13455 5.75326 6.22744L3.58238 7.31306C3.51994 7.34398 3.4674 7.39177 3.43075 7.45103C3.39409 7.51029 3.37478 7.57864 3.37501 7.64831V8.97131C3.37478 9.04099 3.39409 9.10934 3.43075 9.1686C3.4674 9.22785 3.51994 9.27565 3.58238 9.30656L5.75326 10.3922C5.94052 10.4851 6.09803 10.6286 6.20792 10.8064C6.31781 10.9842 6.37569 11.1893 6.37501 11.3983V13.1848Z" fill="#576272"/>
<path d="M3 4.93481H6V5.68481H3V4.93481Z" fill="#576272"/>
<path d="M3 3.80981H6V4.55981H3V3.80981Z" fill="#576272"/>
<path d="M3 12.0598H6V12.8098H3V12.0598Z" fill="#576272"/>
<path d="M3 10.9348H6V11.6848H3V10.9348Z" fill="#576272"/>
<path d="M3 8.68481H6V9.43481H3V8.68481Z" fill="#576272"/>
<path d="M3 7.18481H6V7.93481H3V7.18481Z" fill="#576272"/>
<path d="M4.5 16.9348C4.19512 16.9348 2.625 16.256 2.625 14.9848C2.62567 14.8407 2.65581 14.6982 2.71356 14.5662C2.77131 14.4341 2.85545 14.3153 2.96082 14.2169C3.06618 14.1186 3.19054 14.0428 3.32626 13.9943C3.46197 13.9458 3.60617 13.9255 3.75 13.9348C4.0255 13.9299 4.29294 14.0279 4.5 14.2097C4.70706 14.0279 4.9745 13.9299 5.25 13.9348C5.39383 13.9255 5.53803 13.9458 5.67374 13.9943C5.80946 14.0428 5.93382 14.1186 6.03918 14.2169C6.14455 14.3153 6.22869 14.4341 6.28644 14.5662C6.34419 14.6982 6.37433 14.8407 6.375 14.9848C6.375 16.2223 4.95187 16.9348 4.5 16.9348ZM3.75 14.6848C3.68737 14.6848 3.375 14.699 3.375 14.9848C3.375 15.6527 4.29413 16.0959 4.51875 16.1777C4.7535 16.1139 5.625 15.6875 5.625 14.9848C5.625 14.699 5.31262 14.6848 5.25 14.6848C5.12963 14.6848 4.95713 14.7178 4.85138 15.0024C4.82474 15.0742 4.77677 15.1361 4.71393 15.1798C4.65108 15.2235 4.57636 15.2469 4.49981 15.2469C4.42326 15.2469 4.34854 15.2235 4.2857 15.1798C4.22285 15.1361 4.17489 15.0742 4.14825 15.0024C4.04288 14.7178 3.87038 14.6848 3.75 14.6848Z" fill="#576272"/>
<path d="M9.375 16.9348C9.31328 16.9348 9.25251 16.9196 9.19808 16.8904C9.14366 16.8613 9.09726 16.8192 9.063 16.7679L8.42438 15.8098H7.125V15.0598H8.625C8.68672 15.0598 8.74749 15.075 8.80192 15.1041C8.85634 15.1332 8.90274 15.1753 8.937 15.2266L9.3285 15.8143L10.1644 14.1421C10.1937 14.0833 10.238 14.0333 10.2928 13.997C10.3476 13.9607 10.4109 13.9394 10.4765 13.9353C10.5421 13.9312 10.6076 13.9444 10.6665 13.9736C10.7254 14.0028 10.7756 14.047 10.812 14.1016L11.4506 15.0598H13.5V15.8098H11.25C11.1883 15.8098 11.1275 15.7946 11.0731 15.7654C11.0187 15.7363 10.9723 15.6942 10.938 15.6429L10.5465 15.0553L9.7125 16.7274C9.68311 16.7862 9.63878 16.8362 9.58395 16.8725C9.52913 16.9088 9.46573 16.93 9.40012 16.934L9.375 16.9348Z" fill="#576272"/>
<path d="M10.875 5.30981H14.625V6.05981H10.875V5.30981Z" fill="#576272"/>
<path d="M10.875 7.55981H14.625V8.30981H10.875V7.55981Z" fill="#576272"/>
<path d="M10.875 9.80981H14.625V10.5598H10.875V9.80981Z" fill="#576272"/>
<path d="M10.875 12.0598H14.625V12.8098H10.875V12.0598Z" fill="#576272"/>
<path d="M9.375 7.55981H10.125V8.30981H9.375V7.55981Z" fill="#576272"/>
<path d="M9.375 9.80981H10.125V10.5598H9.375V9.80981Z" fill="#576272"/>
<path d="M9.375 12.0598H10.125V12.8098H9.375V12.0598Z" fill="#576272"/>
<path d="M9.375 5.30981H10.125V6.05981H9.375V5.30981Z" fill="#576272"/>
</g>
<defs>
<clipPath id="clip0_4548_12262">
<rect width="24" height="24" fill="white" transform="translate(0 0.809814)"/>
</clipPath>
</defs>
</svg>
