<svg width="24" height="24" viewBox="0 0 24 24" fill="none" xmlns="http://www.w3.org/2000/svg">
<g clip-path="url(#clip0_2818_56180)">
<path d="M19.0312 16.9219C18.6429 16.9219 18.3281 17.2367 18.3281 17.625V18.74L17.1278 19.9403C16.8532 20.2149 16.8532 20.6601 17.1278 20.9347C17.4024 21.2093 17.8476 21.2093 18.1222 20.9347L19.5284 19.5285C19.6603 19.3965 19.7344 19.2177 19.7344 19.0312V17.625C19.7344 17.2367 19.4195 16.9219 19.0312 16.9219Z" fill="#00BFD6"/>
<path d="M17.6249 8.48438H14.8124C14.4241 8.48438 14.1093 8.79919 14.1093 9.1875V12C14.1093 12.3883 14.4241 12.7031 14.8124 12.7031H17.6249C18.0133 12.7031 18.3281 12.3883 18.3281 12V9.1875C18.3281 8.79919 18.0133 8.48438 17.6249 8.48438ZM16.9218 11.2969H15.5156V9.89063H16.9218V11.2969Z" fill="#00BFD6"/>
<path d="M11.9999 14.1093H9.18744C8.79913 14.1093 8.48431 14.4242 8.48431 14.8125V17.625C8.48431 18.0133 8.79913 18.3281 9.18744 18.3281H11.9999C12.3883 18.3281 12.7031 18.0133 12.7031 17.625V14.8125C12.7031 14.4242 12.3883 14.1093 11.9999 14.1093ZM11.2968 16.9218H9.89056V15.5156H11.2968V16.9218Z" fill="#00BFD6"/>
<path d="M21.1406 14.5756V6.375V3.51562C21.1406 2.35252 20.1944 1.40625 19.0312 1.40625H18.2072C17.9169 0.587906 17.1354 0 16.2188 0C15.3021 0 14.5206 0.587906 14.2303 1.40625H6.95719C6.66694 0.587906 5.88539 0 4.96875 0C4.40836 0 3.87431 0.215484 3.46505 0.60675C3.22477 0.836484 3.04641 1.10916 2.93738 1.40625H2.10938C0.946266 1.40625 0 2.35252 0 3.51562V6.375V19.0312C0 20.1944 0.946266 21.1406 2.10938 21.1406H14.5756C15.3629 22.8286 17.064 24 19.0312 24C21.748 24 24 21.7574 24 19.0312C24 17.064 22.8286 15.3629 21.1406 14.5756ZM15.5156 2.10938C15.5156 1.72167 15.831 1.40625 16.2188 1.40625C16.6065 1.40625 16.9219 1.72167 16.9219 2.10938V2.8125H15.5156V2.10938ZM4.21875 2.10938C4.21875 1.7348 4.56923 1.40625 4.96875 1.40625C5.35645 1.40625 5.67188 1.72167 5.67188 2.10938V2.8125H4.21875V2.10938ZM1.40625 3.51562C1.40625 3.12792 1.72167 2.8125 2.10938 2.8125H2.8125V3.51562C2.8125 3.90394 3.12731 4.21875 3.51562 4.21875H6.375C6.76331 4.21875 7.07812 3.90394 7.07812 3.51562V2.8125H14.1094V3.51562C14.1094 3.90394 14.4242 4.21875 14.8125 4.21875H17.625C18.0133 4.21875 18.3281 3.90394 18.3281 3.51562V2.8125H19.0312C19.419 2.8125 19.7344 3.12792 19.7344 3.51562V5.67188H1.40625V3.51562ZM14.1589 19.7344H2.10938C1.72167 19.7344 1.40625 19.419 1.40625 19.0312V7.07812H19.7344V14.1589C19.5046 14.1265 19.2699 14.1094 19.0312 14.1094C16.3173 14.1094 14.1094 16.3173 14.1094 19.0312C14.1094 19.2699 14.1265 19.5046 14.1589 19.7344ZM19.0312 22.5938C17.0731 22.5938 15.5156 20.9729 15.5156 19.0312C15.5156 17.0927 17.0927 15.5156 19.0312 15.5156C20.9791 15.5156 22.5938 17.0781 22.5938 19.0312C22.5938 20.9623 20.9623 22.5938 19.0312 22.5938Z" fill="#00BFD6"/>
<path d="M6.375 8.48438H3.51562C3.12731 8.48438 2.8125 8.79919 2.8125 9.1875V12C2.8125 12.3883 3.12731 12.7031 3.51562 12.7031H6.375C6.76331 12.7031 7.07812 12.3883 7.07812 12V9.1875C7.07812 8.79919 6.76331 8.48438 6.375 8.48438ZM5.67188 11.2969H4.21875V9.89063H5.67188V11.2969Z" fill="#00BFD6"/>
<path d="M6.375 14.1093H3.51562C3.12731 14.1093 2.8125 14.4242 2.8125 14.8125V17.625C2.8125 18.0133 3.12731 18.3281 3.51562 18.3281H6.375C6.76331 18.3281 7.07812 18.0133 7.07812 17.625V14.8125C7.07812 14.4242 6.76331 14.1093 6.375 14.1093ZM5.67188 16.9218H4.21875V15.5156H5.67188V16.9218Z" fill="#00BFD6"/>
<path d="M11.9999 8.48438H9.18744C8.79913 8.48438 8.48431 8.79919 8.48431 9.1875V12C8.48431 12.3883 8.79913 12.7031 9.18744 12.7031H11.9999C12.3883 12.7031 12.7031 12.3883 12.7031 12V9.1875C12.7031 8.79919 12.3883 8.48438 11.9999 8.48438ZM11.2968 11.2969H9.89056V9.89063H11.2968V11.2969Z" fill="#00BFD6"/>
</g>
<defs>
<clipPath id="clip0_2818_56180">
<rect width="24" height="24" fill="white"/>
</clipPath>
</defs>
</svg>
