<svg width="14" height="24" viewBox="0 0 14 24" fill="none" xmlns="http://www.w3.org/2000/svg">
<path d="M11.6039 16.9108C13.0631 15.7689 14.0026 13.9922 14.0026 12C14.0026 10.0077 13.063 8.23092 11.6037 7.08909C11.8697 6.88092 12.1195 6.65166 12.349 6.40308C12.4807 6.26044 12.4718 6.03797 12.3291 5.9063C12.1865 5.77462 11.9641 5.78348 11.8324 5.92613C11.5786 6.201 11.2972 6.44944 10.9942 6.66773C10.568 6.40903 10.1085 6.19992 9.62371 6.04861C11.0644 5.35566 12.0611 3.88144 12.0611 2.17875V1.32234C12.0611 0.980906 12.3389 0.703125 12.6803 0.703125C13.0218 0.703125 13.2996 0.980906 13.2996 1.32234V2.17875C13.2996 3.11578 13.0598 4.04203 12.6062 4.85742C12.5118 5.02711 12.5729 5.24119 12.7425 5.33555C12.9122 5.42986 13.1263 5.36888 13.2207 5.19923C14.0535 3.70205 14.0026 2.49033 14.0026 1.32234C14.0026 0.593203 13.4094 0 12.6803 0C11.9862 0 11.3579 0.547359 11.3579 1.35155H2.64196C2.64196 0.551344 2.01749 0 1.31966 0C0.590571 0 -0.00263145 0.593156 -0.00263145 1.32225C-0.00263145 2.23922 -0.00938147 2.40164 0.0247435 2.7652C0.0428842 2.95852 0.214306 3.10064 0.407572 3.08241C0.600884 3.06427 0.742915 2.89289 0.724775 2.69958C0.694165 2.37347 0.700447 2.2402 0.700447 1.3223C0.700447 0.980906 0.978181 0.703172 1.31962 0.703172C1.66101 0.703172 1.93874 0.980906 1.93874 1.3223V2.1787C1.93874 4.54505 3.8639 6.47025 6.23024 6.47025H7.76962C10.8187 6.47025 13.2994 8.95092 13.2994 12C13.2994 15.0492 10.8187 17.5298 7.76962 17.5298C6.14887 17.5298 5.67037 17.4775 4.84696 17.7586C4.41206 17.907 4.62815 18.5765 5.07412 18.424C5.77298 18.1854 6.14531 18.233 7.76962 18.233C8.9736 18.233 10.0402 18.8297 10.6914 19.7422H3.30702C3.49082 19.4847 3.70987 19.2494 3.96131 19.0436C4.11154 18.9206 4.13367 18.6991 4.01067 18.5489C3.88767 18.3986 3.66613 18.3765 3.51595 18.4995C2.51367 19.3199 1.93879 20.5307 1.93884 21.8214V22.6778C1.93884 23.0192 1.6611 23.2969 1.31971 23.2969C0.978322 23.2969 0.70054 23.0192 0.70054 22.6778V21.8214C0.70054 18.7723 3.18121 16.2916 6.23034 16.2916H7.76971C10.1361 16.2916 12.0612 14.3664 12.0612 12C12.0612 9.63366 10.1361 7.7085 7.76971 7.7085C6.06792 7.7085 4.78509 7.84397 3.19607 6.79987C3.19373 6.79828 3.19138 6.79659 3.18904 6.79505C2.19496 6.13969 1.41346 5.16609 1.00429 3.98761C0.940634 3.80419 0.740431 3.70702 0.556868 3.77081C0.373447 3.83447 0.276368 4.03481 0.340072 4.21823C0.743806 5.38116 1.46957 6.36666 2.39592 7.0898C0.885697 8.26945 -0.0026783 10.07 -0.0026783 12C-0.0026783 13.9303 0.885837 15.7309 2.39624 16.9105C0.936978 18.0524 -0.00263145 19.8292 -0.00263145 21.8214V22.6778C-0.00263145 23.4069 0.590524 24 1.31966 24C2.04881 24 2.64192 23.4069 2.64192 22.6778V22.6485H11.3579V22.6777C11.3579 23.4069 11.9511 24.0001 12.6803 24.0001C13.4094 24.0001 14.0026 23.4069 14.0026 22.6777V21.8213C14.0027 19.8911 13.1142 18.0905 11.6039 16.9108ZM2.91674 3.55467C2.69048 3.01181 2.64196 2.55769 2.64196 2.05467H11.358C11.358 2.54391 11.3148 2.99911 11.0832 3.55467H2.91674ZM6.22973 5.76708C5.02593 5.76689 3.95957 5.17022 3.30848 4.25784H10.6915C10.0403 5.17036 8.9737 5.76703 7.76971 5.76703C7.71651 5.76703 6.18145 5.76708 6.22973 5.76708ZM7.77149 15.5884C7.77088 15.5884 7.77027 15.5883 7.76967 15.5883H6.23029C5.35059 15.5883 4.54429 15.2695 3.91949 14.7422H10.0807C9.45627 15.2692 8.65059 15.5879 7.77149 15.5884ZM10.7201 14.0391H3.28007C2.94126 13.5503 2.72034 12.9742 2.65949 12.3516H11.3407C11.2798 12.9742 11.0589 13.5503 10.7201 14.0391ZM11.3406 11.6484H2.65949C2.72034 11.0258 2.94126 10.4497 3.28007 9.96094H10.7201C11.0589 10.4497 11.2798 11.0258 11.3406 11.6484ZM7.77149 8.41162C8.65059 8.41205 9.45627 8.73075 10.0806 9.25781H3.91954C4.54434 8.73047 5.35063 8.41172 6.23034 8.41172C8.41045 8.41172 7.57312 8.41162 7.77149 8.41162ZM0.700494 12C0.700494 10.2139 1.5584 8.55244 3.00595 7.51083C3.43476 7.77042 3.89573 7.97817 4.37901 8.12892C2.93695 8.82136 1.93893 10.2963 1.93893 12C1.93893 13.7027 2.93577 15.177 4.37648 15.8699C3.89165 16.0213 3.43209 16.2304 3.00581 16.4891C1.55831 15.4475 0.700494 13.7861 0.700494 12ZM2.64196 21.9453C2.64196 21.4528 2.68635 20.9977 2.91618 20.4453H11.0833C11.3113 20.9924 11.358 21.448 11.358 21.9453H2.64196ZM13.2996 22.6777C13.2996 23.0191 13.0218 23.2969 12.6803 23.2969C12.3389 23.2969 12.0611 23.0191 12.0611 22.6777V21.8212C12.0611 20.1186 11.0643 18.6444 9.62371 17.9514C10.1085 17.8 10.5681 17.5909 10.9943 17.3322C12.4417 18.3738 13.2996 20.0352 13.2996 21.8212V22.6777Z" fill="#37474F"/>
</svg>
