<svg width="24" height="25" viewBox="0 0 24 25" fill="none" xmlns="http://www.w3.org/2000/svg">
<circle cx="11.999" cy="12.1399" r="12" fill="#E8FAFC"/>
<path fill-rule="evenodd" clip-rule="evenodd" d="M12.3438 7.08937C12.1258 6.88242 11.8579 6.89744 11.6448 7.09837L9.35153 9.39159C9.25857 9.48571 9.20663 9.61278 9.20704 9.74506C9.20746 9.87734 9.26019 10.0041 9.35372 10.0976C9.44726 10.1912 9.574 10.2439 9.70628 10.2443C9.83856 10.2447 9.96563 10.1928 10.0597 10.0998L11.4981 8.66144V15.6249L10.0597 14.1866C10.0132 14.1401 9.95804 14.1032 9.89728 14.078C9.83653 14.0528 9.77141 14.0399 9.70564 14.0399C9.63988 14.0399 9.57476 14.0528 9.51401 14.078C9.45325 14.1032 9.39804 14.1401 9.35154 14.1866C9.30504 14.2331 9.26815 14.2883 9.24298 14.349C9.21782 14.4098 9.20486 14.4749 9.20486 14.5407C9.20486 14.6735 9.25761 14.8008 9.35153 14.8948L11.5101 17.0534C11.7844 17.3277 12.024 17.5052 12.353 17.1881L14.6462 14.8948C14.7401 14.8009 14.7929 14.6735 14.7929 14.5407C14.7929 14.4079 14.7401 14.2805 14.6462 14.1866C14.5523 14.0927 14.4249 14.0399 14.2921 14.0399C14.1593 14.0399 14.0319 14.0927 13.938 14.1866L12.4997 15.6249V8.66147L13.938 10.0998C13.9844 10.1468 14.0396 10.1841 14.1005 10.2097C14.1614 10.2352 14.2267 10.2485 14.2928 10.2487C14.3588 10.2489 14.4242 10.236 14.4852 10.2109C14.5463 10.1857 14.6017 10.1487 14.6484 10.102C14.6951 10.0553 14.7321 9.99987 14.7573 9.93883C14.7825 9.87779 14.7953 9.81237 14.7951 9.74635C14.7949 9.68032 14.7816 9.61499 14.7561 9.5541C14.7305 9.49322 14.6932 9.43799 14.6462 9.39159C13.8862 8.6316 13.1202 7.82649 12.3438 7.08937ZM8.89801 5.94153H15.0997C15.2326 5.94153 15.3599 5.88877 15.4539 5.79485C15.5478 5.70093 15.6005 5.57355 15.6005 5.44074C15.6005 5.30792 15.5478 5.18054 15.4539 5.08662C15.3599 4.9927 15.2326 4.93994 15.0997 4.93994H8.89801C8.76519 4.93994 8.63781 4.9927 8.5439 5.08662C8.44998 5.18054 8.39722 5.30792 8.39722 5.44074C8.39722 5.57355 8.44998 5.70093 8.5439 5.79485C8.63781 5.88877 8.76519 5.94153 8.89801 5.94153ZM15.0997 18.3384H8.89801C8.76585 18.3394 8.63943 18.3926 8.54632 18.4864C8.45322 18.5802 8.40097 18.707 8.40097 18.8392C8.40097 18.9713 8.45322 19.0981 8.54632 19.1919C8.63943 19.2858 8.76585 19.339 8.89801 19.3399H15.0997C15.2319 19.339 15.3583 19.2858 15.4514 19.1919C15.5445 19.0981 15.5968 18.9713 15.5968 18.8392C15.5968 18.707 15.5445 18.5802 15.4514 18.4864C15.3583 18.3926 15.2319 18.3394 15.0997 18.3384Z" fill="#3C678C"/>
</svg>
