<svg width="24" height="24" viewBox="0 0 24 24" fill="none" xmlns="http://www.w3.org/2000/svg">
<g clip-path="url(#clip0_2835_44405)">
<path d="M6.05746 21.8495H0.344727V3.78385L4.12038 0H17.7866V1.91245H16.7852V1.00137H4.53898L1.3379 4.19425V20.8482H6.05746V21.8495Z" fill="#64748B"/>
<path d="M4.82629 4.98221H0.344727V3.98908H3.83312V0.500687H4.82629V4.98221Z" fill="#64748B"/>
<path d="M5.32697 5.98357H11.3023V6.97674H5.32697V5.98357Z" fill="#64748B"/>
<path d="M5.32697 7.9781H11.3023V8.97127H5.32697V7.9781Z" fill="#64748B"/>
<path d="M5.32697 9.96444H9.31604V10.9576H5.32697V9.96444Z" fill="#64748B"/>
<path d="M3.33246 6.48015C3.33246 6.20589 3.55479 5.98357 3.82904 5.98357C4.1033 5.98357 4.32563 6.20589 4.32563 6.48015C4.32563 6.75441 4.1033 6.97674 3.82904 6.97674C3.55479 6.97674 3.33246 6.75441 3.33246 6.48015Z" fill="#64748B"/>
<path d="M3.33246 8.47469C3.33246 8.20043 3.55479 7.9781 3.82904 7.9781C4.1033 7.9781 4.32563 8.20043 4.32563 8.47469C4.32563 8.74894 4.1033 8.97127 3.82904 8.97127C3.55479 8.97127 3.33246 8.74894 3.33246 8.47469Z" fill="#64748B"/>
<path d="M3.33246 10.461C3.33246 10.1868 3.55479 9.96444 3.82904 9.96444C4.1033 9.96444 4.32563 10.1868 4.32563 10.461C4.32563 10.7353 4.1033 10.9576 3.82904 10.9576C3.55479 10.9576 3.33246 10.7353 3.33246 10.461Z" fill="#64748B"/>
<path d="M12.4432 16.0465L9.00409 12.5992L18.8372 2.75786L22.2763 6.19699L19.7647 8.8892L19.0342 8.20796L20.8892 6.22162L18.8372 4.16963L10.4077 12.5992L12.4432 14.6348L15.8742 11.2284L16.5718 11.9344L12.4432 16.0465Z" fill="#64748B"/>
<path d="M10.6211 16.9576L8.09302 14.4296L10.1696 12.353L12.6977 14.881L10.6211 16.9576ZM9.49659 14.4296L10.6211 15.554L11.2859 14.8892L10.1615 13.7647L9.49659 14.4296Z" fill="#64748B"/>
<path d="M17.5761 2.90793L18.2783 2.20576L22.8452 6.77268L22.143 7.47485L17.5761 2.90793Z" fill="#64748B"/>
<path d="M21.1272 6.45143L18.5992 3.92338L21.1272 1.39534L23.6553 3.92338L21.1272 6.45143ZM20.0027 3.92338L21.1272 5.04785L22.2517 3.92338L21.1272 2.79892L20.0027 3.92338Z" fill="#64748B"/>
<path d="M17.8441 12.6567C17.1382 12.6567 16.4323 12.3858 15.8906 11.8523C14.8154 10.777 14.8154 9.02873 15.8906 7.95352C16.9659 6.87827 18.7141 6.87827 19.7894 7.95352C20.8646 9.02877 20.8646 10.7771 19.7894 11.8523C19.2558 12.394 18.5499 12.6567 17.8441 12.6567ZM17.8441 8.14227C17.3927 8.14227 16.9412 8.31463 16.5965 8.65938C15.907 9.34886 15.907 10.4651 16.5965 11.1546C17.2859 11.8441 18.4022 11.8441 19.0917 11.1546C19.7812 10.4651 19.7812 9.34886 19.0917 8.65938C18.7469 8.31463 18.2955 8.14227 17.8441 8.14227Z" fill="#64748B"/>
<path d="M18.9029 24H7.44458V22.5061C7.44458 21.9562 7.88781 21.513 8.43775 21.513H17.9097C18.4596 21.513 18.9029 21.9562 18.9029 22.5061V24ZM8.43775 22.9986H17.9097V22.4979H8.43775V22.9986Z" fill="#64748B"/>
<path d="M12.8454 20.9713C11.8523 20.5362 10.974 19.855 10.301 19.0014L11.0889 18.3858C11.6552 19.1163 12.4022 19.6908 13.2394 20.052L12.8454 20.9713Z" fill="#64748B"/>
<path d="M17.3516 21.2093L17.0561 20.2572C19.3543 19.5431 20.8974 17.4337 20.8974 15.0288C20.8974 13.5677 20.3311 12.1888 19.2886 11.1546L19.9945 10.4487C21.2175 11.6717 21.8905 13.2969 21.8905 15.0288C21.8906 17.8769 20.0684 20.3639 17.3516 21.2093Z" fill="#64748B"/>
<path d="M17.9097 22.2517H16.9165V21.2585C16.9165 20.2982 16.1368 19.5184 15.1764 19.5184C14.2161 19.5184 13.4363 20.2982 13.4363 21.2585V22.2517H12.4432V21.2585C12.4432 19.7483 13.6744 18.5171 15.1846 18.5171C16.6949 18.5171 17.9261 19.7483 17.9261 21.2585V22.2517H17.9097Z" fill="#64748B"/>
<path d="M6.94391 18.0164H12.4268V19.0096H6.94391V18.0164Z" fill="#64748B"/>
</g>
<defs>
<clipPath id="clip0_2835_44405">
<rect width="24" height="24" fill="white"/>
</clipPath>
</defs>
</svg>
