<?xml version="1.0" encoding="UTF-8"?>
<!DOCTYPE svg PUBLIC "-//W3C//DTD SVG 1.1//EN" "http://www.w3.org/Graphics/SVG/1.1/DTD/svg11.dtd">
<svg xmlns="http://www.w3.org/2000/svg" version="1.1" width="35px" height="35px" style="shape-rendering:geometricPrecision; text-rendering:geometricPrecision; image-rendering:optimizeQuality; fill-rule:evenodd; clip-rule:evenodd" xmlns:xlink="http://www.w3.org/1999/xlink">
<g><path style="opacity:0.942" fill="#15636a" d="M 23.5,15.5 C 23.5,14.8333 23.1667,14.5 22.5,14.5C 22.5,14.1667 22.5,13.8333 22.5,13.5C 22.5,12.8333 22.5,12.1667 22.5,11.5C 22.5,10.8333 22.1667,10.5 21.5,10.5C 20.791,9.59603 19.791,9.26269 18.5,9.5C 17.5084,9.67158 16.8417,9.33825 16.5,8.5C 19.5673,4.90113 23.2339,2.40113 27.5,1C 28.2931,2.08524 28.9598,3.2519 29.5,4.5C 28.1851,6.31585 26.6851,7.98252 25,9.5C 24.8091,11.7078 24.3091,13.7078 23.5,15.5 Z"/></g>
<g><path style="opacity:0.974" fill="#15646a" d="M 16.5,8.5 C 16.8417,9.33825 17.5084,9.67158 18.5,9.5C 18.5,9.83333 18.5,10.1667 18.5,10.5C 17.8333,10.5 17.5,10.8333 17.5,11.5C 16.6618,11.8417 16.3284,12.5084 16.5,13.5C 16.4431,14.609 16.1098,15.609 15.5,16.5C 14.4264,17.8846 13.0931,19.0513 11.5,20C 12.2524,20.6708 12.5858,21.5041 12.5,22.5C 11.8333,22.5 11.5,22.8333 11.5,23.5C 10.8333,23.5 10.1667,23.5 9.5,23.5C 9.5,23.1667 9.5,22.8333 9.5,22.5C 9.41423,21.5041 9.74756,20.6708 10.5,20C 8.84552,19.3923 7.17885,18.8923 5.5,18.5C 4.2035,17.1512 4.37017,15.8179 6,14.5C 6.66667,15.1667 7.33333,15.8333 8,16.5C 10.1143,13.0337 12.9477,10.3671 16.5,8.5 Z"/></g>
<g><path style="opacity:0.867" fill="#0ea756" d="M 18.5,10.5 C 19.5,10.5 20.5,10.5 21.5,10.5C 22.1667,10.5 22.5,10.8333 22.5,11.5C 22.5,12.1667 22.5,12.8333 22.5,13.5C 21.8333,13.5 21.5,13.8333 21.5,14.5C 20.5,14.5 19.5,14.5 18.5,14.5C 18.5,13.8333 18.1667,13.5 17.5,13.5C 17.5,12.8333 17.5,12.1667 17.5,11.5C 18.1667,11.5 18.5,11.1667 18.5,10.5 Z"/></g>
<g><path style="opacity:0.974" fill="#15636a" d="M 16.5,13.5 C 16.8333,13.5 17.1667,13.5 17.5,13.5C 18.1667,13.5 18.5,13.8333 18.5,14.5C 19.5,15.8333 20.5,15.8333 21.5,14.5C 21.8333,14.5 22.1667,14.5 22.5,14.5C 23.1667,14.5 23.5,14.8333 23.5,15.5C 23.7564,17.7925 23.4231,19.9592 22.5,22C 24.5542,25.4984 26.2209,29.1651 27.5,33C 21.1405,33.8306 14.8072,33.6639 8.5,32.5C 8.70931,31.914 9.04265,31.414 9.5,31C 4.84027,27.8476 3.50694,23.6809 5.5,18.5C 7.17885,18.8923 8.84552,19.3923 10.5,20C 9.74756,20.6708 9.41423,21.5041 9.5,22.5C 8.16667,22.8333 8.16667,23.1667 9.5,23.5C 10.1667,26.1667 10.8333,26.1667 11.5,23.5C 12.1667,23.5 12.5,23.1667 12.5,22.5C 14.1417,20.9192 16.1417,20.2525 18.5,20.5C 18.9118,18.0274 17.9118,16.6941 15.5,16.5C 16.1098,15.609 16.4431,14.609 16.5,13.5 Z M 9.5,23.5 C 10.1667,23.5 10.8333,23.5 11.5,23.5C 10.8333,26.1667 10.1667,26.1667 9.5,23.5 Z"/></g>
<g><path style="opacity:0.805" fill="#0ea757" d="M 16.5,24.5 C 17.1667,24.5 17.8333,24.5 18.5,24.5C 18.5,25.1667 18.8333,25.5 19.5,25.5C 19.5,26.1667 19.8333,26.5 20.5,26.5C 20.5,26.8333 20.5,27.1667 20.5,27.5C 19.6618,27.8417 19.3284,28.5084 19.5,29.5C 18.5,29.5 17.5,29.5 16.5,29.5C 16.5,28.8333 16.1667,28.5 15.5,28.5C 15.5,27.5 15.5,26.5 15.5,25.5C 16.1667,25.5 16.5,25.1667 16.5,24.5 Z"/></g>
</svg>
