<svg width="24" height="24" viewBox="0 0 24 24" fill="none" xmlns="http://www.w3.org/2000/svg">
<g clip-path="url(#clip0_2834_44236)">
<mask id="mask0_2834_44236" style="mask-type:luminance" maskUnits="userSpaceOnUse" x="0" y="0" width="24" height="24">
<path d="M0 1.90735e-06H24V24H0V1.90735e-06Z" fill="white"/>
</mask>
<g mask="url(#mask0_2834_44236)">
<path d="M12 17.6719C12 20.7785 9.48159 23.2969 6.375 23.2969C3.26841 23.2969 0.75 20.7785 0.75 17.6719C0.75 14.5653 3.26841 12.0469 6.375 12.0469C9.48159 12.0469 12 14.5653 12 17.6719Z" stroke="#00BFD6" stroke-width="1.52344" stroke-miterlimit="10" stroke-linecap="round" stroke-linejoin="round"/>
<path d="M6.375 23.2969H21.8438C22.6204 23.2969 23.25 22.6673 23.25 21.8906V5.39077L18.5627 0.703134H7.78125C7.00462 0.703134 6.375 1.33276 6.375 2.10938V12.0469" stroke="#00BFD6" stroke-width="1.52344" stroke-miterlimit="10" stroke-linecap="round" stroke-linejoin="round"/>
<path d="M18.5625 0.703133V5.39063H23.25L18.5625 0.703133Z" stroke="#00BFD6" stroke-width="1.52344" stroke-miterlimit="10" stroke-linecap="round" stroke-linejoin="round"/>
<path d="M10.0951 13.4531H19.9687" stroke="#00BFD6" stroke-width="1.52344" stroke-miterlimit="10" stroke-linecap="round" stroke-linejoin="round"/>
<path d="M9.65625 9.23438H19.9687" stroke="#00BFD6" stroke-width="1.52344" stroke-miterlimit="10" stroke-linecap="round" stroke-linejoin="round"/>
<path d="M12 17.6719H19.9687" stroke="#00BFD6" stroke-width="1.52344" stroke-miterlimit="10" stroke-linecap="round" stroke-linejoin="round"/>
<path d="M6.375 17.6719V14.8594" stroke="#00BFD6" stroke-width="1.52344" stroke-miterlimit="10" stroke-linecap="round" stroke-linejoin="round"/>
<path d="M6.375 17.6719H8.25" stroke="#00BFD6" stroke-width="1.52344" stroke-miterlimit="10" stroke-linecap="round" stroke-linejoin="round"/>
</g>
</g>
<defs>
<clipPath id="clip0_2834_44236">
<rect width="24" height="24" fill="white"/>
</clipPath>
</defs>
</svg>
