<?xml version="1.0" encoding="UTF-8"?>
<!DOCTYPE svg PUBLIC "-//W3C//DTD SVG 1.1//EN" "http://www.w3.org/Graphics/SVG/1.1/DTD/svg11.dtd">
<svg xmlns="http://www.w3.org/2000/svg" version="1.1" width="67px" height="87px" style="shape-rendering:geometricPrecision; text-rendering:geometricPrecision; image-rendering:optimizeQuality; fill-rule:evenodd; clip-rule:evenodd" xmlns:xlink="http://www.w3.org/1999/xlink">
<g><path style="opacity:0.896" fill="#c3c4c4" d="M 28.5,-0.5 C 31.1667,-0.5 33.8333,-0.5 36.5,-0.5C 39.6663,1.15398 41.333,3.82065 41.5,7.5C 44.7131,7.19 47.7131,7.52333 50.5,8.5C 49.6586,10.3792 49.3253,12.3792 49.5,14.5C 53.3714,14.185 57.0381,14.5184 60.5,15.5C 45.6715,16.5935 31.0048,16.5935 16.5,15.5C 16.5,15.1667 16.5,14.8333 16.5,14.5C 16.7406,12.1016 16.0739,10.1016 14.5,8.5C 17.2869,7.52333 20.2869,7.19 23.5,7.5C 23.667,3.82065 25.3337,1.15398 28.5,-0.5 Z M 30.5,4.5 C 32.9775,4.05078 34.9775,4.71745 36.5,6.5C 33.8938,7.65173 31.2272,7.8184 28.5,7C 29.3805,6.2917 30.0472,5.45837 30.5,4.5 Z"/></g>
<g><path style="opacity:1" fill="#16646b" d="M 14.5,8.5 C 16.0739,10.1016 16.7406,12.1016 16.5,14.5C 12.5,14.5 8.5,14.5 4.5,14.5C 4.5,36.8333 4.5,59.1667 4.5,81.5C 23.3408,81.8302 42.0075,81.4969 60.5,80.5C 60.5,58.8333 60.5,37.1667 60.5,15.5C 57.0381,14.5184 53.3714,14.185 49.5,14.5C 49.3253,12.3792 49.6586,10.3792 50.5,8.5C 54.5817,8.34355 58.5817,8.84355 62.5,10C 64.4687,11.4998 65.802,13.3331 66.5,15.5C 66.5,37.1667 66.5,58.8333 66.5,80.5C 65.5847,83.0857 63.918,85.0857 61.5,86.5C 42.1667,86.5 22.8333,86.5 3.5,86.5C 1.83333,85.5 0.5,84.1667 -0.5,82.5C -0.5,59.5 -0.5,36.5 -0.5,13.5C 3.46697,9.28817 8.46697,7.6215 14.5,8.5 Z"/></g>
<g><path style="opacity:1" fill="#b8cfd1" d="M 16.5,14.5 C 16.5,14.8333 16.5,15.1667 16.5,15.5C 12.351,14.9197 8.68431,15.5864 5.5,17.5C 5.5,34.8333 5.5,52.1667 5.5,69.5C 5.5,73.1667 5.5,76.8333 5.5,80.5C 23.8333,80.5 42.1667,80.5 60.5,80.5C 42.0075,81.4969 23.3408,81.8302 4.5,81.5C 4.5,59.1667 4.5,36.8333 4.5,14.5C 8.5,14.5 12.5,14.5 16.5,14.5 Z"/></g>
<g><path style="opacity:1" fill="#fefefe" d="M 5.5,17.5 C 22.8365,17.3334 40.1699,17.5001 57.5,18C 53.631,22.037 49.631,25.8704 45.5,29.5C 41.1936,19.6867 34.1936,17.1867 24.5,22C 17.1042,31.666 18.7708,39.4993 29.5,45.5C 28.8333,46.5 28.1667,47.5 27.5,48.5C 20.8002,48.17 14.1335,48.5033 7.5,49.5C 13.1278,50.4954 18.7945,50.8288 24.5,50.5C 23.5,51.8333 22.5,53.1667 21.5,54.5C 17.8333,54.5 14.1667,54.5 10.5,54.5C 9.56552,55.5676 9.23219,56.901 9.5,58.5C 11.8333,58.5 14.1667,58.5 16.5,58.5C 15.5,59.8333 14.5,61.1667 13.5,62.5C 12.1667,62.5 10.8333,62.5 9.5,62.5C 9.5,63.8333 9.5,65.1667 9.5,66.5C 8.16667,67.5 6.83333,68.5 5.5,69.5C 5.5,52.1667 5.5,34.8333 5.5,17.5 Z"/></g>
<g><path style="opacity:1" fill="#f5f8f8" d="M 16.5,15.5 C 31.0048,16.5935 45.6715,16.5935 60.5,15.5C 60.5,37.1667 60.5,58.8333 60.5,80.5C 42.1667,80.5 23.8333,80.5 5.5,80.5C 5.5,76.8333 5.5,73.1667 5.5,69.5C 6.83333,68.5 8.16667,67.5 9.5,66.5C 24.8333,66.5 40.1667,66.5 55.5,66.5C 55.5,65.1667 55.5,63.8333 55.5,62.5C 41.5,62.5 27.5,62.5 13.5,62.5C 14.5,61.1667 15.5,59.8333 16.5,58.5C 29.6774,58.8288 42.6774,58.4955 55.5,57.5C 55.5,56.5 55.5,55.5 55.5,54.5C 44.1667,54.5 32.8333,54.5 21.5,54.5C 22.5,53.1667 23.5,51.8333 24.5,50.5C 35.8529,50.8322 47.1862,50.4988 58.5,49.5C 48.1881,48.5014 37.8548,48.1681 27.5,48.5C 28.1667,47.5 28.8333,46.5 29.5,45.5C 40.5,45.8333 45.8333,40.5 45.5,29.5C 49.631,25.8704 53.631,22.037 57.5,18C 40.1699,17.5001 22.8365,17.3334 5.5,17.5C 8.68431,15.5864 12.351,14.9197 16.5,15.5 Z"/></g>
<g><path style="opacity:1" fill="#f5ecdc" d="M 45.5,29.5 C 45.8333,40.5 40.5,45.8333 29.5,45.5C 18.7708,39.4993 17.1042,31.666 24.5,22C 34.1936,17.1867 41.1936,19.6867 45.5,29.5 Z"/></g>
<g><path style="opacity:1" fill="#e3818c" d="M 35.5,24.5 C 33.8333,24.5 32.1667,24.5 30.5,24.5C 30.5,26.5 30.5,28.5 30.5,30.5C 28.1667,30.5 25.8333,30.5 23.5,30.5C 25.2646,29.5386 27.2646,29.2053 29.5,29.5C 29.5,27.5 29.5,25.5 29.5,23.5C 31.7354,23.2053 33.7354,23.5386 35.5,24.5 Z"/></g>
<g><path style="opacity:1" fill="#d84560" d="M 35.5,24.5 C 35.5,26.5 35.5,28.5 35.5,30.5C 37.5,30.5 39.5,30.5 41.5,30.5C 41.5,32.1667 41.5,33.8333 41.5,35.5C 39.5,35.5 37.5,35.5 35.5,35.5C 35.5,37.8333 35.5,40.1667 35.5,42.5C 33.5,42.5 31.5,42.5 29.5,42.5C 29.5,40.5 29.5,38.5 29.5,36.5C 27.5,36.5 25.5,36.5 23.5,36.5C 23.5,34.5 23.5,32.5 23.5,30.5C 25.8333,30.5 28.1667,30.5 30.5,30.5C 30.5,28.5 30.5,26.5 30.5,24.5C 32.1667,24.5 33.8333,24.5 35.5,24.5 Z"/></g>
<g><path style="opacity:1" fill="#bcbbbc" d="M 27.5,48.5 C 37.8548,48.1681 48.1881,48.5014 58.5,49.5C 47.1862,50.4988 35.8529,50.8322 24.5,50.5C 18.7945,50.8288 13.1278,50.4954 7.5,49.5C 14.1335,48.5033 20.8002,48.17 27.5,48.5 Z"/></g>
<g><path style="opacity:1" fill="#aaa8aa" d="M 10.5,54.5 C 14.1667,54.5 17.8333,54.5 21.5,54.5C 32.8333,54.5 44.1667,54.5 55.5,54.5C 55.5,55.5 55.5,56.5 55.5,57.5C 40.5,57.5 25.5,57.5 10.5,57.5C 10.5,56.5 10.5,55.5 10.5,54.5 Z"/></g>
<g><path style="opacity:1" fill="#cfcfd0" d="M 10.5,54.5 C 10.5,55.5 10.5,56.5 10.5,57.5C 25.5,57.5 40.5,57.5 55.5,57.5C 42.6774,58.4955 29.6774,58.8288 16.5,58.5C 14.1667,58.5 11.8333,58.5 9.5,58.5C 9.23219,56.901 9.56552,55.5676 10.5,54.5 Z"/></g>
<g><path style="opacity:1" fill="#c1c1c3" d="M 13.5,62.5 C 27.5,62.5 41.5,62.5 55.5,62.5C 55.5,63.8333 55.5,65.1667 55.5,66.5C 40.1667,66.5 24.8333,66.5 9.5,66.5C 9.5,65.1667 9.5,63.8333 9.5,62.5C 10.8333,62.5 12.1667,62.5 13.5,62.5 Z"/></g>
<g><path style="opacity:1" fill="#a7a5a7" d="M 10.5,63.5 C 25.1818,63.1674 39.8485,63.5007 54.5,64.5C 47.1667,64.8333 39.8333,65.1667 32.5,65.5C 24.8016,65.4974 17.4682,64.8307 10.5,63.5 Z"/></g>
<g><path style="opacity:1" fill="#b6b5b7" d="M 20.5,70.5 C 28.5,70.5 36.5,70.5 44.5,70.5C 44.5,71.8333 44.5,73.1667 44.5,74.5C 36.5,74.5 28.5,74.5 20.5,74.5C 20.5,73.1667 20.5,71.8333 20.5,70.5 Z"/></g>
</svg>
