<svg width="24" height="24" viewBox="0 0 24 24" fill="none" xmlns="http://www.w3.org/2000/svg">
<path d="M7.42356 6.68737V7.95122C7.42356 8.30022 7.70649 8.58315 8.05549 8.58315C8.40448 8.58315 8.68742 8.30022 8.68742 7.95122V6.68737H9.95127C10.3003 6.68737 10.5832 6.40443 10.5832 6.05544C10.5832 5.70644 10.3003 5.42351 9.95127 5.42351H8.68742V4.15965C8.68742 3.81066 8.40448 3.52772 8.05549 3.52772C7.70649 3.52772 7.42356 3.81066 7.42356 4.15965V5.42351H6.1597C5.81071 5.42351 5.52777 5.70644 5.52777 6.05544C5.52777 6.40443 5.81071 6.68737 6.1597 6.68737H7.42356Z" fill="#28B5E1"/>
<path d="M15.7229 10.6896H6.45456C6.10557 10.6896 5.82263 10.9725 5.82263 11.3215C5.82263 11.6705 6.10557 11.9534 6.45456 11.9534H15.7229C16.0718 11.9534 16.3548 11.6705 16.3548 11.3215C16.3548 10.9725 16.0718 10.6896 15.7229 10.6896Z" fill="#28B5E1"/>
<path d="M15.7229 14.0599H6.45456C6.10557 14.0599 5.82263 14.3428 5.82263 14.6918C5.82263 15.0408 6.10557 15.3237 6.45456 15.3237H15.7229C16.0718 15.3237 16.3548 15.0408 16.3548 14.6918C16.3548 14.3428 16.0718 14.0599 15.7229 14.0599Z" fill="#28B5E1"/>
<path d="M9.51815 17.4302H6.45456C6.10557 17.4302 5.82263 17.7131 5.82263 18.0621C5.82263 18.4111 6.10557 18.694 6.45456 18.694H9.51815C9.86715 18.694 10.1501 18.4111 10.1501 18.0621C10.1501 17.7131 9.86715 17.4302 9.51815 17.4302Z" fill="#28B5E1"/>
<path d="M18.7055 5.47692L14.6433 1.63391C14.2112 1.22514 13.6457 1 13.0509 1H5.31707C4.03944 1 3 2.03944 3 3.31707V20.2528C3 21.5304 4.03944 22.5698 5.31707 22.5698H17.1131C18.3907 22.5698 19.4302 21.5304 19.4302 20.2528V7.16013C19.4302 6.52613 19.166 5.91262 18.7055 5.47692ZM17.4779 6.05543H14.3326C14.2164 6.05543 14.122 5.96094 14.122 5.84479V2.88049L17.4779 6.05543ZM17.1131 21.306H5.31707C4.73633 21.306 4.26386 20.8335 4.26386 20.2528V3.31707C4.26386 2.73633 4.73633 2.26386 5.31707 2.26386H12.8581V5.84479C12.8581 6.65783 13.5196 7.31929 14.3326 7.31929H18.1663V20.2528C18.1663 20.8335 17.6938 21.306 17.1131 21.306Z" fill="#28B5E1"/>
<circle cx="18.8544" cy="20.3229" r="2.69623" fill="white" stroke="#28B5E1" stroke-width="0.898744"/>
<g clip-path="url(#clip0_2818_56222)">
<path d="M16.9321 20.3229C16.9321 20.3229 17.6311 18.9249 18.8544 18.9249C20.0777 18.9249 20.7767 20.3229 20.7767 20.3229C20.7767 20.3229 20.0777 21.721 18.8544 21.721C17.6311 21.721 16.9321 20.3229 16.9321 20.3229Z" stroke="#00BFD6" stroke-width="0.349511" stroke-linecap="round" stroke-linejoin="round"/>
<path d="M18.8544 20.8472C19.144 20.8472 19.3787 20.6125 19.3787 20.3229C19.3787 20.0334 19.144 19.7987 18.8544 19.7987C18.5649 19.7987 18.3301 20.0334 18.3301 20.3229C18.3301 20.6125 18.5649 20.8472 18.8544 20.8472Z" stroke="#00BFD6" stroke-width="0.349511" stroke-linecap="round" stroke-linejoin="round"/>
</g>
<defs>
<clipPath id="clip0_2818_56222">
<rect width="4.19414" height="4.19414" fill="white" transform="translate(16.7573 18.2259)"/>
</clipPath>
</defs>
</svg>
