<svg width="24" height="24" viewBox="0 0 24 24" fill="none" xmlns="http://www.w3.org/2000/svg">
<g clip-path="url(#clip0_2818_56066)">
<path d="M17.1868 17.0923H18.593V20.6923H17.1868V17.0923Z" fill="#64748B"/>
<path d="M17.8882 16.1584C18.256 16.1584 18.6084 15.835 18.5914 15.4552C18.5743 15.0743 18.2824 14.7521 17.8882 14.7521C17.5204 14.7521 17.1681 15.0755 17.1851 15.4552C17.2022 15.8362 17.4941 16.1584 17.8882 16.1584Z" fill="#64748B"/>
<path d="M19.1295 11.9606V0H3.09023C1.38628 0 0 1.3455 0 3.04945V21.0007H0.0148594C0.171047 22.6805 1.58789 24 3.30773 24H17.8973C21.2624 24 24 21.3031 24 17.9382C24 14.9952 21.9059 12.5321 19.1295 11.9606ZM17.7211 11.8383C14.6227 11.9266 12.0957 14.3357 11.8201 17.3845H5.65528V1.36767H17.7211V11.8383ZM3.09023 1.36767H4.24678V17.3845H3.30773C2.60128 17.3845 1.94639 17.6078 1.40845 17.9866V3.04945C1.40845 2.12208 2.16291 1.36767 3.09023 1.36767ZM3.30773 22.5915C2.26045 22.5915 1.40845 21.7395 1.40845 20.6923C1.40845 19.645 2.26045 18.793 3.30773 18.793H11.8549C11.9135 19.209 12.014 19.6118 12.1524 19.9967H3.56916V21.4052H12.8782C13.1838 21.8462 13.5459 22.2452 13.954 22.5916H3.30773V22.5915ZM17.8974 22.6323C15.309 22.6323 13.2032 20.5265 13.2032 17.9382C13.2032 15.3498 15.309 13.244 17.8974 13.244C20.4858 13.244 22.5915 15.3498 22.5915 17.9382C22.5915 20.5265 20.4857 22.6323 17.8974 22.6323Z" fill="#64748B"/>
<path d="M9.41235 4.10625H14.1261V5.51471H9.41235V4.10625Z" fill="#64748B"/>
<path d="M7.82013 7.16395H15.7184V8.5724H7.82013V7.16395Z" fill="#64748B"/>
</g>
<defs>
<clipPath id="clip0_2818_56066">
<rect width="24" height="24" fill="white"/>
</clipPath>
</defs>
</svg>
