<svg width="24" height="24" viewBox="0 0 24 24" fill="none" xmlns="http://www.w3.org/2000/svg">
<g clip-path="url(#clip0_2818_56105)">
<path d="M19.7276 15.7739V4.93189C19.7276 4.74148 19.6491 4.56144 19.5211 4.43356L15.294 0.206469C15.1651 0.0776097 14.9862 -1.52588e-05 14.7957 -1.52588e-05H2.11357C1.72447 -1.52588e-05 1.409 0.315454 1.409 0.704563V21.8413C1.409 22.2305 1.72447 22.5459 2.11357 22.5459H10.2429C11.3412 24.4395 14.0734 24.4187 15.1426 22.5086C16.7629 24.4161 19.6325 24.4859 21.3546 22.7639C23.5723 20.5461 22.6725 16.7713 19.7276 15.7739ZM15.9375 21.2062C14.8359 19.3372 16.1789 16.9577 18.3654 16.9577C18.8612 16.9577 19.357 17.0874 19.797 17.3467L15.9375 21.2062ZM14.0911 17.614H11.2729V15.5003C11.2729 14.7233 11.905 14.0912 12.682 14.0912C13.459 14.0912 14.0911 14.7233 14.0911 15.5003V17.614ZM15.5002 2.40552L17.3221 4.22736H15.5002V2.40552ZM2.81815 21.1368V1.40909H14.0911V4.93189C14.0911 5.321 14.4066 5.63647 14.7957 5.63647H18.3185V15.5504C17.305 15.5615 16.2951 15.9339 15.5003 16.6676V15.5003C15.5003 13.9464 14.236 12.6821 12.6821 12.6821C11.1281 12.6821 9.86384 13.9464 9.86384 15.5003V21.1368H2.81815V21.1368ZM12.682 22.5459C11.905 22.5459 11.2729 21.9138 11.2729 21.1368V19.0231H14.0911V21.1368C14.0911 21.9138 13.459 22.5459 12.682 22.5459ZM20.3582 21.7674C19.4314 22.6943 18.0142 22.8393 16.9339 22.2026L20.7934 18.3431C21.4301 19.4234 21.2851 20.8406 20.3582 21.7674Z" fill="#00BFD6"/>
<path d="M4.93169 7.0456H11.9773C12.3664 7.0456 12.6819 6.73013 12.6819 6.34102C12.6819 5.95191 12.3664 5.63644 11.9773 5.63644H4.93169C4.54258 5.63644 4.22711 5.95191 4.22711 6.34102C4.22716 6.73018 4.54258 7.0456 4.93169 7.0456Z" fill="#00BFD6"/>
<path d="M4.93169 9.86381H11.9773C12.3664 9.86381 12.6819 9.54834 12.6819 9.15923C12.6819 8.77012 12.3664 8.45465 11.9773 8.45465H4.93169C4.54258 8.45465 4.22711 8.77012 4.22711 9.15923C4.22711 9.54834 4.54258 9.86381 4.93169 9.86381Z" fill="#00BFD6"/>
<path d="M9.18256 11.2964H4.95519C4.56608 11.2964 4.25061 11.6119 4.25061 12.001C4.25061 12.3901 4.56608 12.7056 4.95519 12.7056H9.18256C9.57167 12.7056 9.88714 12.3901 9.88714 12.001C9.88714 11.6119 9.57167 11.2964 9.18256 11.2964Z" fill="#00BFD6"/>
<path d="M7.74995 16.9094H4.93169C4.54258 16.9094 4.22711 17.2249 4.22711 17.614C4.22711 18.0031 4.54258 18.3185 4.93169 18.3185H7.74991C8.13902 18.3185 8.45449 18.0031 8.45449 17.614C8.45449 17.2249 8.13906 16.9094 7.74995 16.9094Z" fill="#00BFD6"/>
</g>
<defs>
<clipPath id="clip0_2818_56105">
<rect width="24" height="24" fill="white"/>
</clipPath>
</defs>
</svg>
