<?xml version="1.0" encoding="UTF-8"?>
<!DOCTYPE svg PUBLIC "-//W3C//DTD SVG 1.1//EN" "http://www.w3.org/Graphics/SVG/1.1/DTD/svg11.dtd">
<svg xmlns="http://www.w3.org/2000/svg" version="1.1" width="34px" height="34px" style="shape-rendering:geometricPrecision; text-rendering:geometricPrecision; image-rendering:optimizeQuality; fill-rule:evenodd; clip-rule:evenodd" xmlns:xlink="http://www.w3.org/1999/xlink">
<g><path style="opacity:0.996" fill="#15646a" d="M -0.5,-0.5 C 10.8333,-0.5 22.1667,-0.5 33.5,-0.5C 33.5,10.5 33.5,21.5 33.5,32.5C 32.8333,32.5 32.5,32.8333 32.5,33.5C 21.5,33.5 10.5,33.5 -0.5,33.5C -0.5,22.1667 -0.5,10.8333 -0.5,-0.5 Z M 13.5,2.5 C 27.1407,3.80027 31.6407,10.8003 27,23.5C 19.6667,31.5 12.3333,31.5 5,23.5C 0.699991,13.5602 3.53332,6.56024 13.5,2.5 Z M 12.5,10.5 C 13.8333,10.5 15.1667,10.5 16.5,10.5C 16.5,11.5 16.5,12.5 16.5,13.5C 15.1667,13.5 13.8333,13.5 12.5,13.5C 12.5,12.5 12.5,11.5 12.5,10.5 Z"/></g>
<g><path style="opacity:1" fill="#14636a" d="M 10.5,8.5 C 13.2469,8.18665 15.9135,8.51998 18.5,9.5C 19.8647,11.7508 19.5314,13.7508 17.5,15.5C 18.5939,17.8362 19.9272,17.8362 21.5,15.5C 23.8362,16.5939 23.8362,17.9272 21.5,19.5C 21.9767,20.4776 22.6433,21.3109 23.5,22C 21.8629,23.951 20.3629,23.7843 19,21.5C 17.7592,23.4206 16.2592,23.754 14.5,22.5C 17.1354,19.7058 16.6354,17.3725 13,15.5C 12.7978,17.2556 12.2978,18.9223 11.5,20.5C 10.5091,16.5546 10.1758,12.5546 10.5,8.5 Z M 12.5,10.5 C 12.5,11.5 12.5,12.5 12.5,13.5C 13.8333,13.5 15.1667,13.5 16.5,13.5C 16.5,12.5 16.5,11.5 16.5,10.5C 15.1667,10.5 13.8333,10.5 12.5,10.5 Z"/></g>
</svg>
