<?xml version="1.0" encoding="UTF-8"?>
<!DOCTYPE svg PUBLIC "-//W3C//DTD SVG 1.1//EN" "http://www.w3.org/Graphics/SVG/1.1/DTD/svg11.dtd">
<svg xmlns="http://www.w3.org/2000/svg" version="1.1" width="30px" height="30px" style="shape-rendering:geometricPrecision; text-rendering:geometricPrecision; image-rendering:optimizeQuality; fill-rule:evenodd; clip-rule:evenodd" xmlns:xlink="http://www.w3.org/1999/xlink">
<g><path style="opacity:0.347" fill="#000000" d="M 12.5,-0.5 C 13.8333,-0.5 15.1667,-0.5 16.5,-0.5C 19.436,1.81315 22.6026,3.81315 26,5.5C 26.7698,13.5485 26.6032,21.5485 25.5,29.5C 18.1667,29.5 10.8333,29.5 3.5,29.5C 2.39685,21.5485 2.23018,13.5485 3,5.5C 6.39735,3.81315 9.56402,1.81315 12.5,-0.5 Z M 13.5,1.5 C 15.1172,2.038 16.7839,2.37133 18.5,2.5C 18.5,3.5 18.5,4.5 18.5,5.5C 15.8333,5.5 13.1667,5.5 10.5,5.5C 10.5,4.5 10.5,3.5 10.5,2.5C 11.791,2.73731 12.791,2.40397 13.5,1.5 Z M 4.5,5.5 C 7.75207,6.37661 11.0854,7.04327 14.5,7.5C 17.9146,7.04327 21.2479,6.37661 24.5,5.5C 24.5,12.8333 24.5,20.1667 24.5,27.5C 17.8333,27.5 11.1667,27.5 4.5,27.5C 4.5,20.1667 4.5,12.8333 4.5,5.5 Z"/></g>
<g><path style="opacity:0.344" fill="#000000" d="M 12.5,8.5 C 13.8333,8.5 15.1667,8.5 16.5,8.5C 16.5,9.5 16.5,10.5 16.5,11.5C 17.5,11.5 18.5,11.5 19.5,11.5C 19.5,13.1667 19.5,14.8333 19.5,16.5C 18.5,16.5 17.5,16.5 16.5,16.5C 16.5,17.5 16.5,18.5 16.5,19.5C 15.1667,19.5 13.8333,19.5 12.5,19.5C 12.5,18.5 12.5,17.5 12.5,16.5C 11.5,16.5 10.5,16.5 9.5,16.5C 9.5,14.8333 9.5,13.1667 9.5,11.5C 10.5,11.5 11.5,11.5 12.5,11.5C 12.5,10.5 12.5,9.5 12.5,8.5 Z"/></g>
<g><path style="opacity:0.288" fill="#000000" d="M 9.5,20.5 C 12.8984,20.1796 16.2317,20.513 19.5,21.5C 17.8333,21.8333 16.1667,22.1667 14.5,22.5C 12.3603,22.4439 10.6936,21.7773 9.5,20.5 Z"/></g>
</svg>
