<svg width="24" height="24" viewBox="0 0 24 24" fill="none" xmlns="http://www.w3.org/2000/svg">
<g clip-path="url(#clip0_2818_56202)">
<path d="M21.4219 5.71875H20.6719V5.39062C20.6719 5.20411 20.5978 5.02528 20.4659 4.89347L15.7784 0.205969C15.6465 0.0740625 15.4677 0 15.2812 0H4.03125C3.64294 0 3.32812 0.314812 3.32812 0.703125V4.78125H2.57812C1.15655 4.78125 0 5.9378 0 7.35938V21.4219C0 22.8435 1.15655 24 2.57812 24H21.4219C22.8435 24 24 22.8435 24 21.4219V8.29688C24 6.8753 22.8435 5.71875 21.4219 5.71875ZM21.4219 7.125C22.068 7.125 22.5938 7.6507 22.5938 8.29688V8.81414C22.2419 8.63377 21.8438 8.53125 21.4219 8.53125H20.6719V7.125H21.4219ZM15.9844 2.40061L18.2713 4.6875H16.2188C16.0895 4.6875 15.9844 4.58236 15.9844 4.45312V2.40061ZM4.73438 1.40625H14.5781V4.45312C14.5781 5.35777 15.3141 6.09375 16.2188 6.09375H19.2656V8.53125H12.4346L11.2722 6.20639C10.8326 5.3273 9.94903 4.78125 8.9662 4.78125H4.73438V1.40625ZM22.5938 21.4219C22.5938 22.068 22.068 22.5938 21.4219 22.5938H2.57812C1.93195 22.5938 1.40625 22.068 1.40625 21.4219V7.35938C1.40625 6.7132 1.93195 6.1875 2.57812 6.1875H8.9662C9.41292 6.1875 9.81459 6.4357 10.0143 6.83527L11.3711 9.54881C11.4902 9.78703 11.7337 9.9375 12 9.9375H21.4219C22.068 9.9375 22.5938 10.4632 22.5938 11.1094V21.4219Z" fill="#64748B"/>
<path d="M15.75 14.1562H14.1094V12.5156C14.1094 12.1273 13.7946 11.8125 13.4062 11.8125H10.5938C10.2054 11.8125 9.89062 12.1273 9.89062 12.5156V14.1562H8.25C7.86169 14.1562 7.54688 14.4711 7.54688 14.8594V17.6719C7.54688 18.0602 7.86169 18.375 8.25 18.375H9.89062V20.0156C9.89062 20.4039 10.2054 20.7188 10.5938 20.7188H13.4062C13.7946 20.7188 14.1094 20.4039 14.1094 20.0156V18.375H15.75C16.1383 18.375 16.4531 18.0602 16.4531 17.6719V14.8594C16.4531 14.4711 16.1383 14.1562 15.75 14.1562ZM15.0469 16.9688H13.4062C13.0179 16.9688 12.7031 17.2836 12.7031 17.6719V19.3125H11.2969V17.6719C11.2969 17.2836 10.9821 16.9688 10.5938 16.9688H8.95312V15.5625H10.5938C10.9821 15.5625 11.2969 15.2477 11.2969 14.8594V13.2188H12.7031V14.8594C12.7031 15.2477 13.0179 15.5625 13.4062 15.5625H15.0469V16.9688Z" fill="#64748B"/>
</g>
<defs>
<clipPath id="clip0_2818_56202">
<rect width="24" height="24" fill="white"/>
</clipPath>
</defs>
</svg>
