<svg width="25" height="25" viewBox="0 0 25 25" fill="none" xmlns="http://www.w3.org/2000/svg">
<g clip-path="url(#clip0_5564_15027)">
<path d="M21.5048 11.9894H21.0789V1.12406C21.0789 0.685172 20.7218 0.328125 20.283 0.328125H6.78722C6.34833 0.328125 5.99128 0.685172 5.99128 1.12406V1.97813H5.29097C4.85236 1.97813 4.4955 2.33517 4.4955 2.77406V8.29233C4.4955 8.48648 4.65291 8.64389 4.84706 8.64389C5.04122 8.64389 5.19862 8.48648 5.19862 8.29233V2.77406C5.19862 2.72288 5.24006 2.68125 5.29097 2.68125H18.7872C18.8381 2.68125 18.8796 2.72288 18.8796 2.77406V11.9894H9.93187C9.8108 11.9894 9.69961 11.9284 9.63455 11.8263L8.53669 10.1042C8.34178 9.79847 8.00897 9.61594 7.64644 9.61594H2.57334C1.9912 9.61594 1.51758 10.0896 1.51758 10.6717V23.2723C1.51758 23.8545 1.9912 24.3281 2.57334 24.3281H21.5048C22.087 24.3281 22.5606 23.8545 22.5606 23.2723V13.0451C22.5606 12.4629 22.087 11.9894 21.5048 11.9894ZM18.7872 1.97813H6.69441V1.12406C6.69441 1.07287 6.73603 1.03125 6.78722 1.03125H20.283C20.3342 1.03125 20.3758 1.07287 20.3758 1.12406V11.9894H19.5826V2.77406C19.5827 2.33517 19.2258 1.97813 18.7872 1.97813ZM21.8575 23.2724C21.8575 23.4668 21.6993 23.625 21.5048 23.625H19.0999L18.5504 22.06C18.4 21.6318 17.9941 21.3441 17.5402 21.3441H15.8094C15.6152 21.3441 15.4579 21.5015 15.4579 21.6956C15.4579 21.8898 15.6152 22.0472 15.8094 22.0472H17.5402C17.696 22.0472 17.8354 22.146 17.887 22.293L18.3547 23.625H5.72348L6.1912 22.293C6.24281 22.146 6.38217 22.0472 6.53794 22.0472H14.1637C14.3579 22.0472 14.5152 21.8898 14.5152 21.6956C14.5152 21.5015 14.3579 21.3441 14.1637 21.3441H6.53794C6.08405 21.3441 5.67811 21.6318 5.52773 22.06L4.97827 23.625H2.57334C2.37891 23.625 2.2207 23.4668 2.2207 23.2724V10.6718C2.2207 10.4773 2.37891 10.3191 2.57334 10.3191H7.64644C7.76751 10.3191 7.8787 10.3801 7.94376 10.4822L9.04162 12.2043C9.23653 12.51 9.56934 12.6925 9.93187 12.6925H21.5048C21.6993 12.6925 21.8575 12.8507 21.8575 13.0452V23.2724Z" fill="#576272"/>
<path d="M7.57244 11.356C7.47077 11.1768 7.27956 11.0654 7.0735 11.0654H3.61272C3.29641 11.0654 3.03906 11.3228 3.03906 11.6391V12.5998C3.03906 12.9161 3.29641 13.1735 3.61272 13.1735H7.76214C7.93591 13.1735 8.09814 13.0802 8.18561 12.9301C8.27303 12.7799 8.27411 12.5928 8.18838 12.4417L7.57244 11.356ZM3.74219 12.4703V11.7686H6.99813L7.39628 12.4703H3.74219Z" fill="#576272"/>
<path d="M8.4927 3.91504H7.62916C7.30212 3.91504 7.03605 4.1811 7.03605 4.50815V4.95993H6.58432C6.25727 4.95993 5.99121 5.22599 5.99121 5.55304V6.41657C5.99121 6.74362 6.25727 7.00968 6.58432 7.00968H7.03605V7.46141C7.03605 7.78846 7.30212 8.05452 7.62916 8.05452H8.4927C8.81974 8.05452 9.0858 7.78846 9.0858 7.46141V7.00968H9.53754C9.86459 7.00968 10.1306 6.74362 10.1306 6.41657V5.55304C10.1306 5.22599 9.86459 4.95993 9.53754 4.95993H9.0858V4.50815C9.0858 4.1811 8.81974 3.91504 8.4927 3.91504ZM9.42757 5.66301V6.30655H8.73424C8.54009 6.30655 8.38268 6.46396 8.38268 6.65812V7.35145H7.73913V6.65812C7.73913 6.46396 7.58173 6.30655 7.38757 6.30655H6.69424V5.66301H7.38757C7.58173 5.66301 7.73913 5.5056 7.73913 5.31145V4.61816H8.38268V5.31149C8.38268 5.50565 8.54009 5.66305 8.73424 5.66305L9.42757 5.66301Z" fill="#576272"/>
<path d="M12.0488 5.21484H13.4747C13.6689 5.21484 13.8263 5.05744 13.8263 4.86328C13.8263 4.66912 13.6689 4.51172 13.4747 4.51172H12.0488C11.8547 4.51172 11.6973 4.66912 11.6973 4.86328C11.6973 5.05744 11.8547 5.21484 12.0488 5.21484Z" fill="#576272"/>
<path d="M12.0488 6.62012H17.4244C17.6186 6.62012 17.7759 6.46271 17.7759 6.26855C17.7759 6.0744 17.6186 5.91699 17.4244 5.91699H12.0488C11.8547 5.91699 11.6973 6.0744 11.6973 6.26855C11.6973 6.46271 11.8547 6.62012 12.0488 6.62012Z" fill="#576272"/>
<path d="M12.0488 8.02441H17.4244C17.6186 8.02441 17.7759 7.86701 17.7759 7.67285C17.7759 7.4787 17.6186 7.32129 17.4244 7.32129H12.0488C11.8547 7.32129 11.6973 7.4787 11.6973 7.67285C11.6973 7.86701 11.8547 8.02441 12.0488 8.02441Z" fill="#576272"/>
<path d="M12.0488 9.46094H17.4244C17.6186 9.46094 17.7759 9.30353 17.7759 9.10938C17.7759 8.91522 17.6186 8.75781 17.4244 8.75781H12.0488C11.8547 8.75781 11.6973 8.91522 11.6973 9.10938C11.6973 9.30353 11.8547 9.46094 12.0488 9.46094Z" fill="#576272"/>
<path d="M12.0488 10.8662H17.4244C17.6186 10.8662 17.7759 10.7088 17.7759 10.5146C17.7759 10.3205 17.6186 10.1631 17.4244 10.1631H12.0488C11.8547 10.1631 11.6973 10.3205 11.6973 10.5146C11.6973 10.7088 11.8547 10.8662 12.0488 10.8662Z" fill="#576272"/>
<path d="M20.804 13.3789H19.2314C19.0372 13.3789 18.8799 13.5363 18.8799 13.7305C18.8799 13.9246 19.0372 14.082 19.2314 14.082H20.4524V15.303C20.4524 15.4971 20.6098 15.6545 20.804 15.6545C20.9982 15.6545 21.1556 15.4971 21.1556 15.303V13.7305C21.1556 13.5363 20.9982 13.3789 20.804 13.3789Z" fill="#576272"/>
</g>
<defs>
<clipPath id="clip0_5564_15027">
<rect width="24" height="24" fill="white" transform="translate(0.0390625 0.328125)"/>
</clipPath>
</defs>
</svg>
