<svg width="22" height="24" viewBox="0 0 22 24" fill="none" xmlns="http://www.w3.org/2000/svg">
<path d="M20.2216 11.6612H19.7957V0.795937C19.7957 0.357047 19.4386 0 18.9998 0H5.50402C5.06512 0 4.70808 0.357047 4.70808 0.795937V1.65H4.00777C3.56916 1.65 3.2123 2.00705 3.2123 2.44594V7.9642C3.2123 8.15836 3.3697 8.31577 3.56386 8.31577C3.75802 8.31577 3.91542 8.15836 3.91542 7.9642V2.44594C3.91542 2.39475 3.95686 2.35313 4.00777 2.35313H17.504C17.5549 2.35313 17.5964 2.39475 17.5964 2.44594V11.6612H8.64867C8.52759 11.6612 8.41641 11.6003 8.35134 11.4982L7.25348 9.77606C7.05858 9.47034 6.72576 9.28781 6.36323 9.28781H1.29014C0.708 9.28781 0.234375 9.76144 0.234375 10.3436V22.9442C0.234375 23.5263 0.708 24 1.29014 24H20.2216C20.8038 24 21.2774 23.5263 21.2774 22.9442V12.717C21.2774 12.1348 20.8038 11.6612 20.2216 11.6612ZM17.504 1.65H5.4112V0.795937C5.4112 0.74475 5.45283 0.703125 5.50402 0.703125H18.9998C19.051 0.703125 19.0926 0.74475 19.0926 0.795937V11.6612H18.2994V2.44594C18.2995 2.00705 17.9426 1.65 17.504 1.65ZM20.5743 22.9442C20.5743 23.1387 20.4161 23.2969 20.2216 23.2969H17.8167L17.2672 21.7319C17.1168 21.3037 16.7109 21.0159 16.257 21.0159H14.5262C14.332 21.0159 14.1747 21.1733 14.1747 21.3675C14.1747 21.5617 14.332 21.7191 14.5262 21.7191H16.257C16.4128 21.7191 16.5522 21.8178 16.6038 21.9648L17.0715 23.2969H4.44028L4.908 21.9648C4.95961 21.8178 5.09897 21.7191 5.25473 21.7191H12.8805C13.0747 21.7191 13.232 21.5617 13.232 21.3675C13.232 21.1733 13.0747 21.0159 12.8805 21.0159H5.25473C4.80084 21.0159 4.39491 21.3037 4.24453 21.7319L3.69506 23.2969H1.29014C1.0957 23.2969 0.9375 23.1387 0.9375 22.9442V10.3436C0.9375 10.1492 1.0957 9.99098 1.29014 9.99098H6.36323C6.48431 9.99098 6.5955 10.052 6.66056 10.1541L7.75842 11.8762C7.95333 12.1819 8.28614 12.3644 8.64867 12.3644H20.2216C20.4161 12.3644 20.5743 12.5226 20.5743 12.717V22.9442Z" fill="#00BFD6"/>
<path d="M6.28923 11.0278C6.18756 10.8486 5.99636 10.7373 5.7903 10.7373H2.32952C2.0132 10.7373 1.75586 10.9946 1.75586 11.311V12.2717C1.75586 12.588 2.0132 12.8454 2.32952 12.8454H6.47894C6.6527 12.8454 6.81494 12.7521 6.90241 12.6019C6.98983 12.4518 6.99091 12.2646 6.90517 12.1136L6.28923 11.0278ZM2.45898 12.1422V11.4404H5.71492L6.11308 12.1422H2.45898Z" fill="#00BFD6"/>
<path d="M7.20949 3.58691H6.34596C6.01891 3.58691 5.75285 3.85298 5.75285 4.18002V4.6318H5.30112C4.97407 4.6318 4.70801 4.89787 4.70801 5.22491V6.08845C4.70801 6.41549 4.97407 6.68155 5.30112 6.68155H5.75285V7.13329C5.75285 7.46034 6.01891 7.7264 6.34596 7.7264H7.20949C7.53654 7.7264 7.8026 7.46034 7.8026 7.13329V6.68155H8.25434C8.58138 6.68155 8.84745 6.41549 8.84745 6.08845V5.22491C8.84745 4.89787 8.58138 4.6318 8.25434 4.6318H7.8026V4.18002C7.8026 3.85298 7.53654 3.58691 7.20949 3.58691ZM8.14437 5.33488V5.97843H7.45104C7.25688 5.97843 7.09948 6.13584 7.09948 6.32999V7.02332H6.45593V6.32999C6.45593 6.13584 6.29852 5.97843 6.10437 5.97843H5.41104V5.33488H6.10437C6.29852 5.33488 6.45593 5.17748 6.45593 4.98332V4.29004H7.09948V4.98337C7.09948 5.17752 7.25688 5.33493 7.45104 5.33493L8.14437 5.33488Z" fill="#00BFD6"/>
<path d="M10.7656 4.88672H12.1915C12.3857 4.88672 12.5431 4.72931 12.5431 4.53516C12.5431 4.341 12.3857 4.18359 12.1915 4.18359H10.7656C10.5715 4.18359 10.4141 4.341 10.4141 4.53516C10.4141 4.72931 10.5715 4.88672 10.7656 4.88672Z" fill="#00BFD6"/>
<path d="M10.7656 6.29199H16.1412C16.3354 6.29199 16.4927 6.13459 16.4927 5.94043C16.4927 5.74627 16.3354 5.58887 16.1412 5.58887H10.7656C10.5715 5.58887 10.4141 5.74627 10.4141 5.94043C10.4141 6.13459 10.5715 6.29199 10.7656 6.29199Z" fill="#00BFD6"/>
<path d="M10.7656 7.69629H16.1412C16.3354 7.69629 16.4927 7.53888 16.4927 7.34473C16.4927 7.15057 16.3354 6.99316 16.1412 6.99316H10.7656C10.5715 6.99316 10.4141 7.15057 10.4141 7.34473C10.4141 7.53888 10.5715 7.69629 10.7656 7.69629Z" fill="#00BFD6"/>
<path d="M10.7656 9.13281H16.1412C16.3354 9.13281 16.4927 8.97541 16.4927 8.78125C16.4927 8.58709 16.3354 8.42969 16.1412 8.42969H10.7656C10.5715 8.42969 10.4141 8.58709 10.4141 8.78125C10.4141 8.97541 10.5715 9.13281 10.7656 9.13281Z" fill="#00BFD6"/>
<path d="M10.7656 10.5381H16.1412C16.3354 10.5381 16.4927 10.3807 16.4927 10.1865C16.4927 9.99237 16.3354 9.83496 16.1412 9.83496H10.7656C10.5715 9.83496 10.4141 9.99237 10.4141 10.1865C10.4141 10.3807 10.5715 10.5381 10.7656 10.5381Z" fill="#00BFD6"/>
<path d="M19.5208 13.0508H17.9482C17.754 13.0508 17.5967 13.2082 17.5967 13.4023C17.5967 13.5965 17.754 13.7539 17.9482 13.7539H19.1692V14.9749C19.1692 15.169 19.3266 15.3264 19.5208 15.3264C19.715 15.3264 19.8724 15.169 19.8724 14.9749V13.4023C19.8724 13.2082 19.715 13.0508 19.5208 13.0508Z" fill="#00BFD6"/>
</svg>
