<svg width="25" height="24" viewBox="0 0 25 24" fill="none" xmlns="http://www.w3.org/2000/svg">
<circle cx="12.3425" cy="11.9939" r="12" fill="#E8FAFC"/>
<path d="M6.26139 15.7775C6.0444 10.0306 8.87025 8.57237 8.99266 8.5095C8.99266 8.5095 9.66087 8.07887 10.2924 8.46332C10.2924 8.46332 10.8688 8.80772 10.9328 9.45423V10.4196L11.2599 10.1124V6.447C11.2599 6.13988 11.5086 5.89062 11.8163 5.89062C12.124 5.89062 12.3727 6.13988 12.3727 6.447V10.113L12.6998 10.4201V9.45423C12.6998 9.45423 12.7115 8.77267 13.4598 8.3999C13.4598 8.3999 14.0268 8.11614 14.6644 8.52286C14.7623 8.57293 17.6299 10.1291 17.3712 15.7786C17.3712 15.7786 17.3962 16.7918 16.2929 17.0165C16.2929 17.0165 15.0861 17.2241 13.4598 16.498C12.8178 16.2332 12.6759 15.4999 12.7009 15.1115L12.7004 11.9468L11.8163 11.1173L10.9328 11.9463V15.1471C10.9567 15.4993 10.8148 16.2326 10.1254 16.5203C10.1254 16.5203 8.63212 17.2458 7.20779 16.9999C7.20779 16.9993 6.297 16.7311 6.26139 15.7775Z" fill="#3C678C"/>
</svg>
