<svg width="25" height="24" viewBox="0 0 25 24" fill="none" xmlns="http://www.w3.org/2000/svg">
<circle cx="12.3123" cy="11.9939" r="12" fill="#E8FAFC"/>
<g clip-path="url(#clip0_4565_12507)">
<path d="M17.4124 11.2078C17.2617 11.2078 17.1395 11.33 17.1395 11.4807C17.1395 12.2765 16.492 12.9239 15.6962 12.9239C14.9005 12.9239 14.253 12.2765 14.253 11.4807V8.52254C14.253 7.72674 14.9005 7.07931 15.6962 7.07931C16.492 7.07931 17.1395 7.72674 17.1395 8.52254C17.1395 8.67323 17.2617 8.79541 17.4124 8.79541C17.563 8.79541 17.6852 8.67323 17.6852 8.52254C17.6852 7.42583 16.793 6.53357 15.6962 6.53357C14.5995 6.53357 13.7073 7.42583 13.7073 8.52254V11.4807C13.7073 12.5774 14.5995 13.4696 15.6962 13.4696C16.793 13.4696 17.6852 12.5774 17.6852 11.4807C17.6852 11.33 17.563 11.2078 17.4124 11.2078Z" fill="#3C678C"/>
<path d="M13.3746 4.79395C12.7946 4.79395 12.3228 5.2658 12.3228 5.84579C12.3228 6.42576 12.7946 6.89761 13.3746 6.89761C13.9545 6.89761 14.4264 6.42576 14.4264 5.84579C14.4264 5.2658 13.9545 4.79395 13.3746 4.79395ZM13.3746 6.3519C13.0955 6.3519 12.8685 6.12488 12.8685 5.84579C12.8685 5.56668 13.0955 5.33965 13.3746 5.33965C13.6537 5.33965 13.8807 5.56668 13.8807 5.84579C13.8807 6.12488 13.6536 6.3519 13.3746 6.3519Z" fill="#3C678C"/>
<path d="M11.5589 14.1972V6.59181C11.5589 5.60046 10.7524 4.79395 9.76107 4.79395C8.76972 4.79395 7.96321 5.60046 7.96321 6.59181V14.1972C7.3108 14.7354 6.93921 15.5203 6.93921 16.3721C6.93921 17.9281 8.20509 19.1939 9.76107 19.1939C11.3171 19.1939 12.5829 17.9281 12.5829 16.3721C12.5829 15.5203 12.2114 14.7355 11.5589 14.1972ZM9.76107 18.6482C8.506 18.6482 7.48495 17.6271 7.48495 16.3721C7.48495 15.6475 7.81823 14.9826 8.39937 14.548C8.47098 14.4945 8.50844 14.4125 8.50853 14.3295H8.50898V6.59181C8.50895 5.9014 9.07066 5.33965 9.76107 5.33965C10.4515 5.33965 11.0132 5.90137 11.0132 6.59181V14.3295H11.0137C11.0137 14.4125 11.0512 14.4944 11.1228 14.548C11.7039 14.9826 12.0372 15.6474 12.0372 16.3721C12.0372 17.6271 11.0162 18.6482 9.76107 18.6482Z" fill="#3C678C"/>
<path d="M10.4924 14.8107V10.2566C10.4924 10.1059 10.3702 9.98376 10.2196 9.98376H9.3024C9.1517 9.98376 9.02953 10.1059 9.02953 10.2566V14.8107C8.43215 15.0915 8.04175 15.696 8.04175 16.3668C8.04175 17.3148 8.81299 18.086 9.761 18.086C10.709 18.086 11.4802 17.3148 11.4802 16.3668C11.4802 15.6959 11.0898 15.0915 10.4924 14.8107Z" fill="#3C678C"/>
</g>
<defs>
<clipPath id="clip0_4565_12507">
<rect width="14.4" height="14.4" fill="white" transform="translate(5.11206 4.79382)"/>
</clipPath>
</defs>
</svg>
