<svg width="25" height="25" viewBox="0 0 25 25" fill="none" xmlns="http://www.w3.org/2000/svg">
<circle cx="12.8845" cy="12.1399" r="12" fill="#E8FAFC"/>
<path d="M15.8095 7.86492H15.3595V7.41492H14.9095V8.31492H14.4595V7.41492H14.0095V7.86492H13.5595V7.41492H13.1095V8.31492H12.6595V7.41492H12.2095V7.86492H11.7595V7.41492H11.3095V8.31492H10.8595V7.41492H10.4095V7.86492H9.95952V7.41492H9.50952V8.31492C9.50988 8.67285 9.65223 9.01602 9.90532 9.26912C10.1584 9.52221 10.5016 9.66456 10.8595 9.66492H12.097L12.7045 8.85492C12.7264 8.82834 12.7539 8.80694 12.785 8.79224C12.8161 8.77754 12.8501 8.76992 12.8845 8.76992C12.9189 8.76992 12.9529 8.77754 12.984 8.79224C13.0152 8.80694 13.0427 8.82834 13.0645 8.85492L13.672 9.66492H14.9095C15.2675 9.66456 15.6106 9.52221 15.8637 9.26912C16.1168 9.01602 16.2592 8.67285 16.2595 8.31492V7.41492H15.8095V7.86492Z" fill="#3C678C"/>
<path d="M12.6594 9.66492H13.1094L12.8844 9.36499L12.6594 9.66492Z" fill="#3C678C"/>
<path d="M17.4709 6.51489H8.29812C8.02278 6.51525 7.75881 6.62479 7.56411 6.81949C7.36942 7.01418 7.25988 7.27815 7.25952 7.55349C7.25952 7.58094 7.25952 7.60839 7.2629 7.63607L8.01237 17.0062C8.0299 17.2125 8.124 17.4047 8.27615 17.5452C8.4283 17.6856 8.62749 17.764 8.83452 17.7649H16.9345C17.1416 17.7639 17.3407 17.6854 17.4928 17.545C17.6449 17.4045 17.739 17.2123 17.7564 17.006L18.5059 7.63584C18.5083 7.60854 18.5095 7.58109 18.5095 7.55349C18.5092 7.27815 18.3996 7.01418 18.2049 6.81949C18.0102 6.62479 17.7463 6.51525 17.4709 6.51489ZM16.7095 8.31489C16.709 8.79212 16.5192 9.24964 16.1817 9.58709C15.8443 9.92454 15.3867 10.1144 14.9095 10.1149H10.8595C10.3823 10.1144 9.92477 9.92454 9.58732 9.58709C9.24987 9.24964 9.06006 8.79212 9.05952 8.31489V7.18989C9.05952 7.13022 9.08323 7.07299 9.12542 7.03079C9.16762 6.9886 9.22485 6.96489 9.28452 6.96489H16.4845C16.5442 6.96489 16.6014 6.9886 16.6436 7.03079C16.6858 7.07299 16.7095 7.13022 16.7095 7.18989V8.31489Z" fill="#3C678C"/>
<path d="M17.4708 5.61499H8.29798C7.78401 5.61559 7.29126 5.82002 6.92784 6.18345C6.56441 6.54688 6.35997 7.03962 6.35938 7.55359C6.35938 7.60519 6.3614 7.65672 6.36545 7.70817L7.11515 17.0778C7.15148 17.5094 7.34813 17.9117 7.66635 18.2055C7.98458 18.4993 8.40129 18.6632 8.83438 18.665H16.9344C17.3674 18.6631 17.7841 18.4992 18.1023 18.2054C18.4204 17.9116 18.617 17.5094 18.6534 17.0778L19.4033 7.70749C19.4074 7.65589 19.4094 7.60437 19.4094 7.55292C19.4086 7.03907 19.2041 6.5465 18.8407 6.18321C18.4773 5.81993 17.9846 5.61559 17.4708 5.61499ZM18.9547 7.67239L18.205 17.0421C18.178 17.361 18.0326 17.6582 17.7974 17.8753C17.5623 18.0924 17.2544 18.2135 16.9344 18.215H8.83438C8.51441 18.2135 8.20657 18.0924 7.97146 17.8753C7.73635 17.6583 7.591 17.3611 7.56403 17.0423L6.8141 7.67239C6.81095 7.63257 6.80938 7.59319 6.80938 7.55359C6.80985 7.15894 6.96684 6.78058 7.2459 6.50152C7.52497 6.22245 7.90332 6.06547 8.29798 6.06499H17.4708C17.8654 6.06547 18.2438 6.22245 18.5228 6.50152C18.8019 6.78058 18.9589 7.15894 18.9594 7.55359C18.9594 7.59319 18.9578 7.63279 18.9547 7.67239Z" fill="#3C678C"/>
</svg>
