<svg width="25" height="25" viewBox="0 0 25 25" fill="none" xmlns="http://www.w3.org/2000/svg">
<circle cx="12.3425" cy="12.1399" r="12" fill="#E8FAFC"/>
<path d="M12.8346 6.39647C12.7793 6.31726 12.7057 6.25256 12.62 6.20789C12.5344 6.16322 12.4392 6.13989 12.3426 6.13989C12.246 6.13989 12.1508 6.16322 12.0651 6.20789C11.9795 6.25256 11.9059 6.31726 11.8506 6.39647C11.4666 6.94847 8.14258 11.8265 8.14258 13.9385C8.14258 15.0524 8.58508 16.1207 9.37273 16.9083C10.1604 17.696 11.2287 18.1385 12.3426 18.1385C13.4565 18.1385 14.5248 17.696 15.3124 16.9083C16.1001 16.1207 16.5426 15.0524 16.5426 13.9385C16.5426 11.8265 13.2186 6.94847 12.8346 6.39647ZM12.0426 16.3385C11.4856 16.3385 10.9515 16.1172 10.5577 15.7234C10.1638 15.3296 9.94258 14.7954 9.94258 14.2385C9.94258 14.0793 10.0058 13.9267 10.1183 13.8142C10.2308 13.7017 10.3834 13.6385 10.5426 13.6385C10.7017 13.6385 10.8543 13.7017 10.9668 13.8142C11.0794 13.9267 11.1426 14.0793 11.1426 14.2385C11.1426 14.4772 11.2374 14.7061 11.4062 14.8749C11.575 15.0437 11.8039 15.1385 12.0426 15.1385C12.2017 15.1385 12.3543 15.2017 12.4668 15.3142C12.5794 15.4267 12.6426 15.5793 12.6426 15.7385C12.6426 15.8976 12.5794 16.0502 12.4668 16.1627C12.3543 16.2753 12.2017 16.3385 12.0426 16.3385Z" fill="#3C678C"/>
</svg>
