<svg width="25" height="25" viewBox="0 0 25 25" fill="none" xmlns="http://www.w3.org/2000/svg">
<path d="M18.2197 2.22559H7.51572C4.91172 2.22559 2.79297 4.34415 2.79297 6.94815V17.6527C2.79297 20.2569 4.91172 22.3755 7.51572 22.3755H18.2197C20.8245 22.3755 22.9427 20.2569 22.9427 17.6527V6.94796C22.9427 4.34396 20.8245 2.22559 18.2197 2.22559ZM21.3686 17.6525C21.3686 19.3886 19.956 20.8008 18.2197 20.8008H7.51572C5.77984 20.8008 4.36703 19.3886 4.36703 17.6525V6.94796C4.36703 5.2119 5.77984 3.79965 7.51572 3.79965H18.2197C19.956 3.79965 21.3686 5.2119 21.3686 6.94796V17.6525Z" fill="#3C678C"/>
<path d="M18.2222 12.0396L17.0594 6.75942C16.9838 6.41535 16.6885 6.16335 16.3373 6.14292C15.9858 6.12267 15.6625 6.3381 15.5468 6.67129L12.5408 15.3539L10.3574 9.54454C10.2486 9.25467 9.97975 9.05573 9.67094 9.03585C9.36212 9.01598 9.07056 9.1791 8.92525 9.45248L7.55294 12.0398H5.72481C5.29056 12.0398 4.9375 12.3923 4.9375 12.8269C4.9375 13.2615 5.29056 13.614 5.72481 13.614H8.02675C8.3185 13.614 8.58531 13.4534 8.72256 13.1955L9.49787 11.7325L11.8345 17.949C11.9502 18.256 12.2444 18.459 12.5716 18.459H12.5822C12.9134 18.4549 13.2068 18.2432 13.3156 17.9295L16.1221 9.82242L16.8211 12.9964C16.9004 13.3572 17.2197 13.6142 17.5894 13.6142H20.0099C20.4447 13.6142 20.7968 13.2617 20.7968 12.8271C20.7968 12.3925 20.4447 12.04 20.0099 12.04H18.2222V12.0396Z" fill="#3C678C"/>
</svg>
